<mxfile host="app.diagrams.net" modified="2023-02-09T19:49:49.956Z" agent="5.0 (Windows)" etag="5PoliOlbJyf-3UKZ_WB5" version="20.7.4" type="github">
  <diagram id="ZemDvEckYTRyPs_sbpMM" name="第 2 页">
    <mxGraphModel dx="13754" dy="8458" grid="1" gridSize="10" guides="1" tooltips="1" connect="1" arrows="1" fold="1" page="1" pageScale="1" pageWidth="827" pageHeight="1169" math="0" shadow="0">
      <root>
        <mxCell id="0" />
        <mxCell id="1" parent="0" />
        <mxCell id="9XWCOJLS9-OtnLwXKcL9-2" value="" style="rounded=0;whiteSpace=wrap;html=1;labelBackgroundColor=none;fontSize=12;fillColor=#b1ddf0;strokeColor=#10739e;movable=1;resizable=1;rotatable=1;deletable=1;editable=1;connectable=1;" vertex="1" parent="1">
          <mxGeometry x="-1540" y="-2130" width="1220" height="930" as="geometry" />
        </mxCell>
        <mxCell id="I11cwIQykDUJyyKI9_pE-20" value="" style="rounded=0;whiteSpace=wrap;html=1;fillColor=#f9f7ed;strokeColor=#36393d;" vertex="1" parent="1">
          <mxGeometry x="-1540" y="-1160" width="2810" height="1480" as="geometry" />
        </mxCell>
        <mxCell id="I11cwIQykDUJyyKI9_pE-15" value="" style="rounded=0;whiteSpace=wrap;html=1;fillColor=#dae8fc;strokeColor=#6c8ebf;" vertex="1" parent="1">
          <mxGeometry x="-1490" y="-1070" width="550" height="1360" as="geometry" />
        </mxCell>
        <mxCell id="I11cwIQykDUJyyKI9_pE-16" value="" style="rounded=0;whiteSpace=wrap;html=1;fillColor=#ffe6cc;strokeColor=#d79b00;" vertex="1" parent="1">
          <mxGeometry x="-1360" y="-185" width="360" height="450" as="geometry" />
        </mxCell>
        <mxCell id="I11cwIQykDUJyyKI9_pE-1" value="" style="rounded=0;whiteSpace=wrap;html=1;fillColor=#dae8fc;strokeColor=#6c8ebf;" vertex="1" parent="1">
          <mxGeometry x="-910" y="-1070" width="2100" height="1350" as="geometry" />
        </mxCell>
        <mxCell id="P7S23UqqKBfj5IkfKNHk-1" value="" style="rounded=0;whiteSpace=wrap;html=1;fontColor=#000000;fillColor=#1BA1E2;gradientColor=none;" vertex="1" parent="1">
          <mxGeometry x="-639" y="-1000" width="289" height="90" as="geometry" />
        </mxCell>
        <mxCell id="0pQdOWbOOhDd7QV4ZvYL-59" value="" style="rounded=0;whiteSpace=wrap;html=1;fillColor=#ffe6cc;strokeColor=#d79b00;" vertex="1" parent="1">
          <mxGeometry x="404" y="-1010" width="240" height="1130" as="geometry" />
        </mxCell>
        <mxCell id="0pQdOWbOOhDd7QV4ZvYL-36" value="" style="rounded=0;whiteSpace=wrap;html=1;fillColor=#ffe6cc;strokeColor=#d79b00;" vertex="1" parent="1">
          <mxGeometry x="712.5" y="-1005" width="410" height="1125" as="geometry" />
        </mxCell>
        <mxCell id="0pQdOWbOOhDd7QV4ZvYL-34" value="" style="rounded=0;whiteSpace=wrap;html=1;fontColor=#000000;" vertex="1" parent="1">
          <mxGeometry x="734" y="-190" width="359" height="190" as="geometry" />
        </mxCell>
        <mxCell id="0pQdOWbOOhDd7QV4ZvYL-25" value="" style="rounded=0;whiteSpace=wrap;html=1;fontColor=#000000;" vertex="1" parent="1">
          <mxGeometry x="743.5" y="-965" width="360" height="410" as="geometry" />
        </mxCell>
        <mxCell id="0pQdOWbOOhDd7QV4ZvYL-10" value="" style="rounded=0;whiteSpace=wrap;html=1;fillColor=#ffe6cc;strokeColor=#d79b00;" vertex="1" parent="1">
          <mxGeometry x="-47.5" y="-1010" width="414" height="1130" as="geometry" />
        </mxCell>
        <mxCell id="0pQdOWbOOhDd7QV4ZvYL-9" value="" style="rounded=0;whiteSpace=wrap;html=1;fillColor=#ffe6cc;strokeColor=#d79b00;" vertex="1" parent="1">
          <mxGeometry x="-247.5" y="-1010" width="180" height="1130" as="geometry" />
        </mxCell>
        <mxCell id="0pQdOWbOOhDd7QV4ZvYL-4" value="" style="rounded=0;whiteSpace=wrap;html=1;fillColor=#ffe6cc;strokeColor=#d79b00;" vertex="1" parent="1">
          <mxGeometry x="-652.5" y="-1010" width="310" height="1130" as="geometry" />
        </mxCell>
        <mxCell id="0pQdOWbOOhDd7QV4ZvYL-3" value="" style="rounded=0;whiteSpace=wrap;html=1;fillColor=#ffe6cc;strokeColor=#d79b00;" vertex="1" parent="1">
          <mxGeometry x="-880" y="-1010" width="180" height="1130" as="geometry" />
        </mxCell>
        <mxCell id="I11cwIQykDUJyyKI9_pE-5" style="edgeStyle=orthogonalEdgeStyle;rounded=0;jumpStyle=arc;orthogonalLoop=1;jettySize=auto;html=1;fontColor=#000000;" edge="1" parent="1" source="0pQdOWbOOhDd7QV4ZvYL-17" target="0pQdOWbOOhDd7QV4ZvYL-25">
          <mxGeometry relative="1" as="geometry">
            <Array as="points">
              <mxPoint x="652.5" y="-405" />
              <mxPoint x="652.5" y="-650" />
            </Array>
          </mxGeometry>
        </mxCell>
        <mxCell id="0pQdOWbOOhDd7QV4ZvYL-17" value="" style="rounded=0;whiteSpace=wrap;html=1;fontColor=#000000;" vertex="1" parent="1">
          <mxGeometry x="-3.5" y="-500" width="357.5" height="190" as="geometry" />
        </mxCell>
        <mxCell id="DE5koMyMQwbKPmNg74Yx-8" value="" style="rounded=0;whiteSpace=wrap;html=1;fillColor=#ffe6cc;strokeColor=#d79b00;" parent="1" vertex="1">
          <mxGeometry x="-1355" y="-1010" width="355" height="810" as="geometry" />
        </mxCell>
        <mxCell id="DE5koMyMQwbKPmNg74Yx-13" value="" style="rounded=0;whiteSpace=wrap;html=1;" parent="1" vertex="1">
          <mxGeometry x="-1335" y="-970" width="290" height="250" as="geometry" />
        </mxCell>
        <mxCell id="DE5koMyMQwbKPmNg74Yx-14" value="车道线" style="rounded=0;whiteSpace=wrap;html=1;fillColor=#1BA1E2;fontColor=default;strokeColor=#6c8ebf;gradientColor=none;" parent="1" vertex="1">
          <mxGeometry x="-1185" y="-860" width="120" height="60" as="geometry" />
        </mxCell>
        <mxCell id="DE5koMyMQwbKPmNg74Yx-15" value="1*前视感知" style="text;html=1;strokeColor=none;fillColor=none;align=center;verticalAlign=middle;whiteSpace=wrap;rounded=0;" parent="1" vertex="1">
          <mxGeometry x="-1225" y="-960" width="70" height="30" as="geometry" />
        </mxCell>
        <mxCell id="DE5koMyMQwbKPmNg74Yx-16" value="障碍物" style="rounded=0;whiteSpace=wrap;html=1;fillColor=#1BA1E2;fontColor=default;strokeColor=#6c8ebf;gradientColor=none;" parent="1" vertex="1">
          <mxGeometry x="-1185" y="-930" width="120" height="60" as="geometry" />
        </mxCell>
        <mxCell id="DE5koMyMQwbKPmNg74Yx-17" value="交通标志" style="rounded=0;whiteSpace=wrap;html=1;fillColor=#1BA1E2;fontColor=default;strokeColor=#6c8ebf;gradientColor=none;" parent="1" vertex="1">
          <mxGeometry x="-1325" y="-860" width="120" height="60" as="geometry" />
        </mxCell>
        <mxCell id="DE5koMyMQwbKPmNg74Yx-18" value="交通灯" style="rounded=0;whiteSpace=wrap;html=1;fillColor=#1BA1E2;fontColor=default;strokeColor=#6c8ebf;gradientColor=none;" parent="1" vertex="1">
          <mxGeometry x="-1322.5" y="-930" width="120" height="60" as="geometry" />
        </mxCell>
        <mxCell id="DE5koMyMQwbKPmNg74Yx-19" value="路面标识" style="rounded=0;whiteSpace=wrap;html=1;fillColor=#1BA1E2;fontColor=default;strokeColor=#6c8ebf;gradientColor=none;" parent="1" vertex="1">
          <mxGeometry x="-1325" y="-790" width="120" height="60" as="geometry" />
        </mxCell>
        <mxCell id="DE5koMyMQwbKPmNg74Yx-20" value="可通行区域" style="rounded=0;whiteSpace=wrap;html=1;fillColor=#1BA1E2;fontColor=default;strokeColor=#6c8ebf;gradientColor=none;" parent="1" vertex="1">
          <mxGeometry x="-1185" y="-790" width="120" height="60" as="geometry" />
        </mxCell>
        <mxCell id="DE5koMyMQwbKPmNg74Yx-23" value="" style="rounded=0;whiteSpace=wrap;html=1;" parent="1" vertex="1">
          <mxGeometry x="-1335" y="-695" width="290" height="240" as="geometry" />
        </mxCell>
        <mxCell id="DE5koMyMQwbKPmNg74Yx-24" value="车道" style="rounded=0;whiteSpace=wrap;html=1;fillColor=#1BA1E2;fontColor=default;strokeColor=#6c8ebf;gradientColor=none;" parent="1" vertex="1">
          <mxGeometry x="-1185" y="-595" width="120" height="60" as="geometry" />
        </mxCell>
        <mxCell id="DE5koMyMQwbKPmNg74Yx-25" value="4*周视感知" style="text;html=1;strokeColor=none;fillColor=none;align=center;verticalAlign=middle;whiteSpace=wrap;rounded=0;" parent="1" vertex="1">
          <mxGeometry x="-1225" y="-695" width="70" height="30" as="geometry" />
        </mxCell>
        <mxCell id="DE5koMyMQwbKPmNg74Yx-26" value="障碍物" style="rounded=0;whiteSpace=wrap;html=1;fillColor=#1BA1E2;fontColor=default;strokeColor=#6c8ebf;gradientColor=none;" parent="1" vertex="1">
          <mxGeometry x="-1185" y="-665" width="120" height="60" as="geometry" />
        </mxCell>
        <mxCell id="DE5koMyMQwbKPmNg74Yx-27" value="交通标志" style="rounded=0;whiteSpace=wrap;html=1;fillColor=#1BA1E2;fontColor=default;strokeColor=#6c8ebf;gradientColor=none;" parent="1" vertex="1">
          <mxGeometry x="-1325" y="-595" width="120" height="60" as="geometry" />
        </mxCell>
        <mxCell id="DE5koMyMQwbKPmNg74Yx-28" value="交通灯" style="rounded=0;whiteSpace=wrap;html=1;fillColor=#1BA1E2;fontColor=default;strokeColor=#6c8ebf;gradientColor=none;" parent="1" vertex="1">
          <mxGeometry x="-1325" y="-665" width="120" height="60" as="geometry" />
        </mxCell>
        <mxCell id="DE5koMyMQwbKPmNg74Yx-29" value="路面标识" style="rounded=0;whiteSpace=wrap;html=1;fillColor=#1BA1E2;fontColor=default;strokeColor=#6c8ebf;gradientColor=none;" parent="1" vertex="1">
          <mxGeometry x="-1325" y="-525" width="120" height="60" as="geometry" />
        </mxCell>
        <mxCell id="DE5koMyMQwbKPmNg74Yx-30" value="可通行区域" style="rounded=0;whiteSpace=wrap;html=1;fillColor=#1BA1E2;fontColor=default;strokeColor=#6c8ebf;gradientColor=none;" parent="1" vertex="1">
          <mxGeometry x="-1185" y="-525" width="120" height="60" as="geometry" />
        </mxCell>
        <mxCell id="DE5koMyMQwbKPmNg74Yx-42" value="" style="rounded=0;whiteSpace=wrap;html=1;" parent="1" vertex="1">
          <mxGeometry x="-1332.5" y="-435" width="290" height="100" as="geometry" />
        </mxCell>
        <mxCell id="DE5koMyMQwbKPmNg74Yx-43" value="障碍物" style="rounded=0;whiteSpace=wrap;html=1;fillColor=#1BA1E2;fontColor=default;strokeColor=#6c8ebf;gradientColor=none;" parent="1" vertex="1">
          <mxGeometry x="-1242.5" y="-405" width="120" height="60" as="geometry" />
        </mxCell>
        <mxCell id="DE5koMyMQwbKPmNg74Yx-44" value="1*前毫米波雷达感知" style="text;html=1;strokeColor=none;fillColor=none;align=center;verticalAlign=middle;whiteSpace=wrap;rounded=0;" parent="1" vertex="1">
          <mxGeometry x="-1237.5" y="-435" width="115" height="30" as="geometry" />
        </mxCell>
        <mxCell id="DE5koMyMQwbKPmNg74Yx-47" value="" style="rounded=0;whiteSpace=wrap;html=1;" parent="1" vertex="1">
          <mxGeometry x="-1332.5" y="-305" width="290" height="100" as="geometry" />
        </mxCell>
        <mxCell id="DE5koMyMQwbKPmNg74Yx-48" value="障碍物" style="rounded=0;whiteSpace=wrap;html=1;fillColor=#1BA1E2;fontColor=default;strokeColor=#6c8ebf;gradientColor=none;" parent="1" vertex="1">
          <mxGeometry x="-1242.5" y="-275" width="120" height="60" as="geometry" />
        </mxCell>
        <mxCell id="DE5koMyMQwbKPmNg74Yx-49" value="4*角毫米波雷达感知" style="text;html=1;strokeColor=none;fillColor=none;align=center;verticalAlign=middle;whiteSpace=wrap;rounded=0;" parent="1" vertex="1">
          <mxGeometry x="-1237.5" y="-305" width="125" height="30" as="geometry" />
        </mxCell>
        <mxCell id="DE5koMyMQwbKPmNg74Yx-142" style="edgeStyle=orthogonalEdgeStyle;rounded=0;jumpStyle=arc;orthogonalLoop=1;jettySize=auto;html=1;entryX=0;entryY=0.5;entryDx=0;entryDy=0;strokeColor=#000000;fontColor=#000000;" parent="1" source="DE5koMyMQwbKPmNg74Yx-73" target="DE5koMyMQwbKPmNg74Yx-141" edge="1">
          <mxGeometry relative="1" as="geometry" />
        </mxCell>
        <mxCell id="DE5koMyMQwbKPmNg74Yx-73" value="车道后处理" style="rounded=0;whiteSpace=wrap;html=1;fillColor=#1BA1E2;fontColor=default;strokeColor=#6c8ebf;gradientColor=none;" parent="1" vertex="1">
          <mxGeometry x="-612.5" y="-900" width="120" height="60" as="geometry" />
        </mxCell>
        <mxCell id="DE5koMyMQwbKPmNg74Yx-100" value="行车感知" style="text;html=1;strokeColor=none;fillColor=none;align=center;verticalAlign=middle;whiteSpace=wrap;rounded=0;fontColor=#000000;" parent="1" vertex="1">
          <mxGeometry x="-1205" y="-1010" width="60" height="30" as="geometry" />
        </mxCell>
        <mxCell id="DE5koMyMQwbKPmNg74Yx-105" value="" style="rounded=0;whiteSpace=wrap;html=1;" parent="1" vertex="1">
          <mxGeometry x="-1327.5" y="135" width="290" height="110" as="geometry" />
        </mxCell>
        <mxCell id="DE5koMyMQwbKPmNg74Yx-106" value="可通行区域" style="rounded=0;whiteSpace=wrap;html=1;fillColor=#1BA1E2;fontColor=default;strokeColor=#6c8ebf;gradientColor=none;" parent="1" vertex="1">
          <mxGeometry x="-1317.5" y="175" width="120" height="60" as="geometry" />
        </mxCell>
        <mxCell id="DE5koMyMQwbKPmNg74Yx-107" value="1*前视感知" style="text;html=1;strokeColor=none;fillColor=none;align=center;verticalAlign=middle;whiteSpace=wrap;rounded=0;" parent="1" vertex="1">
          <mxGeometry x="-1217.5" y="145" width="72.5" height="30" as="geometry" />
        </mxCell>
        <mxCell id="DE5koMyMQwbKPmNg74Yx-108" value="障碍物" style="rounded=0;whiteSpace=wrap;html=1;fillColor=#1BA1E2;fontColor=default;strokeColor=#6c8ebf;gradientColor=none;" parent="1" vertex="1">
          <mxGeometry x="-1177.5" y="175" width="120" height="60" as="geometry" />
        </mxCell>
        <mxCell id="DE5koMyMQwbKPmNg74Yx-140" style="edgeStyle=orthogonalEdgeStyle;rounded=0;jumpStyle=arc;orthogonalLoop=1;jettySize=auto;html=1;entryX=0;entryY=0.5;entryDx=0;entryDy=0;strokeColor=#000000;fontColor=#000000;" parent="1" source="DE5koMyMQwbKPmNg74Yx-139" target="DE5koMyMQwbKPmNg74Yx-73" edge="1">
          <mxGeometry relative="1" as="geometry" />
        </mxCell>
        <mxCell id="DE5koMyMQwbKPmNg74Yx-139" value="融合视觉车道线" style="rounded=0;whiteSpace=wrap;html=1;fillColor=#1BA1E2;strokeColor=#6c8ebf;gradientColor=none;" parent="1" vertex="1">
          <mxGeometry x="-850" y="-900" width="120" height="60" as="geometry" />
        </mxCell>
        <mxCell id="0pQdOWbOOhDd7QV4ZvYL-8" style="edgeStyle=orthogonalEdgeStyle;rounded=0;orthogonalLoop=1;jettySize=auto;html=1;fontColor=#000000;" edge="1" parent="1" source="DE5koMyMQwbKPmNg74Yx-141" target="tI25CvbmlSmO922o3aB8-3">
          <mxGeometry relative="1" as="geometry" />
        </mxCell>
        <mxCell id="DE5koMyMQwbKPmNg74Yx-141" value="融合视觉和地图车道线" style="rounded=0;whiteSpace=wrap;html=1;fillColor=#1BA1E2;fontColor=default;strokeColor=#6c8ebf;gradientColor=none;" parent="1" vertex="1">
          <mxGeometry x="-232.5" y="-900" width="140" height="60" as="geometry" />
        </mxCell>
        <mxCell id="DE5koMyMQwbKPmNg74Yx-144" style="edgeStyle=orthogonalEdgeStyle;rounded=0;jumpStyle=arc;orthogonalLoop=1;jettySize=auto;html=1;entryX=0;entryY=0.5;entryDx=0;entryDy=0;strokeColor=#000000;fontColor=#000000;" parent="1" source="DE5koMyMQwbKPmNg74Yx-145" target="DE5koMyMQwbKPmNg74Yx-148" edge="1">
          <mxGeometry relative="1" as="geometry" />
        </mxCell>
        <mxCell id="DE5koMyMQwbKPmNg74Yx-145" value="交通灯道后处理" style="rounded=0;whiteSpace=wrap;html=1;fillColor=#1BA1E2;fontColor=default;strokeColor=#6c8ebf;gradientColor=none;" parent="1" vertex="1">
          <mxGeometry x="-612.5" y="-810" width="120" height="60" as="geometry" />
        </mxCell>
        <mxCell id="DE5koMyMQwbKPmNg74Yx-146" style="edgeStyle=orthogonalEdgeStyle;rounded=0;jumpStyle=arc;orthogonalLoop=1;jettySize=auto;html=1;entryX=0;entryY=0.5;entryDx=0;entryDy=0;strokeColor=#000000;fontColor=#000000;" parent="1" source="DE5koMyMQwbKPmNg74Yx-147" target="DE5koMyMQwbKPmNg74Yx-145" edge="1">
          <mxGeometry relative="1" as="geometry" />
        </mxCell>
        <mxCell id="DE5koMyMQwbKPmNg74Yx-147" value="融合视觉交通灯" style="rounded=0;whiteSpace=wrap;html=1;fillColor=#1BA1E2;fontColor=default;strokeColor=#6c8ebf;gradientColor=none;" parent="1" vertex="1">
          <mxGeometry x="-850" y="-810" width="120" height="60" as="geometry" />
        </mxCell>
        <mxCell id="tI25CvbmlSmO922o3aB8-4" style="edgeStyle=orthogonalEdgeStyle;rounded=0;orthogonalLoop=1;jettySize=auto;html=1;entryX=0.25;entryY=1;entryDx=0;entryDy=0;fontColor=#000000;" edge="1" parent="1" source="DE5koMyMQwbKPmNg74Yx-148" target="tI25CvbmlSmO922o3aB8-3">
          <mxGeometry relative="1" as="geometry" />
        </mxCell>
        <mxCell id="I11cwIQykDUJyyKI9_pE-6" style="edgeStyle=orthogonalEdgeStyle;rounded=0;jumpStyle=arc;orthogonalLoop=1;jettySize=auto;html=1;fontColor=#000000;entryX=-0.005;entryY=0.452;entryDx=0;entryDy=0;entryPerimeter=0;" edge="1" parent="1" source="DE5koMyMQwbKPmNg74Yx-148" target="0pQdOWbOOhDd7QV4ZvYL-25">
          <mxGeometry relative="1" as="geometry" />
        </mxCell>
        <mxCell id="DE5koMyMQwbKPmNg74Yx-148" value="融合视觉和地图交通灯" style="rounded=0;whiteSpace=wrap;html=1;fillColor=#1BA1E2;fontColor=default;strokeColor=#6c8ebf;gradientColor=none;" parent="1" vertex="1">
          <mxGeometry x="-232.5" y="-810" width="140" height="60" as="geometry" />
        </mxCell>
        <mxCell id="DE5koMyMQwbKPmNg74Yx-149" style="edgeStyle=orthogonalEdgeStyle;rounded=0;jumpStyle=arc;orthogonalLoop=1;jettySize=auto;html=1;entryX=0;entryY=0.5;entryDx=0;entryDy=0;strokeColor=#000000;fontColor=#000000;" parent="1" source="DE5koMyMQwbKPmNg74Yx-150" target="DE5koMyMQwbKPmNg74Yx-153" edge="1">
          <mxGeometry relative="1" as="geometry" />
        </mxCell>
        <mxCell id="DE5koMyMQwbKPmNg74Yx-150" value="交通标志道后处理" style="rounded=0;whiteSpace=wrap;html=1;fillColor=#1BA1E2;fontColor=default;strokeColor=#6c8ebf;gradientColor=none;" parent="1" vertex="1">
          <mxGeometry x="-612.5" y="-710" width="120" height="60" as="geometry" />
        </mxCell>
        <mxCell id="DE5koMyMQwbKPmNg74Yx-151" style="edgeStyle=orthogonalEdgeStyle;rounded=0;jumpStyle=arc;orthogonalLoop=1;jettySize=auto;html=1;entryX=0;entryY=0.5;entryDx=0;entryDy=0;strokeColor=#000000;fontColor=#000000;" parent="1" source="DE5koMyMQwbKPmNg74Yx-152" target="DE5koMyMQwbKPmNg74Yx-150" edge="1">
          <mxGeometry relative="1" as="geometry" />
        </mxCell>
        <mxCell id="DE5koMyMQwbKPmNg74Yx-152" value="融合视觉交通标志" style="rounded=0;whiteSpace=wrap;html=1;fillColor=#1BA1E2;fontColor=default;strokeColor=#6c8ebf;gradientColor=none;" parent="1" vertex="1">
          <mxGeometry x="-850" y="-710" width="120" height="60" as="geometry" />
        </mxCell>
        <mxCell id="tI25CvbmlSmO922o3aB8-5" style="edgeStyle=orthogonalEdgeStyle;rounded=0;orthogonalLoop=1;jettySize=auto;html=1;fontColor=#000000;" edge="1" parent="1" source="DE5koMyMQwbKPmNg74Yx-153" target="tI25CvbmlSmO922o3aB8-3">
          <mxGeometry relative="1" as="geometry" />
        </mxCell>
        <mxCell id="I11cwIQykDUJyyKI9_pE-7" style="edgeStyle=orthogonalEdgeStyle;rounded=0;jumpStyle=arc;orthogonalLoop=1;jettySize=auto;html=1;entryX=0.001;entryY=0.696;entryDx=0;entryDy=0;entryPerimeter=0;fontColor=#000000;" edge="1" parent="1" source="DE5koMyMQwbKPmNg74Yx-153" target="0pQdOWbOOhDd7QV4ZvYL-25">
          <mxGeometry relative="1" as="geometry" />
        </mxCell>
        <mxCell id="DE5koMyMQwbKPmNg74Yx-153" value="融合视觉和地图交通标志" style="rounded=0;whiteSpace=wrap;html=1;fillColor=#1BA1E2;fontColor=default;strokeColor=#6c8ebf;gradientColor=none;" parent="1" vertex="1">
          <mxGeometry x="-232.5" y="-710" width="140" height="60" as="geometry" />
        </mxCell>
        <mxCell id="DE5koMyMQwbKPmNg74Yx-154" style="edgeStyle=orthogonalEdgeStyle;rounded=0;jumpStyle=arc;orthogonalLoop=1;jettySize=auto;html=1;entryX=0;entryY=0.5;entryDx=0;entryDy=0;strokeColor=#000000;fontColor=#000000;" parent="1" source="DE5koMyMQwbKPmNg74Yx-155" target="DE5koMyMQwbKPmNg74Yx-158" edge="1">
          <mxGeometry relative="1" as="geometry" />
        </mxCell>
        <mxCell id="DE5koMyMQwbKPmNg74Yx-155" value="路面标识道后处理" style="rounded=0;whiteSpace=wrap;html=1;fillColor=#1BA1E2;fontColor=default;strokeColor=#6c8ebf;gradientColor=none;" parent="1" vertex="1">
          <mxGeometry x="-612.5" y="-615" width="120" height="60" as="geometry" />
        </mxCell>
        <mxCell id="DE5koMyMQwbKPmNg74Yx-156" style="edgeStyle=orthogonalEdgeStyle;rounded=0;jumpStyle=arc;orthogonalLoop=1;jettySize=auto;html=1;entryX=0;entryY=0.5;entryDx=0;entryDy=0;strokeColor=#000000;fontColor=#000000;" parent="1" source="DE5koMyMQwbKPmNg74Yx-157" target="DE5koMyMQwbKPmNg74Yx-155" edge="1">
          <mxGeometry relative="1" as="geometry" />
        </mxCell>
        <mxCell id="DE5koMyMQwbKPmNg74Yx-157" value="融合视觉路面标识" style="rounded=0;whiteSpace=wrap;html=1;fillColor=#1BA1E2;fontColor=default;strokeColor=#6c8ebf;gradientColor=none;" parent="1" vertex="1">
          <mxGeometry x="-850" y="-615" width="120" height="60" as="geometry" />
        </mxCell>
        <mxCell id="tI25CvbmlSmO922o3aB8-6" style="edgeStyle=orthogonalEdgeStyle;rounded=0;orthogonalLoop=1;jettySize=auto;html=1;entryX=0.75;entryY=1;entryDx=0;entryDy=0;fontColor=#000000;" edge="1" parent="1" source="DE5koMyMQwbKPmNg74Yx-158" target="tI25CvbmlSmO922o3aB8-3">
          <mxGeometry relative="1" as="geometry" />
        </mxCell>
        <mxCell id="I11cwIQykDUJyyKI9_pE-8" style="edgeStyle=orthogonalEdgeStyle;rounded=0;jumpStyle=arc;orthogonalLoop=1;jettySize=auto;html=1;entryX=0.025;entryY=0.927;entryDx=0;entryDy=0;entryPerimeter=0;fontColor=#000000;" edge="1" parent="1" source="DE5koMyMQwbKPmNg74Yx-158" target="0pQdOWbOOhDd7QV4ZvYL-25">
          <mxGeometry relative="1" as="geometry" />
        </mxCell>
        <mxCell id="DE5koMyMQwbKPmNg74Yx-158" value="融合视觉和地图路面标识" style="rounded=0;whiteSpace=wrap;html=1;fillColor=#1BA1E2;fontColor=default;strokeColor=#6c8ebf;gradientColor=none;" parent="1" vertex="1">
          <mxGeometry x="-232.5" y="-615" width="140" height="60" as="geometry" />
        </mxCell>
        <mxCell id="0pQdOWbOOhDd7QV4ZvYL-65" style="edgeStyle=orthogonalEdgeStyle;rounded=0;orthogonalLoop=1;jettySize=auto;html=1;entryX=0;entryY=0.25;entryDx=0;entryDy=0;fontColor=#000000;" edge="1" parent="1" source="DE5koMyMQwbKPmNg74Yx-162" target="DE5koMyMQwbKPmNg74Yx-169">
          <mxGeometry relative="1" as="geometry">
            <Array as="points">
              <mxPoint x="-280" y="-180" />
              <mxPoint x="-280" y="-35" />
            </Array>
          </mxGeometry>
        </mxCell>
        <mxCell id="I11cwIQykDUJyyKI9_pE-10" style="edgeStyle=orthogonalEdgeStyle;rounded=0;jumpStyle=arc;orthogonalLoop=1;jettySize=auto;html=1;entryX=0.5;entryY=1;entryDx=0;entryDy=0;fontColor=#000000;exitX=1;exitY=0.5;exitDx=0;exitDy=0;" edge="1" parent="1" source="DE5koMyMQwbKPmNg74Yx-162" target="0pQdOWbOOhDd7QV4ZvYL-25">
          <mxGeometry relative="1" as="geometry">
            <Array as="points">
              <mxPoint x="-670" y="-180" />
              <mxPoint x="-670" y="-250" />
              <mxPoint x="924" y="-250" />
            </Array>
          </mxGeometry>
        </mxCell>
        <mxCell id="I11cwIQykDUJyyKI9_pE-11" style="edgeStyle=orthogonalEdgeStyle;rounded=0;jumpStyle=arc;orthogonalLoop=1;jettySize=auto;html=1;entryX=-0.007;entryY=0.286;entryDx=0;entryDy=0;fontColor=#000000;entryPerimeter=0;" edge="1" parent="1" source="DE5koMyMQwbKPmNg74Yx-162" target="0pQdOWbOOhDd7QV4ZvYL-34">
          <mxGeometry relative="1" as="geometry">
            <Array as="points">
              <mxPoint x="-690" y="-180" />
              <mxPoint x="-690" y="-220" />
              <mxPoint x="670" y="-220" />
              <mxPoint x="670" y="-136" />
            </Array>
          </mxGeometry>
        </mxCell>
        <mxCell id="DE5koMyMQwbKPmNg74Yx-162" value="融合视觉可通行区域" style="rounded=0;whiteSpace=wrap;html=1;fillColor=#1BA1E2;fontColor=default;strokeColor=#6c8ebf;gradientColor=none;" parent="1" vertex="1">
          <mxGeometry x="-850" y="-210" width="120" height="60" as="geometry" />
        </mxCell>
        <mxCell id="0pQdOWbOOhDd7QV4ZvYL-7" style="edgeStyle=orthogonalEdgeStyle;rounded=0;orthogonalLoop=1;jettySize=auto;html=1;entryX=0;entryY=0.5;entryDx=0;entryDy=0;fontColor=#000000;" edge="1" parent="1" source="DE5koMyMQwbKPmNg74Yx-165" target="RWJ9yIpOm_uke4xj33BC-10">
          <mxGeometry relative="1" as="geometry" />
        </mxCell>
        <mxCell id="DE5koMyMQwbKPmNg74Yx-165" value="周视+前视障碍物融合" style="rounded=0;whiteSpace=wrap;html=1;fillColor=#1BA1E2;fontColor=default;strokeColor=#6c8ebf;gradientColor=none;" parent="1" vertex="1">
          <mxGeometry x="-850" y="-435" width="120" height="60" as="geometry" />
        </mxCell>
        <mxCell id="DE5koMyMQwbKPmNg74Yx-167" value="障碍物1&lt;br&gt;（前视+周视+毫米波融合）" style="rounded=0;whiteSpace=wrap;html=1;fillColor=#1BA1E2;fontColor=default;strokeColor=#6c8ebf;gradientColor=none;" parent="1" vertex="1">
          <mxGeometry x="933.5" y="-900" width="150" height="60" as="geometry" />
        </mxCell>
        <mxCell id="I11cwIQykDUJyyKI9_pE-12" style="edgeStyle=orthogonalEdgeStyle;rounded=0;jumpStyle=arc;orthogonalLoop=1;jettySize=auto;html=1;entryX=0;entryY=0.75;entryDx=0;entryDy=0;fontColor=#000000;" edge="1" parent="1" source="DE5koMyMQwbKPmNg74Yx-169" target="0pQdOWbOOhDd7QV4ZvYL-34">
          <mxGeometry relative="1" as="geometry" />
        </mxCell>
        <mxCell id="DE5koMyMQwbKPmNg74Yx-169" value="车位融合" style="rounded=0;whiteSpace=wrap;html=1;fillColor=#1BA1E2;fontColor=default;strokeColor=#6c8ebf;gradientColor=none;" parent="1" vertex="1">
          <mxGeometry x="464" y="-50" width="120" height="60" as="geometry" />
        </mxCell>
        <mxCell id="0pQdOWbOOhDd7QV4ZvYL-14" style="edgeStyle=orthogonalEdgeStyle;rounded=0;orthogonalLoop=1;jettySize=auto;html=1;entryX=0.5;entryY=0;entryDx=0;entryDy=0;fontColor=#000000;" edge="1" parent="1" source="nNDmgDMOw3DfOQE0_dU8-31" target="tI25CvbmlSmO922o3aB8-2">
          <mxGeometry relative="1" as="geometry" />
        </mxCell>
        <mxCell id="nNDmgDMOw3DfOQE0_dU8-31" value="融合障碍物" style="rounded=0;whiteSpace=wrap;html=1;fillColor=#1BA1E2;fontColor=default;strokeColor=#6c8ebf;gradientColor=none;" vertex="1" parent="1">
          <mxGeometry x="24" y="-480" width="320" height="50" as="geometry" />
        </mxCell>
        <mxCell id="tI25CvbmlSmO922o3aB8-2" value="融合车道障碍物" style="rounded=0;whiteSpace=wrap;html=1;fillColor=#1BA1E2;fontColor=default;strokeColor=#6c8ebf;gradientColor=none;" vertex="1" parent="1">
          <mxGeometry x="28" y="-395" width="120" height="60" as="geometry" />
        </mxCell>
        <mxCell id="0pQdOWbOOhDd7QV4ZvYL-16" style="edgeStyle=orthogonalEdgeStyle;rounded=0;orthogonalLoop=1;jettySize=auto;html=1;fontColor=#000000;jumpStyle=arc;" edge="1" parent="1" source="tI25CvbmlSmO922o3aB8-3">
          <mxGeometry x="-0.1927" y="94" relative="1" as="geometry">
            <mxPoint x="34" y="-360" as="targetPoint" />
            <Array as="points">
              <mxPoint x="207.5" y="-875" />
              <mxPoint x="207.5" y="-550" />
              <mxPoint x="-27.5" y="-550" />
              <mxPoint x="-27.5" y="-360" />
            </Array>
            <mxPoint x="-2" y="18" as="offset" />
          </mxGeometry>
        </mxCell>
        <mxCell id="I11cwIQykDUJyyKI9_pE-4" style="edgeStyle=orthogonalEdgeStyle;rounded=0;jumpStyle=arc;orthogonalLoop=1;jettySize=auto;html=1;fontColor=#000000;entryX=0.001;entryY=0.234;entryDx=0;entryDy=0;entryPerimeter=0;" edge="1" parent="1" source="tI25CvbmlSmO922o3aB8-3" target="0pQdOWbOOhDd7QV4ZvYL-25">
          <mxGeometry relative="1" as="geometry" />
        </mxCell>
        <mxCell id="tI25CvbmlSmO922o3aB8-3" value="车道融合" style="rounded=0;whiteSpace=wrap;html=1;fillColor=#1BA1E2;fontColor=default;strokeColor=#6c8ebf;gradientColor=none;" vertex="1" parent="1">
          <mxGeometry x="28" y="-900" width="120" height="60" as="geometry" />
        </mxCell>
        <mxCell id="tI25CvbmlSmO922o3aB8-7" value="车道" style="rounded=0;whiteSpace=wrap;html=1;fillColor=#1BA1E2;fontColor=default;strokeColor=#6c8ebf;gradientColor=none;" vertex="1" parent="1">
          <mxGeometry x="783.5" y="-900" width="120" height="60" as="geometry" />
        </mxCell>
        <mxCell id="xoGuA_c_76lULK0y5vnM-1" value="交通灯" style="rounded=0;whiteSpace=wrap;html=1;fillColor=#1BA1E2;fontColor=default;strokeColor=#6c8ebf;gradientColor=none;" vertex="1" parent="1">
          <mxGeometry x="783.5" y="-810" width="120" height="60" as="geometry" />
        </mxCell>
        <mxCell id="xoGuA_c_76lULK0y5vnM-2" value="交通标识" style="rounded=0;whiteSpace=wrap;html=1;fillColor=#1BA1E2;fontColor=default;strokeColor=#6c8ebf;gradientColor=none;" vertex="1" parent="1">
          <mxGeometry x="783.5" y="-710" width="120" height="60" as="geometry" />
        </mxCell>
        <mxCell id="0pQdOWbOOhDd7QV4ZvYL-1" value="交通标识" style="rounded=0;whiteSpace=wrap;html=1;fillColor=#1BA1E2;fontColor=default;strokeColor=#6c8ebf;gradientColor=none;" vertex="1" parent="1">
          <mxGeometry x="938.5" y="-812.5" width="120" height="60" as="geometry" />
        </mxCell>
        <mxCell id="0pQdOWbOOhDd7QV4ZvYL-2" value="可通行区域" style="rounded=0;whiteSpace=wrap;html=1;fillColor=#1BA1E2;fontColor=default;strokeColor=#6c8ebf;gradientColor=none;" vertex="1" parent="1">
          <mxGeometry x="943.5" y="-710" width="120" height="60" as="geometry" />
        </mxCell>
        <mxCell id="0pQdOWbOOhDd7QV4ZvYL-5" value="行车" style="rounded=0;whiteSpace=wrap;html=1;" vertex="1" parent="1">
          <mxGeometry x="-640" y="-975" width="147.5" height="45" as="geometry" />
        </mxCell>
        <mxCell id="0pQdOWbOOhDd7QV4ZvYL-6" value="泊车" style="rounded=0;whiteSpace=wrap;html=1;" vertex="1" parent="1">
          <mxGeometry x="-480" y="-975" width="130" height="45" as="geometry" />
        </mxCell>
        <mxCell id="0pQdOWbOOhDd7QV4ZvYL-64" style="edgeStyle=orthogonalEdgeStyle;rounded=0;orthogonalLoop=1;jettySize=auto;html=1;fontColor=#000000;entryX=0;entryY=0.5;entryDx=0;entryDy=0;jumpStyle=arc;" edge="1" parent="1" source="RWJ9yIpOm_uke4xj33BC-10" target="0pQdOWbOOhDd7QV4ZvYL-17">
          <mxGeometry relative="1" as="geometry">
            <mxPoint x="-120.00000000000045" y="-405" as="targetPoint" />
          </mxGeometry>
        </mxCell>
        <mxCell id="I11cwIQykDUJyyKI9_pE-9" style="edgeStyle=orthogonalEdgeStyle;rounded=0;jumpStyle=arc;orthogonalLoop=1;jettySize=auto;html=1;entryX=0.219;entryY=1.012;entryDx=0;entryDy=0;entryPerimeter=0;fontColor=#000000;" edge="1" parent="1" source="RWJ9yIpOm_uke4xj33BC-10" target="0pQdOWbOOhDd7QV4ZvYL-25">
          <mxGeometry relative="1" as="geometry">
            <Array as="points">
              <mxPoint x="-502" y="-270" />
              <mxPoint x="740" y="-270" />
            </Array>
          </mxGeometry>
        </mxCell>
        <mxCell id="I11cwIQykDUJyyKI9_pE-13" style="edgeStyle=orthogonalEdgeStyle;rounded=0;jumpStyle=arc;orthogonalLoop=1;jettySize=auto;html=1;fontColor=#000000;exitX=1;exitY=0.5;exitDx=0;exitDy=0;" edge="1" parent="1" source="RWJ9yIpOm_uke4xj33BC-10" target="0pQdOWbOOhDd7QV4ZvYL-34">
          <mxGeometry relative="1" as="geometry">
            <Array as="points">
              <mxPoint x="-320" y="-405" />
              <mxPoint x="-320" y="-100" />
            </Array>
          </mxGeometry>
        </mxCell>
        <mxCell id="RWJ9yIpOm_uke4xj33BC-10" value="" style="rounded=0;whiteSpace=wrap;html=1;fontColor=#000000;" vertex="1" parent="1">
          <mxGeometry x="-632.5" y="-495" width="260" height="180" as="geometry" />
        </mxCell>
        <mxCell id="RWJ9yIpOm_uke4xj33BC-6" value="视觉障碍物后处理&lt;br&gt;（前视+周视融合结果）" style="rounded=0;whiteSpace=wrap;html=1;fillColor=#1BA1E2;fontColor=default;strokeColor=#6c8ebf;gradientColor=none;" vertex="1" parent="1">
          <mxGeometry x="-622.5" y="-465" width="240" height="40" as="geometry" />
        </mxCell>
        <mxCell id="RWJ9yIpOm_uke4xj33BC-7" value="环视障碍物后处理" style="rounded=0;whiteSpace=wrap;html=1;fillColor=#1BA1E2;fontColor=default;strokeColor=#6c8ebf;gradientColor=none;" vertex="1" parent="1">
          <mxGeometry x="-512.5" y="-420" width="130" height="40" as="geometry" />
        </mxCell>
        <mxCell id="RWJ9yIpOm_uke4xj33BC-8" value="前毫米波雷达后处理" style="rounded=0;whiteSpace=wrap;html=1;fillColor=#1BA1E2;fontColor=default;strokeColor=#6c8ebf;gradientColor=none;" vertex="1" parent="1">
          <mxGeometry x="-618.5" y="-420" width="78.5" height="40" as="geometry" />
        </mxCell>
        <mxCell id="RWJ9yIpOm_uke4xj33BC-9" value="角毫米波雷达后处理" style="rounded=0;whiteSpace=wrap;html=1;fillColor=#1BA1E2;fontColor=default;strokeColor=#6c8ebf;gradientColor=none;" vertex="1" parent="1">
          <mxGeometry x="-617.5" y="-370" width="75" height="40" as="geometry" />
        </mxCell>
        <mxCell id="RWJ9yIpOm_uke4xj33BC-13" value="障碍物后处理" style="text;html=1;strokeColor=none;fillColor=none;align=center;verticalAlign=middle;whiteSpace=wrap;rounded=0;fontColor=#000000;" vertex="1" parent="1">
          <mxGeometry x="-540" y="-495" width="75" height="30" as="geometry" />
        </mxCell>
        <mxCell id="0pQdOWbOOhDd7QV4ZvYL-11" value="行车" style="rounded=0;whiteSpace=wrap;html=1;" vertex="1" parent="1">
          <mxGeometry x="-37.5" y="-970" width="184.63" height="45" as="geometry" />
        </mxCell>
        <mxCell id="0pQdOWbOOhDd7QV4ZvYL-12" value="泊车" style="rounded=0;whiteSpace=wrap;html=1;" vertex="1" parent="1">
          <mxGeometry x="175.88" y="-970" width="180" height="47.5" as="geometry" />
        </mxCell>
        <mxCell id="0pQdOWbOOhDd7QV4ZvYL-18" value="障碍物融合" style="text;html=1;strokeColor=none;fillColor=none;align=center;verticalAlign=middle;whiteSpace=wrap;rounded=0;fontColor=#000000;" vertex="1" parent="1">
          <mxGeometry x="226.5" y="-385" width="80" height="30" as="geometry" />
        </mxCell>
        <mxCell id="0pQdOWbOOhDd7QV4ZvYL-20" value="车位" style="rounded=0;whiteSpace=wrap;html=1;fillColor=#1BA1E2;fontColor=default;strokeColor=#6c8ebf;gradientColor=none;" vertex="1" parent="1">
          <mxGeometry x="753" y="-155" width="120" height="60" as="geometry" />
        </mxCell>
        <mxCell id="0pQdOWbOOhDd7QV4ZvYL-21" value="行车视觉融合" style="text;html=1;strokeColor=none;fillColor=none;align=center;verticalAlign=middle;whiteSpace=wrap;rounded=0;fontColor=#000000;" vertex="1" parent="1">
          <mxGeometry x="-835" y="-990" width="90" height="30" as="geometry" />
        </mxCell>
        <mxCell id="0pQdOWbOOhDd7QV4ZvYL-22" value="后处理处理" style="text;html=1;strokeColor=none;fillColor=none;align=center;verticalAlign=middle;whiteSpace=wrap;rounded=0;fontColor=#000000;" vertex="1" parent="1">
          <mxGeometry x="-532.5" y="-1000" width="77.5" height="30" as="geometry" />
        </mxCell>
        <mxCell id="0pQdOWbOOhDd7QV4ZvYL-23" value="高精度地图&amp;amp;视觉融合" style="text;html=1;strokeColor=none;fillColor=none;align=center;verticalAlign=middle;whiteSpace=wrap;rounded=0;fontColor=#000000;" vertex="1" parent="1">
          <mxGeometry x="-222.5" y="-995" width="130" height="30" as="geometry" />
        </mxCell>
        <mxCell id="0pQdOWbOOhDd7QV4ZvYL-24" value="车道线&amp;amp;障碍物融合" style="text;html=1;strokeColor=none;fillColor=none;align=center;verticalAlign=middle;whiteSpace=wrap;rounded=0;fontColor=#000000;" vertex="1" parent="1">
          <mxGeometry x="54" y="-1005" width="162" height="30" as="geometry" />
        </mxCell>
        <mxCell id="0pQdOWbOOhDd7QV4ZvYL-26" value="行车" style="text;html=1;strokeColor=none;fillColor=none;align=center;verticalAlign=middle;whiteSpace=wrap;rounded=0;fontColor=#000000;" vertex="1" parent="1">
          <mxGeometry x="898.5" y="-940" width="60" height="30" as="geometry" />
        </mxCell>
        <mxCell id="0pQdOWbOOhDd7QV4ZvYL-27" value="障碍物1&lt;br&gt;（前视+环视）" style="rounded=0;whiteSpace=wrap;html=1;fillColor=#1BA1E2;fontColor=default;strokeColor=#6c8ebf;gradientColor=none;" vertex="1" parent="1">
          <mxGeometry x="934" y="-155" width="120" height="60" as="geometry" />
        </mxCell>
        <mxCell id="0pQdOWbOOhDd7QV4ZvYL-32" value="障碍物2&lt;br&gt;（超声波）" style="rounded=0;whiteSpace=wrap;html=1;fillColor=#1BA1E2;fontColor=default;strokeColor=#6c8ebf;gradientColor=none;" vertex="1" parent="1">
          <mxGeometry x="753" y="-70" width="120" height="60" as="geometry" />
        </mxCell>
        <mxCell id="0pQdOWbOOhDd7QV4ZvYL-33" value="障碍物2&lt;br&gt;（超声波）" style="rounded=0;whiteSpace=wrap;html=1;fillColor=#1BA1E2;fontColor=default;strokeColor=#6c8ebf;gradientColor=none;" vertex="1" parent="1">
          <mxGeometry x="783.5" y="-630" width="120" height="60" as="geometry" />
        </mxCell>
        <mxCell id="0pQdOWbOOhDd7QV4ZvYL-35" value="泊车" style="text;html=1;strokeColor=none;fillColor=none;align=center;verticalAlign=middle;whiteSpace=wrap;rounded=0;fontColor=#000000;" vertex="1" parent="1">
          <mxGeometry x="869" y="-185" width="60" height="30" as="geometry" />
        </mxCell>
        <mxCell id="0pQdOWbOOhDd7QV4ZvYL-37" value="输出" style="text;html=1;strokeColor=none;fillColor=none;align=center;verticalAlign=middle;whiteSpace=wrap;rounded=0;fontColor=#000000;" vertex="1" parent="1">
          <mxGeometry x="883.5" y="-1005" width="60" height="30" as="geometry" />
        </mxCell>
        <mxCell id="0pQdOWbOOhDd7QV4ZvYL-38" value="超声波雷达后处理" style="rounded=0;whiteSpace=wrap;html=1;fillColor=#1BA1E2;fontColor=default;strokeColor=#6c8ebf;gradientColor=none;" vertex="1" parent="1">
          <mxGeometry x="-512.5" y="-370" width="130" height="40" as="geometry" />
        </mxCell>
        <mxCell id="0pQdOWbOOhDd7QV4ZvYL-39" value="" style="rounded=0;whiteSpace=wrap;html=1;" vertex="1" parent="1">
          <mxGeometry x="-1327.5" y="-45" width="290" height="170" as="geometry" />
        </mxCell>
        <mxCell id="0pQdOWbOOhDd7QV4ZvYL-40" value="障碍物" style="rounded=0;whiteSpace=wrap;html=1;fillColor=#1BA1E2;fontColor=default;strokeColor=#6c8ebf;gradientColor=none;" vertex="1" parent="1">
          <mxGeometry x="-1317.5" y="-15" width="120" height="60" as="geometry" />
        </mxCell>
        <mxCell id="0pQdOWbOOhDd7QV4ZvYL-41" value="4*鱼眼感知" style="text;html=1;strokeColor=none;fillColor=none;align=center;verticalAlign=middle;whiteSpace=wrap;rounded=0;" vertex="1" parent="1">
          <mxGeometry x="-1217.5" y="-45" width="70" height="30" as="geometry" />
        </mxCell>
        <mxCell id="0pQdOWbOOhDd7QV4ZvYL-42" value="视觉车位" style="rounded=0;whiteSpace=wrap;html=1;fillColor=#1BA1E2;fontColor=default;strokeColor=#6c8ebf;gradientColor=none;" vertex="1" parent="1">
          <mxGeometry x="-1177.5" y="-15" width="120" height="60" as="geometry" />
        </mxCell>
        <mxCell id="0pQdOWbOOhDd7QV4ZvYL-43" value="AVM" style="rounded=0;whiteSpace=wrap;html=1;fillColor=#1BA1E2;fontColor=default;strokeColor=#6c8ebf;gradientColor=none;" vertex="1" parent="1">
          <mxGeometry x="-1317.5" y="55" width="120" height="60" as="geometry" />
        </mxCell>
        <mxCell id="0pQdOWbOOhDd7QV4ZvYL-44" value="" style="rounded=0;whiteSpace=wrap;html=1;" vertex="1" parent="1">
          <mxGeometry x="-1327.5" y="-155" width="290" height="100" as="geometry" />
        </mxCell>
        <mxCell id="0pQdOWbOOhDd7QV4ZvYL-45" value="障碍物" style="rounded=0;whiteSpace=wrap;html=1;fillColor=#1BA1E2;fontColor=default;strokeColor=#6c8ebf;gradientColor=none;" vertex="1" parent="1">
          <mxGeometry x="-1317.5" y="-125" width="120" height="60" as="geometry" />
        </mxCell>
        <mxCell id="0pQdOWbOOhDd7QV4ZvYL-46" value="12超声波雷达感知" style="text;html=1;strokeColor=none;fillColor=none;align=center;verticalAlign=middle;whiteSpace=wrap;rounded=0;" vertex="1" parent="1">
          <mxGeometry x="-1232.5" y="-155" width="105" height="30" as="geometry" />
        </mxCell>
        <mxCell id="0pQdOWbOOhDd7QV4ZvYL-47" value="空间车位" style="rounded=0;whiteSpace=wrap;html=1;fillColor=#1BA1E2;fontColor=default;strokeColor=#6c8ebf;gradientColor=none;" vertex="1" parent="1">
          <mxGeometry x="-1177.5" y="-125" width="120" height="60" as="geometry" />
        </mxCell>
        <mxCell id="0pQdOWbOOhDd7QV4ZvYL-58" value="" style="group;verticalAlign=middle;fillColor=#1BA1E2;strokeColor=#6c8ebf;rounded=0;" vertex="1" connectable="0" parent="1">
          <mxGeometry x="-532.5" y="-85" width="170" height="130" as="geometry" />
        </mxCell>
        <mxCell id="0pQdOWbOOhDd7QV4ZvYL-56" value="" style="rounded=0;whiteSpace=wrap;html=1;fontColor=#000000;" vertex="1" parent="0pQdOWbOOhDd7QV4ZvYL-58">
          <mxGeometry width="170" height="130" as="geometry" />
        </mxCell>
        <mxCell id="0pQdOWbOOhDd7QV4ZvYL-53" value="视觉车位后处理" style="rounded=0;whiteSpace=wrap;html=1;fillColor=#1BA1E2;fontColor=default;strokeColor=#6c8ebf;gradientColor=none;" vertex="1" parent="0pQdOWbOOhDd7QV4ZvYL-58">
          <mxGeometry x="20" y="80" width="130" height="40" as="geometry" />
        </mxCell>
        <mxCell id="0pQdOWbOOhDd7QV4ZvYL-54" value="空间车位后处理" style="rounded=0;whiteSpace=wrap;html=1;fillColor=#1BA1E2;fontColor=default;strokeColor=#6c8ebf;gradientColor=none;" vertex="1" parent="0pQdOWbOOhDd7QV4ZvYL-58">
          <mxGeometry x="20" y="30" width="130" height="40" as="geometry" />
        </mxCell>
        <mxCell id="0pQdOWbOOhDd7QV4ZvYL-57" value="车位" style="text;html=1;strokeColor=none;fillColor=none;align=center;verticalAlign=middle;whiteSpace=wrap;rounded=0;fontColor=#000000;" vertex="1" parent="0pQdOWbOOhDd7QV4ZvYL-58">
          <mxGeometry x="55" width="60" height="30" as="geometry" />
        </mxCell>
        <mxCell id="0pQdOWbOOhDd7QV4ZvYL-60" value="超声波&amp;amp;视觉融合" style="text;html=1;strokeColor=none;fillColor=none;align=center;verticalAlign=middle;whiteSpace=wrap;rounded=0;fontColor=#000000;" vertex="1" parent="1">
          <mxGeometry x="412" y="-995" width="162" height="35" as="geometry" />
        </mxCell>
        <mxCell id="0pQdOWbOOhDd7QV4ZvYL-63" style="edgeStyle=orthogonalEdgeStyle;rounded=0;orthogonalLoop=1;jettySize=auto;html=1;entryX=0;entryY=0.5;entryDx=0;entryDy=0;fontColor=#000000;" edge="1" parent="1" source="0pQdOWbOOhDd7QV4ZvYL-56" target="DE5koMyMQwbKPmNg74Yx-169">
          <mxGeometry relative="1" as="geometry" />
        </mxCell>
        <mxCell id="I11cwIQykDUJyyKI9_pE-14" value="融合" style="text;html=1;strokeColor=none;fillColor=none;align=center;verticalAlign=middle;whiteSpace=wrap;rounded=0;fontColor=#000000;" vertex="1" parent="1">
          <mxGeometry x="70" y="-1060" width="60" height="30" as="geometry" />
        </mxCell>
        <mxCell id="I11cwIQykDUJyyKI9_pE-17" value="泊车感知" style="text;html=1;strokeColor=none;fillColor=none;align=center;verticalAlign=middle;whiteSpace=wrap;rounded=0;fontColor=#000000;" vertex="1" parent="1">
          <mxGeometry x="-1215" y="-185" width="60" height="30" as="geometry" />
        </mxCell>
        <mxCell id="I11cwIQykDUJyyKI9_pE-19" value="感知" style="text;html=1;strokeColor=none;fillColor=none;align=center;verticalAlign=middle;whiteSpace=wrap;rounded=0;fontColor=#000000;" vertex="1" parent="1">
          <mxGeometry x="-1237" y="-1060" width="60" height="30" as="geometry" />
        </mxCell>
        <mxCell id="I11cwIQykDUJyyKI9_pE-22" value="感知融合算法设计" style="text;strokeColor=none;align=center;fillColor=none;html=1;verticalAlign=middle;whiteSpace=wrap;rounded=0;fontColor=#000000;" vertex="1" parent="1">
          <mxGeometry x="-67.5" y="-1120" width="110" height="30" as="geometry" />
        </mxCell>
        <mxCell id="9XWCOJLS9-OtnLwXKcL9-1" value="" style="group;strokeWidth=3;perimeterSpacing=1;strokeColor=default;container=0;" vertex="1" connectable="0" parent="1">
          <mxGeometry x="-1510" y="-2100" width="1160" height="870" as="geometry" />
        </mxCell>
        <mxCell id="9XWCOJLS9-OtnLwXKcL9-3" value="" style="rounded=0;whiteSpace=wrap;html=1;labelBackgroundColor=#ffffff;fontSize=12;" vertex="1" parent="1">
          <mxGeometry x="-1490" y="-2050" width="380" height="770" as="geometry" />
        </mxCell>
        <mxCell id="9XWCOJLS9-OtnLwXKcL9-4" value="配置层" style="text;html=1;strokeColor=none;fillColor=none;align=center;verticalAlign=middle;whiteSpace=wrap;rounded=0;fontSize=16;" vertex="1" parent="1">
          <mxGeometry x="-1385" y="-2050" width="150" height="30" as="geometry" />
        </mxCell>
        <mxCell id="9XWCOJLS9-OtnLwXKcL9-20" value="" style="group" vertex="1" connectable="0" parent="1">
          <mxGeometry x="-1100" y="-1650" width="730" height="90" as="geometry" />
        </mxCell>
        <mxCell id="9XWCOJLS9-OtnLwXKcL9-21" value="" style="rounded=0;whiteSpace=wrap;html=1;labelBackgroundColor=#ffffff;fontSize=12;" vertex="1" parent="9XWCOJLS9-OtnLwXKcL9-20">
          <mxGeometry width="730" height="90" as="geometry" />
        </mxCell>
        <mxCell id="9XWCOJLS9-OtnLwXKcL9-22" value="数据流控制中心" style="text;html=1;strokeColor=none;fillColor=none;align=center;verticalAlign=middle;whiteSpace=wrap;rounded=0;labelBackgroundColor=#ffffff;fontSize=16;" vertex="1" parent="9XWCOJLS9-OtnLwXKcL9-20">
          <mxGeometry x="310" width="115" height="30" as="geometry" />
        </mxCell>
        <mxCell id="9XWCOJLS9-OtnLwXKcL9-23" value="共享数据管理" style="rounded=0;whiteSpace=wrap;html=1;labelBackgroundColor=none;fontSize=12;fillColor=#008a00;fontColor=#000000;strokeColor=#005700;fontStyle=1" vertex="1" parent="9XWCOJLS9-OtnLwXKcL9-20">
          <mxGeometry x="7.5" y="35" width="120" height="50" as="geometry" />
        </mxCell>
        <mxCell id="9XWCOJLS9-OtnLwXKcL9-24" value="节点连接管理(时间)" style="rounded=0;whiteSpace=wrap;html=1;labelBackgroundColor=none;fontSize=12;fillColor=#008a00;fontColor=#000000;strokeColor=#005700;fontStyle=1" vertex="1" parent="9XWCOJLS9-OtnLwXKcL9-20">
          <mxGeometry x="150" y="35" width="120" height="50" as="geometry" />
        </mxCell>
        <mxCell id="9XWCOJLS9-OtnLwXKcL9-25" value="节点连接管理(事件)" style="rounded=0;whiteSpace=wrap;html=1;labelBackgroundColor=none;fontSize=12;fillColor=#008a00;fontColor=#000000;strokeColor=#005700;fontStyle=1" vertex="1" parent="9XWCOJLS9-OtnLwXKcL9-20">
          <mxGeometry x="290" y="35" width="120" height="50" as="geometry" />
        </mxCell>
        <mxCell id="9XWCOJLS9-OtnLwXKcL9-26" value="节点数据流监控器" style="rounded=0;whiteSpace=wrap;html=1;labelBackgroundColor=none;fontSize=12;fillColor=#008a00;fontColor=#000000;strokeColor=#005700;fontStyle=1" vertex="1" parent="9XWCOJLS9-OtnLwXKcL9-20">
          <mxGeometry x="440" y="35" width="120" height="50" as="geometry" />
        </mxCell>
        <mxCell id="9XWCOJLS9-OtnLwXKcL9-27" value="输入输出" style="rounded=0;whiteSpace=wrap;html=1;labelBackgroundColor=none;fontSize=12;fillColor=#008a00;fontColor=#000000;strokeColor=#005700;fontStyle=1" vertex="1" parent="9XWCOJLS9-OtnLwXKcL9-20">
          <mxGeometry x="590" y="35" width="120" height="50" as="geometry" />
        </mxCell>
        <mxCell id="9XWCOJLS9-OtnLwXKcL9-60" value="" style="rounded=0;whiteSpace=wrap;html=1;labelBackgroundColor=#ffffff;fontSize=12;fillColor=#f9f7ed;strokeColor=#36393d;" vertex="1" parent="1">
          <mxGeometry x="-1470" y="-2000" width="340" height="170" as="geometry" />
        </mxCell>
        <mxCell id="9XWCOJLS9-OtnLwXKcL9-61" value="节点名称" style="rounded=0;whiteSpace=wrap;html=1;labelBackgroundColor=none;fontSize=12;fillColor=#008a00;fontColor=default;strokeColor=#005700;fontStyle=1" vertex="1" parent="1">
          <mxGeometry x="-1466" y="-1970" width="102" height="50" as="geometry" />
        </mxCell>
        <mxCell id="9XWCOJLS9-OtnLwXKcL9-62" value="数据流配置" style="text;html=1;strokeColor=none;fillColor=none;align=center;verticalAlign=middle;whiteSpace=wrap;rounded=0;labelBackgroundColor=#ffffff;fontSize=12;" vertex="1" parent="1">
          <mxGeometry x="-1345" y="-2000" width="80" height="30" as="geometry" />
        </mxCell>
        <mxCell id="9XWCOJLS9-OtnLwXKcL9-63" value="节点设备ID" style="rounded=0;whiteSpace=wrap;html=1;labelBackgroundColor=none;fontSize=12;fillColor=#008a00;fontColor=default;strokeColor=#005700;fontStyle=1" vertex="1" parent="1">
          <mxGeometry x="-1464" y="-1890" width="102" height="50" as="geometry" />
        </mxCell>
        <mxCell id="9XWCOJLS9-OtnLwXKcL9-64" value="节点输入输出模式" style="rounded=0;whiteSpace=wrap;html=1;labelBackgroundColor=none;fontSize=12;fillColor=#008a00;fontColor=default;strokeColor=#005700;fontStyle=1" vertex="1" parent="1">
          <mxGeometry x="-1238" y="-1890" width="102" height="50" as="geometry" />
        </mxCell>
        <mxCell id="9XWCOJLS9-OtnLwXKcL9-65" value="节点连接配置" style="rounded=0;whiteSpace=wrap;html=1;labelBackgroundColor=none;fontSize=12;fillColor=#008a00;fontColor=default;strokeColor=#005700;fontStyle=1" vertex="1" parent="1">
          <mxGeometry x="-1353" y="-1970" width="102" height="50" as="geometry" />
        </mxCell>
        <mxCell id="9XWCOJLS9-OtnLwXKcL9-66" value="共享数据类型" style="rounded=0;whiteSpace=wrap;html=1;labelBackgroundColor=none;fontSize=12;fillColor=#008a00;fontColor=default;strokeColor=#005700;fontStyle=1" vertex="1" parent="1">
          <mxGeometry x="-1351" y="-1890" width="102" height="50" as="geometry" />
        </mxCell>
        <mxCell id="9XWCOJLS9-OtnLwXKcL9-54" value="" style="rounded=0;whiteSpace=wrap;html=1;labelBackgroundColor=#ffffff;fontSize=12;fillColor=#f9f7ed;strokeColor=#36393d;" vertex="1" parent="1">
          <mxGeometry x="-1466" y="-1610" width="340" height="310" as="geometry" />
        </mxCell>
        <mxCell id="9XWCOJLS9-OtnLwXKcL9-55" value="算法标定参数配置" style="text;html=1;strokeColor=none;fillColor=none;align=center;verticalAlign=middle;whiteSpace=wrap;rounded=0;labelBackgroundColor=#ffffff;fontSize=12;" vertex="1" parent="1">
          <mxGeometry x="-1361" y="-1610" width="130" height="30" as="geometry" />
        </mxCell>
        <mxCell id="9XWCOJLS9-OtnLwXKcL9-56" value="融合算法配置" style="rounded=0;whiteSpace=wrap;html=1;labelBackgroundColor=none;fontSize=12;fillColor=#008a00;fontColor=default;strokeColor=#005700;fontStyle=1" vertex="1" parent="1">
          <mxGeometry x="-1456" y="-1580" width="140" height="50" as="geometry" />
        </mxCell>
        <mxCell id="9XWCOJLS9-OtnLwXKcL9-57" value="雷达后处理算法配置" style="rounded=0;whiteSpace=wrap;html=1;labelBackgroundColor=none;fontSize=12;fillColor=#008a00;fontColor=default;strokeColor=#005700;fontStyle=1" vertex="1" parent="1">
          <mxGeometry x="-1274" y="-1580" width="130" height="50" as="geometry" />
        </mxCell>
        <mxCell id="9XWCOJLS9-OtnLwXKcL9-58" value="车道线处理" style="rounded=0;whiteSpace=wrap;html=1;labelBackgroundColor=none;fontSize=12;fillColor=#008a00;fontColor=default;strokeColor=#005700;fontStyle=1" vertex="1" parent="1">
          <mxGeometry x="-1274" y="-1510" width="130" height="50" as="geometry" />
        </mxCell>
        <mxCell id="9XWCOJLS9-OtnLwXKcL9-59" value="视觉障碍物后处理" style="rounded=0;whiteSpace=wrap;html=1;labelBackgroundColor=none;fontSize=12;fillColor=#008a00;fontColor=default;strokeColor=#005700;fontStyle=1" vertex="1" parent="1">
          <mxGeometry x="-1456" y="-1510" width="140" height="50" as="geometry" />
        </mxCell>
        <mxCell id="9XWCOJLS9-OtnLwXKcL9-67" value="交通灯处理" style="rounded=0;whiteSpace=wrap;html=1;labelBackgroundColor=none;fontSize=12;fillColor=#008a00;fontColor=default;strokeColor=#005700;fontStyle=1" vertex="1" parent="1">
          <mxGeometry x="-1456" y="-1440" width="140" height="50" as="geometry" />
        </mxCell>
        <mxCell id="9XWCOJLS9-OtnLwXKcL9-68" value="路面标识处理" style="rounded=0;whiteSpace=wrap;html=1;labelBackgroundColor=none;fontSize=12;fillColor=#008a00;fontColor=default;strokeColor=#005700;fontStyle=1" vertex="1" parent="1">
          <mxGeometry x="-1276" y="-1440" width="140" height="50" as="geometry" />
        </mxCell>
        <mxCell id="9XWCOJLS9-OtnLwXKcL9-69" value="可行驶区域处理" style="rounded=0;whiteSpace=wrap;html=1;labelBackgroundColor=none;fontSize=12;fillColor=#008a00;fontColor=default;strokeColor=#005700;fontStyle=1" vertex="1" parent="1">
          <mxGeometry x="-1456" y="-1370" width="140" height="50" as="geometry" />
        </mxCell>
        <mxCell id="9XWCOJLS9-OtnLwXKcL9-6" value="" style="rounded=0;whiteSpace=wrap;html=1;labelBackgroundColor=#ffffff;fontSize=12;" vertex="1" parent="1">
          <mxGeometry x="-1100" y="-1440" width="730" height="159.5" as="geometry" />
        </mxCell>
        <mxCell id="9XWCOJLS9-OtnLwXKcL9-7" value="输入层" style="text;html=1;strokeColor=none;fillColor=none;align=center;verticalAlign=middle;whiteSpace=wrap;rounded=0;labelBackgroundColor=#ffffff;fontSize=16;" vertex="1" parent="1">
          <mxGeometry x="-765" y="-1440" width="60" height="30" as="geometry" />
        </mxCell>
        <mxCell id="9XWCOJLS9-OtnLwXKcL9-8" value="&lt;font style=&quot;font-size: 12px;&quot;&gt;底盘信息&lt;/font&gt;" style="rounded=0;whiteSpace=wrap;html=1;labelBackgroundColor=none;fontSize=12;fillColor=#008a00;fontColor=#000000;strokeColor=#005700;fontStyle=1" vertex="1" parent="1">
          <mxGeometry x="-1075" y="-1350.5" width="85" height="50" as="geometry" />
        </mxCell>
        <mxCell id="9XWCOJLS9-OtnLwXKcL9-9" value="前雷达目标" style="rounded=0;whiteSpace=wrap;html=1;labelBackgroundColor=none;fontSize=12;fillColor=#008a00;fontColor=#000000;strokeColor=#005700;fontStyle=1" vertex="1" parent="1">
          <mxGeometry x="-908.5" y="-1350.5" width="85" height="50" as="geometry" />
        </mxCell>
        <mxCell id="9XWCOJLS9-OtnLwXKcL9-10" value="前视觉目标" style="rounded=0;whiteSpace=wrap;html=1;labelBackgroundColor=none;fontSize=12;fillColor=#008a00;fontColor=default;strokeColor=#005700;fontStyle=1" vertex="1" parent="1">
          <mxGeometry x="-764" y="-1350.5" width="85" height="50" as="geometry" />
        </mxCell>
        <mxCell id="9XWCOJLS9-OtnLwXKcL9-11" value="定位信息" style="rounded=0;whiteSpace=wrap;html=1;labelBackgroundColor=none;fontSize=12;fillColor=#008a00;fontColor=default;strokeColor=#005700;fontStyle=1" vertex="1" parent="1">
          <mxGeometry x="-611" y="-1350" width="85" height="50" as="geometry" />
        </mxCell>
        <mxCell id="9XWCOJLS9-OtnLwXKcL9-12" value="地图" style="rounded=0;whiteSpace=wrap;html=1;labelBackgroundColor=none;fontSize=12;fillColor=#008a00;fontColor=default;strokeColor=#005700;fontStyle=1" vertex="1" parent="1">
          <mxGeometry x="-765" y="-1410" width="85" height="50" as="geometry" />
        </mxCell>
        <mxCell id="9XWCOJLS9-OtnLwXKcL9-13" value="功能开关" style="rounded=0;whiteSpace=wrap;html=1;labelBackgroundColor=none;fontSize=12;fillColor=#008a00;fontColor=default;strokeColor=#005700;fontStyle=1" vertex="1" parent="1">
          <mxGeometry x="-611" y="-1410" width="85" height="50" as="geometry" />
        </mxCell>
        <mxCell id="9XWCOJLS9-OtnLwXKcL9-14" value="系统状态" style="rounded=0;whiteSpace=wrap;html=1;labelBackgroundColor=none;fontSize=12;fillColor=#008a00;fontColor=default;strokeColor=#005700;fontStyle=1" vertex="1" parent="1">
          <mxGeometry x="-480" y="-1350.5" width="85" height="50" as="geometry" />
        </mxCell>
        <mxCell id="9XWCOJLS9-OtnLwXKcL9-70" value="环视障碍物" style="rounded=0;whiteSpace=wrap;html=1;labelBackgroundColor=none;fontSize=12;fillColor=#008a00;fontColor=default;strokeColor=#005700;fontStyle=1" vertex="1" parent="1">
          <mxGeometry x="-1075" y="-1410" width="85" height="50" as="geometry" />
        </mxCell>
        <mxCell id="9XWCOJLS9-OtnLwXKcL9-71" value="周视目标" style="rounded=0;whiteSpace=wrap;html=1;labelBackgroundColor=none;fontSize=12;fillColor=#008a00;fontColor=default;strokeColor=#005700;fontStyle=1" vertex="1" parent="1">
          <mxGeometry x="-908.5" y="-1410" width="85" height="50" as="geometry" />
        </mxCell>
        <mxCell id="9XWCOJLS9-OtnLwXKcL9-45" value="" style="rounded=0;whiteSpace=wrap;html=1;labelBackgroundColor=#ffffff;fontSize=12;fillColor=#f9f7ed;strokeColor=#36393d;movable=1;resizable=1;rotatable=1;deletable=1;editable=1;connectable=1;" vertex="1" parent="1">
          <mxGeometry x="-1470" y="-1800" width="340" height="150" as="geometry" />
        </mxCell>
        <mxCell id="9XWCOJLS9-OtnLwXKcL9-46" value="传感器标定参数配置" style="text;html=1;strokeColor=none;fillColor=none;align=center;verticalAlign=middle;whiteSpace=wrap;rounded=0;labelBackgroundColor=#ffffff;fontSize=12;movable=1;resizable=1;rotatable=1;deletable=1;editable=1;connectable=1;" vertex="1" parent="1">
          <mxGeometry x="-1362.5" y="-1805" width="115" height="30" as="geometry" />
        </mxCell>
        <mxCell id="9XWCOJLS9-OtnLwXKcL9-47" value="前视觉内外参" style="rounded=0;whiteSpace=wrap;html=1;labelBackgroundColor=none;fontSize=12;fillColor=#008a00;fontColor=default;strokeColor=#005700;fontStyle=1;movable=1;resizable=1;rotatable=1;deletable=1;editable=1;connectable=1;" vertex="1" parent="1">
          <mxGeometry x="-1452.5" y="-1775" width="90" height="50" as="geometry" />
        </mxCell>
        <mxCell id="9XWCOJLS9-OtnLwXKcL9-48" value="前雷达外参" style="rounded=0;whiteSpace=wrap;html=1;labelBackgroundColor=none;fontSize=12;fillColor=#008a00;fontColor=default;strokeColor=#005700;fontStyle=1;movable=1;resizable=1;rotatable=1;deletable=1;editable=1;connectable=1;" vertex="1" parent="1">
          <mxGeometry x="-1452.5" y="-1710" width="90" height="50" as="geometry" />
        </mxCell>
        <mxCell id="9XWCOJLS9-OtnLwXKcL9-50" value="角雷达外参" style="rounded=0;whiteSpace=wrap;html=1;labelBackgroundColor=none;fontSize=12;fillColor=#008a00;fontColor=default;strokeColor=#005700;fontStyle=1;movable=1;resizable=1;rotatable=1;deletable=1;editable=1;connectable=1;" vertex="1" parent="1">
          <mxGeometry x="-1290" y="-1710" width="90" height="50" as="geometry" />
        </mxCell>
        <mxCell id="9XWCOJLS9-OtnLwXKcL9-51" value="周视内外参" style="rounded=0;whiteSpace=wrap;html=1;labelBackgroundColor=none;fontSize=12;fillColor=#008a00;fontColor=default;strokeColor=#005700;fontStyle=1;movable=1;resizable=1;rotatable=1;deletable=1;editable=1;connectable=1;" vertex="1" parent="1">
          <mxGeometry x="-1290" y="-1775" width="90" height="50" as="geometry" />
        </mxCell>
        <mxCell id="9XWCOJLS9-OtnLwXKcL9-79" value="" style="group" vertex="1" connectable="0" parent="1">
          <mxGeometry x="-1100" y="-1540" width="730" height="90" as="geometry" />
        </mxCell>
        <mxCell id="9XWCOJLS9-OtnLwXKcL9-16" value="" style="rounded=0;whiteSpace=wrap;html=1;labelBackgroundColor=#ffffff;fontSize=16;" vertex="1" parent="9XWCOJLS9-OtnLwXKcL9-79">
          <mxGeometry width="730" height="90" as="geometry" />
        </mxCell>
        <mxCell id="9XWCOJLS9-OtnLwXKcL9-17" value="适配层" style="text;html=1;strokeColor=none;fillColor=none;align=center;verticalAlign=middle;whiteSpace=wrap;rounded=0;labelBackgroundColor=#ffffff;fontSize=16;" vertex="1" parent="9XWCOJLS9-OtnLwXKcL9-79">
          <mxGeometry x="325" width="60" height="30" as="geometry" />
        </mxCell>
        <mxCell id="9XWCOJLS9-OtnLwXKcL9-18" value="中间件适配" style="rounded=0;whiteSpace=wrap;html=1;labelBackgroundColor=none;fontSize=12;fillColor=#008a00;fontColor=default;strokeColor=#005700;fontStyle=1" vertex="1" parent="9XWCOJLS9-OtnLwXKcL9-79">
          <mxGeometry x="54" y="30" width="120" height="50" as="geometry" />
        </mxCell>
        <mxCell id="9XWCOJLS9-OtnLwXKcL9-19" value="传感器抽象" style="rounded=0;whiteSpace=wrap;html=1;labelBackgroundColor=none;fontSize=12;fillColor=#008a00;fontColor=default;strokeColor=#005700;fontStyle=1" vertex="1" parent="9XWCOJLS9-OtnLwXKcL9-79">
          <mxGeometry x="276.5" y="30" width="120" height="50" as="geometry" />
        </mxCell>
        <mxCell id="9XWCOJLS9-OtnLwXKcL9-78" value="算法功能开关" style="rounded=0;whiteSpace=wrap;html=1;labelBackgroundColor=none;fontSize=12;fillColor=#008a00;fontColor=default;strokeColor=#005700;fontStyle=1" vertex="1" parent="9XWCOJLS9-OtnLwXKcL9-79">
          <mxGeometry x="489" y="30" width="120" height="50" as="geometry" />
        </mxCell>
        <mxCell id="9XWCOJLS9-OtnLwXKcL9-123" value="" style="group" vertex="1" connectable="0" parent="1">
          <mxGeometry x="-1100" y="-1810" width="730" height="150" as="geometry" />
        </mxCell>
        <mxCell id="9XWCOJLS9-OtnLwXKcL9-36" value="" style="rounded=0;whiteSpace=wrap;html=1;labelBackgroundColor=#ffffff;fontSize=12;" vertex="1" parent="9XWCOJLS9-OtnLwXKcL9-123">
          <mxGeometry width="730" height="150" as="geometry" />
        </mxCell>
        <mxCell id="9XWCOJLS9-OtnLwXKcL9-107" value="滤波算法" style="rounded=0;whiteSpace=wrap;html=1;labelBackgroundColor=none;fontSize=12;fillColor=#008a00;fontColor=#000000;strokeColor=#005700;fontStyle=1" vertex="1" parent="9XWCOJLS9-OtnLwXKcL9-123">
          <mxGeometry x="10" y="30" width="100" height="50" as="geometry" />
        </mxCell>
        <mxCell id="9XWCOJLS9-OtnLwXKcL9-108" value="相似度计算" style="rounded=0;whiteSpace=wrap;html=1;labelBackgroundColor=none;fontSize=12;fillColor=#008a00;fontColor=#000000;strokeColor=#005700;fontStyle=1" vertex="1" parent="9XWCOJLS9-OtnLwXKcL9-123">
          <mxGeometry x="610" y="90" width="100" height="50" as="geometry" />
        </mxCell>
        <mxCell id="9XWCOJLS9-OtnLwXKcL9-109" value="数据关联" style="rounded=0;whiteSpace=wrap;html=1;labelBackgroundColor=none;fontSize=12;fillColor=#008a00;fontColor=#000000;strokeColor=#005700;fontStyle=1" vertex="1" parent="9XWCOJLS9-OtnLwXKcL9-123">
          <mxGeometry x="120" y="30" width="100" height="50" as="geometry" />
        </mxCell>
        <mxCell id="9XWCOJLS9-OtnLwXKcL9-110" value="目标管理" style="rounded=0;whiteSpace=wrap;html=1;labelBackgroundColor=none;fontSize=12;fillColor=#008a00;fontColor=#000000;strokeColor=#005700;fontStyle=1" vertex="1" parent="9XWCOJLS9-OtnLwXKcL9-123">
          <mxGeometry x="480" y="30" width="100" height="50" as="geometry" />
        </mxCell>
        <mxCell id="9XWCOJLS9-OtnLwXKcL9-111" value="几何变换" style="rounded=0;whiteSpace=wrap;html=1;labelBackgroundColor=none;fontSize=12;fillColor=#008a00;fontColor=#000000;strokeColor=#005700;fontStyle=1" vertex="1" parent="9XWCOJLS9-OtnLwXKcL9-123">
          <mxGeometry x="10" y="90" width="100" height="50" as="geometry" />
        </mxCell>
        <mxCell id="9XWCOJLS9-OtnLwXKcL9-112" value="算法层" style="text;html=1;strokeColor=none;fillColor=none;align=center;verticalAlign=middle;whiteSpace=wrap;rounded=0;labelBackgroundColor=#ffffff;fontSize=16;" vertex="1" parent="9XWCOJLS9-OtnLwXKcL9-123">
          <mxGeometry x="335" width="60" height="30" as="geometry" />
        </mxCell>
        <mxCell id="9XWCOJLS9-OtnLwXKcL9-113" value="多目标跟踪预测" style="rounded=0;whiteSpace=wrap;html=1;labelBackgroundColor=none;fontSize=12;fillColor=#008a00;fontColor=#000000;strokeColor=#005700;fontStyle=1" vertex="1" parent="9XWCOJLS9-OtnLwXKcL9-123">
          <mxGeometry x="360" y="30" width="100" height="50" as="geometry" />
        </mxCell>
        <mxCell id="9XWCOJLS9-OtnLwXKcL9-114" value="运动模型" style="rounded=0;whiteSpace=wrap;html=1;labelBackgroundColor=none;fontSize=12;fillColor=#008a00;fontColor=#000000;strokeColor=#005700;fontStyle=1" vertex="1" parent="9XWCOJLS9-OtnLwXKcL9-123">
          <mxGeometry x="120" y="90" width="100" height="50" as="geometry" />
        </mxCell>
        <mxCell id="9XWCOJLS9-OtnLwXKcL9-115" value="条件概率与贝叶斯" style="rounded=0;whiteSpace=wrap;html=1;labelBackgroundColor=none;fontSize=12;fillColor=#008a00;fontColor=#000000;strokeColor=#005700;fontStyle=1" vertex="1" parent="9XWCOJLS9-OtnLwXKcL9-123">
          <mxGeometry x="240" y="90" width="100" height="50" as="geometry" />
        </mxCell>
        <mxCell id="9XWCOJLS9-OtnLwXKcL9-116" value="多假设条件" style="rounded=0;whiteSpace=wrap;html=1;labelBackgroundColor=none;fontSize=12;fillColor=#008a00;fontColor=#000000;strokeColor=#005700;fontStyle=1" vertex="1" parent="9XWCOJLS9-OtnLwXKcL9-123">
          <mxGeometry x="360" y="90" width="100" height="50" as="geometry" />
        </mxCell>
        <mxCell id="9XWCOJLS9-OtnLwXKcL9-117" value="时空同步" style="rounded=0;whiteSpace=wrap;html=1;labelBackgroundColor=none;fontSize=12;fillColor=#008a00;fontColor=#000000;strokeColor=#005700;fontStyle=1" vertex="1" parent="9XWCOJLS9-OtnLwXKcL9-123">
          <mxGeometry x="480" y="90" width="100" height="50" as="geometry" />
        </mxCell>
        <mxCell id="9XWCOJLS9-OtnLwXKcL9-118" value="运动补偿" style="rounded=0;whiteSpace=wrap;html=1;labelBackgroundColor=none;fontSize=12;fillColor=#008a00;fontColor=#000000;strokeColor=#005700;fontStyle=1" vertex="1" parent="9XWCOJLS9-OtnLwXKcL9-123">
          <mxGeometry x="610" y="30" width="100" height="50" as="geometry" />
        </mxCell>
        <mxCell id="9XWCOJLS9-OtnLwXKcL9-119" value="航迹融合" style="rounded=0;whiteSpace=wrap;html=1;labelBackgroundColor=none;fontSize=12;fillColor=#008a00;fontColor=#000000;strokeColor=#005700;fontStyle=1" vertex="1" parent="9XWCOJLS9-OtnLwXKcL9-123">
          <mxGeometry x="240" y="30" width="100" height="50" as="geometry" />
        </mxCell>
        <mxCell id="9XWCOJLS9-OtnLwXKcL9-29" value="" style="rounded=0;whiteSpace=wrap;html=1;labelBackgroundColor=#ffffff;fontSize=16;" vertex="1" parent="1">
          <mxGeometry x="-1100" y="-2050" width="730" height="220" as="geometry" />
        </mxCell>
        <mxCell id="9XWCOJLS9-OtnLwXKcL9-30" value="节点层" style="text;html=1;strokeColor=none;fillColor=none;align=center;verticalAlign=middle;whiteSpace=wrap;rounded=0;labelBackgroundColor=#ffffff;fontSize=16;" vertex="1" parent="1">
          <mxGeometry x="-786.25" y="-2050" width="102.5" height="30" as="geometry" />
        </mxCell>
        <mxCell id="9XWCOJLS9-OtnLwXKcL9-31" value="视觉&amp;amp;地图融合" style="rounded=0;whiteSpace=wrap;html=1;labelBackgroundColor=none;fontSize=12;fillColor=#008a00;fontColor=#000000;strokeColor=#005700;fontStyle=1" vertex="1" parent="1">
          <mxGeometry x="-805" y="-1890" width="120" height="50" as="geometry" />
        </mxCell>
        <mxCell id="9XWCOJLS9-OtnLwXKcL9-32" value="前视&amp;amp;周视融合" style="rounded=0;whiteSpace=wrap;html=1;labelBackgroundColor=none;fontSize=12;fillColor=#008a00;fontColor=#000000;strokeColor=#005700;fontStyle=1" vertex="1" parent="1">
          <mxGeometry x="-955" y="-1890" width="120" height="50" as="geometry" />
        </mxCell>
        <mxCell id="9XWCOJLS9-OtnLwXKcL9-33" value="前雷达后处理" style="rounded=0;whiteSpace=wrap;html=1;labelBackgroundColor=none;fontSize=12;fillColor=#008a00;fontColor=#000000;strokeColor=#005700;fontStyle=1" vertex="1" parent="1">
          <mxGeometry x="-1091.5" y="-2020" width="120" height="50" as="geometry" />
        </mxCell>
        <mxCell id="9XWCOJLS9-OtnLwXKcL9-34" value="障碍物融合" style="rounded=0;whiteSpace=wrap;html=1;labelBackgroundColor=none;fontSize=12;fillColor=#008a00;fontColor=#000000;strokeColor=#005700;fontStyle=1" vertex="1" parent="1">
          <mxGeometry x="-508.5" y="-1890" width="120" height="50" as="geometry" />
        </mxCell>
        <mxCell id="9XWCOJLS9-OtnLwXKcL9-96" value="角雷达后处理" style="rounded=0;whiteSpace=wrap;html=1;labelBackgroundColor=none;fontSize=12;fillColor=#008a00;fontColor=#000000;strokeColor=#005700;fontStyle=1" vertex="1" parent="1">
          <mxGeometry x="-956.5" y="-2020" width="122.5" height="50" as="geometry" />
        </mxCell>
        <mxCell id="9XWCOJLS9-OtnLwXKcL9-97" value="超声波后处理" style="rounded=0;whiteSpace=wrap;html=1;labelBackgroundColor=none;fontSize=12;fillColor=#008a00;fontColor=#000000;strokeColor=#005700;fontStyle=1" vertex="1" parent="1">
          <mxGeometry x="-800.5" y="-2020" width="120" height="50" as="geometry" />
        </mxCell>
        <mxCell id="9XWCOJLS9-OtnLwXKcL9-98" value="车道线后处理" style="rounded=0;whiteSpace=wrap;html=1;labelBackgroundColor=none;fontSize=12;fillColor=#008a00;fontColor=#000000;strokeColor=#005700;fontStyle=1" vertex="1" parent="1">
          <mxGeometry x="-801.5" y="-1955" width="120" height="50" as="geometry" />
        </mxCell>
        <mxCell id="9XWCOJLS9-OtnLwXKcL9-99" value="视觉障碍物后处理" style="rounded=0;whiteSpace=wrap;html=1;labelBackgroundColor=none;fontSize=12;fillColor=#008a00;fontColor=#000000;strokeColor=#005700;fontStyle=1" vertex="1" parent="1">
          <mxGeometry x="-662.5" y="-1955" width="120" height="50" as="geometry" />
        </mxCell>
        <mxCell id="9XWCOJLS9-OtnLwXKcL9-100" value="视觉交通灯/交通标志/路面标识" style="rounded=0;whiteSpace=wrap;html=1;labelBackgroundColor=none;fontSize=12;fillColor=#008a00;fontColor=#000000;strokeColor=#005700;fontStyle=1" vertex="1" parent="1">
          <mxGeometry x="-510" y="-1955" width="120" height="50" as="geometry" />
        </mxCell>
        <mxCell id="9XWCOJLS9-OtnLwXKcL9-103" value="空间车位检测和处理" style="rounded=0;whiteSpace=wrap;html=1;labelBackgroundColor=none;fontSize=12;fillColor=#008a00;fontColor=#000000;strokeColor=#005700;fontStyle=1" vertex="1" parent="1">
          <mxGeometry x="-1092.5" y="-1955" width="120" height="50" as="geometry" />
        </mxCell>
        <mxCell id="9XWCOJLS9-OtnLwXKcL9-104" value="视觉车位后处理" style="rounded=0;whiteSpace=wrap;html=1;labelBackgroundColor=none;fontSize=12;fillColor=#008a00;fontColor=#000000;strokeColor=#005700;fontStyle=1" vertex="1" parent="1">
          <mxGeometry x="-955" y="-1955" width="120" height="50" as="geometry" />
        </mxCell>
        <mxCell id="9XWCOJLS9-OtnLwXKcL9-105" value="车位融合" style="rounded=0;whiteSpace=wrap;html=1;labelBackgroundColor=none;fontSize=12;fillColor=#008a00;fontColor=#000000;strokeColor=#005700;fontStyle=1" vertex="1" parent="1">
          <mxGeometry x="-1092.5" y="-1890" width="120" height="50" as="geometry" />
        </mxCell>
        <mxCell id="9XWCOJLS9-OtnLwXKcL9-106" value="车道融合" style="rounded=0;whiteSpace=wrap;html=1;labelBackgroundColor=none;fontSize=12;fillColor=#008a00;fontColor=#000000;strokeColor=#005700;fontStyle=1" vertex="1" parent="1">
          <mxGeometry x="-662.5" y="-1890" width="120" height="50" as="geometry" />
        </mxCell>
        <mxCell id="Cj8gx9b3kmQxTPlHaOjH-1" value="" style="rounded=0;whiteSpace=wrap;html=1;fillColor=#dae8fc;strokeColor=#6c8ebf;" vertex="1" parent="1">
          <mxGeometry x="-1530" y="460" width="2370" height="1650" as="geometry" />
        </mxCell>
        <mxCell id="Cj8gx9b3kmQxTPlHaOjH-2" style="edgeStyle=orthogonalEdgeStyle;rounded=0;jumpStyle=arc;orthogonalLoop=1;jettySize=auto;html=1;entryX=0;entryY=0.5;entryDx=0;entryDy=0;" edge="1" source="Cj8gx9b3kmQxTPlHaOjH-110" target="Cj8gx9b3kmQxTPlHaOjH-102" parent="1">
          <mxGeometry relative="1" as="geometry" />
        </mxCell>
        <mxCell id="Cj8gx9b3kmQxTPlHaOjH-3" style="edgeStyle=orthogonalEdgeStyle;rounded=0;jumpStyle=arc;orthogonalLoop=1;jettySize=auto;html=1;entryX=0;entryY=0.5;entryDx=0;entryDy=0;" edge="1" source="Cj8gx9b3kmQxTPlHaOjH-4" target="Cj8gx9b3kmQxTPlHaOjH-127" parent="1">
          <mxGeometry relative="1" as="geometry">
            <mxPoint x="815" y="739" as="targetPoint" />
          </mxGeometry>
        </mxCell>
        <mxCell id="Cj8gx9b3kmQxTPlHaOjH-4" value="" style="rounded=0;whiteSpace=wrap;html=1;" vertex="1" parent="1">
          <mxGeometry x="-1030" y="659" width="570" height="160" as="geometry" />
        </mxCell>
        <mxCell id="Cj8gx9b3kmQxTPlHaOjH-5" style="edgeStyle=orthogonalEdgeStyle;rounded=0;orthogonalLoop=1;jettySize=auto;html=1;jumpStyle=arc;entryX=0;entryY=0.5;entryDx=0;entryDy=0;" edge="1" source="Cj8gx9b3kmQxTPlHaOjH-10" target="Cj8gx9b3kmQxTPlHaOjH-126" parent="1">
          <mxGeometry relative="1" as="geometry">
            <mxPoint x="815" y="1039" as="targetPoint" />
          </mxGeometry>
        </mxCell>
        <mxCell id="Cj8gx9b3kmQxTPlHaOjH-6" style="edgeStyle=orthogonalEdgeStyle;rounded=0;orthogonalLoop=1;jettySize=auto;html=1;entryX=0;entryY=0.5;entryDx=0;entryDy=0;jumpStyle=arc;strokeColor=#FF00FF;" edge="1" source="Cj8gx9b3kmQxTPlHaOjH-10" target="Cj8gx9b3kmQxTPlHaOjH-49" parent="1">
          <mxGeometry relative="1" as="geometry">
            <mxPoint x="810" y="1159" as="targetPoint" />
          </mxGeometry>
        </mxCell>
        <mxCell id="Cj8gx9b3kmQxTPlHaOjH-7" style="edgeStyle=orthogonalEdgeStyle;rounded=0;orthogonalLoop=1;jettySize=auto;html=1;entryX=0;entryY=0.5;entryDx=0;entryDy=0;jumpStyle=arc;" edge="1" source="Cj8gx9b3kmQxTPlHaOjH-10" target="Cj8gx9b3kmQxTPlHaOjH-50" parent="1">
          <mxGeometry relative="1" as="geometry" />
        </mxCell>
        <mxCell id="Cj8gx9b3kmQxTPlHaOjH-8" style="edgeStyle=orthogonalEdgeStyle;rounded=0;jumpStyle=arc;orthogonalLoop=1;jettySize=auto;html=1;entryX=0;entryY=0.25;entryDx=0;entryDy=0;strokeColor=#FF00FF;" edge="1" source="Cj8gx9b3kmQxTPlHaOjH-10" target="Cj8gx9b3kmQxTPlHaOjH-15" parent="1">
          <mxGeometry relative="1" as="geometry">
            <Array as="points">
              <mxPoint x="260" y="1129" />
              <mxPoint x="260" y="1614" />
            </Array>
          </mxGeometry>
        </mxCell>
        <mxCell id="Cj8gx9b3kmQxTPlHaOjH-9" value="车道线输出" style="edgeLabel;html=1;align=center;verticalAlign=middle;resizable=0;points=[];" vertex="1" connectable="0" parent="Cj8gx9b3kmQxTPlHaOjH-8">
          <mxGeometry x="0.2835" y="3" relative="1" as="geometry">
            <mxPoint as="offset" />
          </mxGeometry>
        </mxCell>
        <mxCell id="Cj8gx9b3kmQxTPlHaOjH-10" value="" style="rounded=0;whiteSpace=wrap;html=1;" vertex="1" parent="1">
          <mxGeometry x="-1030" y="839" width="1220" height="580" as="geometry" />
        </mxCell>
        <mxCell id="Cj8gx9b3kmQxTPlHaOjH-11" value="" style="rounded=0;whiteSpace=wrap;html=1;" vertex="1" parent="1">
          <mxGeometry x="-455" y="929" width="400" height="430" as="geometry" />
        </mxCell>
        <mxCell id="Cj8gx9b3kmQxTPlHaOjH-12" value="" style="rounded=0;whiteSpace=wrap;html=1;fontColor=#000000;" vertex="1" parent="1">
          <mxGeometry x="-430" y="1219" width="350" height="110" as="geometry" />
        </mxCell>
        <mxCell id="Cj8gx9b3kmQxTPlHaOjH-13" value="" style="rounded=0;whiteSpace=wrap;html=1;fontColor=#000000;" vertex="1" parent="1">
          <mxGeometry x="-430" y="1099" width="350" height="110" as="geometry" />
        </mxCell>
        <mxCell id="Cj8gx9b3kmQxTPlHaOjH-14" style="edgeStyle=orthogonalEdgeStyle;rounded=0;orthogonalLoop=1;jettySize=auto;html=1;entryX=0;entryY=0.5;entryDx=0;entryDy=0;fontColor=#000000;jumpStyle=arc;" edge="1" source="Cj8gx9b3kmQxTPlHaOjH-15" target="Cj8gx9b3kmQxTPlHaOjH-55" parent="1">
          <mxGeometry relative="1" as="geometry" />
        </mxCell>
        <mxCell id="Cj8gx9b3kmQxTPlHaOjH-15" value="" style="rounded=0;whiteSpace=wrap;html=1;fontColor=#000000;" vertex="1" parent="1">
          <mxGeometry x="330" y="1489" width="190" height="500" as="geometry" />
        </mxCell>
        <mxCell id="Cj8gx9b3kmQxTPlHaOjH-16" style="edgeStyle=orthogonalEdgeStyle;rounded=0;orthogonalLoop=1;jettySize=auto;html=1;entryX=0;entryY=0.5;entryDx=0;entryDy=0;fontColor=#000000;jumpStyle=arc;" edge="1" source="Cj8gx9b3kmQxTPlHaOjH-18" target="Cj8gx9b3kmQxTPlHaOjH-15" parent="1">
          <mxGeometry relative="1" as="geometry" />
        </mxCell>
        <mxCell id="Cj8gx9b3kmQxTPlHaOjH-17" value="1V1R目标融合后目标" style="edgeLabel;html=1;align=center;verticalAlign=middle;resizable=0;points=[];" vertex="1" connectable="0" parent="Cj8gx9b3kmQxTPlHaOjH-16">
          <mxGeometry x="0.153" y="-1" relative="1" as="geometry">
            <mxPoint as="offset" />
          </mxGeometry>
        </mxCell>
        <mxCell id="Cj8gx9b3kmQxTPlHaOjH-18" value="" style="rounded=0;whiteSpace=wrap;html=1;fontColor=#000000;" vertex="1" parent="1">
          <mxGeometry x="-1040" y="1489" width="1140" height="500" as="geometry" />
        </mxCell>
        <mxCell id="Cj8gx9b3kmQxTPlHaOjH-19" style="edgeStyle=orthogonalEdgeStyle;rounded=0;orthogonalLoop=1;jettySize=auto;html=1;entryX=0;entryY=0.5;entryDx=0;entryDy=0;fontColor=#000000;" edge="1" source="Cj8gx9b3kmQxTPlHaOjH-20" target="Cj8gx9b3kmQxTPlHaOjH-32" parent="1">
          <mxGeometry relative="1" as="geometry" />
        </mxCell>
        <mxCell id="Cj8gx9b3kmQxTPlHaOjH-20" value="" style="rounded=0;whiteSpace=wrap;html=1;fontColor=#000000;" vertex="1" parent="1">
          <mxGeometry x="-980" y="1559" width="400" height="410" as="geometry" />
        </mxCell>
        <mxCell id="Cj8gx9b3kmQxTPlHaOjH-21" value="" style="rounded=0;whiteSpace=wrap;html=1;fontColor=#000000;" vertex="1" parent="1">
          <mxGeometry x="-350" y="1559" width="380" height="410" as="geometry" />
        </mxCell>
        <mxCell id="Cj8gx9b3kmQxTPlHaOjH-22" value="" style="rounded=0;whiteSpace=wrap;html=1;fontColor=#000000;" vertex="1" parent="1">
          <mxGeometry x="-160" y="1599" width="160" height="350" as="geometry" />
        </mxCell>
        <mxCell id="Cj8gx9b3kmQxTPlHaOjH-23" value="" style="rounded=0;whiteSpace=wrap;html=1;fontColor=#000000;" vertex="1" parent="1">
          <mxGeometry x="-340" y="1599" width="160" height="350" as="geometry" />
        </mxCell>
        <mxCell id="Cj8gx9b3kmQxTPlHaOjH-24" style="edgeStyle=orthogonalEdgeStyle;rounded=0;jumpStyle=arc;orthogonalLoop=1;jettySize=auto;html=1;exitX=1;exitY=0.5;exitDx=0;exitDy=0;strokeColor=#00FF80;" edge="1" source="Cj8gx9b3kmQxTPlHaOjH-30" parent="1">
          <mxGeometry relative="1" as="geometry">
            <mxPoint x="-1030" y="679" as="targetPoint" />
            <Array as="points">
              <mxPoint x="-1220" y="639" />
              <mxPoint x="-1220" y="679" />
            </Array>
          </mxGeometry>
        </mxCell>
        <mxCell id="Cj8gx9b3kmQxTPlHaOjH-25" value="自车信息" style="edgeLabel;html=1;align=center;verticalAlign=middle;resizable=0;points=[];" vertex="1" connectable="0" parent="Cj8gx9b3kmQxTPlHaOjH-24">
          <mxGeometry x="0.6356" y="1" relative="1" as="geometry">
            <mxPoint as="offset" />
          </mxGeometry>
        </mxCell>
        <mxCell id="Cj8gx9b3kmQxTPlHaOjH-26" style="edgeStyle=orthogonalEdgeStyle;rounded=0;jumpStyle=arc;orthogonalLoop=1;jettySize=auto;html=1;entryX=0;entryY=0.108;entryDx=0;entryDy=0;entryPerimeter=0;strokeColor=#00FF80;" edge="1" source="Cj8gx9b3kmQxTPlHaOjH-30" target="Cj8gx9b3kmQxTPlHaOjH-10" parent="1">
          <mxGeometry relative="1" as="geometry">
            <Array as="points">
              <mxPoint x="-1220" y="639" />
              <mxPoint x="-1220" y="902" />
            </Array>
          </mxGeometry>
        </mxCell>
        <mxCell id="Cj8gx9b3kmQxTPlHaOjH-27" value="自车信息" style="edgeLabel;html=1;align=center;verticalAlign=middle;resizable=0;points=[];" vertex="1" connectable="0" parent="Cj8gx9b3kmQxTPlHaOjH-26">
          <mxGeometry x="0.7219" y="-1" relative="1" as="geometry">
            <mxPoint as="offset" />
          </mxGeometry>
        </mxCell>
        <mxCell id="Cj8gx9b3kmQxTPlHaOjH-28" style="edgeStyle=orthogonalEdgeStyle;rounded=0;jumpStyle=arc;orthogonalLoop=1;jettySize=auto;html=1;entryX=0;entryY=0.31;entryDx=0;entryDy=0;entryPerimeter=0;strokeColor=#00FF80;" edge="1" source="Cj8gx9b3kmQxTPlHaOjH-30" target="Cj8gx9b3kmQxTPlHaOjH-18" parent="1">
          <mxGeometry relative="1" as="geometry">
            <Array as="points">
              <mxPoint x="-1220" y="639" />
              <mxPoint x="-1220" y="1644" />
            </Array>
          </mxGeometry>
        </mxCell>
        <mxCell id="Cj8gx9b3kmQxTPlHaOjH-29" value="自车信息" style="edgeLabel;html=1;align=center;verticalAlign=middle;resizable=0;points=[];" vertex="1" connectable="0" parent="Cj8gx9b3kmQxTPlHaOjH-28">
          <mxGeometry x="0.8989" y="-1" relative="1" as="geometry">
            <mxPoint x="1" as="offset" />
          </mxGeometry>
        </mxCell>
        <mxCell id="Cj8gx9b3kmQxTPlHaOjH-30" value="自车信息" style="rounded=1;whiteSpace=wrap;html=1;fillColor=#60a917;strokeColor=#2D7600;fontColor=#000000;" vertex="1" parent="1">
          <mxGeometry x="-1490" y="609" width="120" height="60" as="geometry" />
        </mxCell>
        <mxCell id="Cj8gx9b3kmQxTPlHaOjH-31" style="edgeStyle=orthogonalEdgeStyle;rounded=0;orthogonalLoop=1;jettySize=auto;html=1;entryX=0;entryY=0.5;entryDx=0;entryDy=0;fontColor=#000000;" edge="1" source="Cj8gx9b3kmQxTPlHaOjH-32" target="Cj8gx9b3kmQxTPlHaOjH-21" parent="1">
          <mxGeometry relative="1" as="geometry" />
        </mxCell>
        <mxCell id="Cj8gx9b3kmQxTPlHaOjH-32" value="目标数据关联" style="rounded=0;whiteSpace=wrap;html=1;fillColor=#1ba1e2;strokeColor=#006EAF;fontColor=#000000;" vertex="1" parent="1">
          <mxGeometry x="-520" y="1734" width="120" height="60" as="geometry" />
        </mxCell>
        <mxCell id="Cj8gx9b3kmQxTPlHaOjH-33" style="edgeStyle=orthogonalEdgeStyle;rounded=0;orthogonalLoop=1;jettySize=auto;html=1;entryX=0.5;entryY=0;entryDx=0;entryDy=0;fontColor=#000000;" edge="1" source="Cj8gx9b3kmQxTPlHaOjH-34" target="Cj8gx9b3kmQxTPlHaOjH-36" parent="1">
          <mxGeometry relative="1" as="geometry" />
        </mxCell>
        <mxCell id="Cj8gx9b3kmQxTPlHaOjH-34" value="目标运动状态融合" style="rounded=0;whiteSpace=wrap;html=1;fillColor=#1ba1e2;strokeColor=#006EAF;fontColor=#000000;" vertex="1" parent="1">
          <mxGeometry x="-320" y="1629" width="120" height="60" as="geometry" />
        </mxCell>
        <mxCell id="Cj8gx9b3kmQxTPlHaOjH-35" style="edgeStyle=orthogonalEdgeStyle;rounded=0;orthogonalLoop=1;jettySize=auto;html=1;entryX=0.5;entryY=0;entryDx=0;entryDy=0;fontColor=#000000;" edge="1" source="Cj8gx9b3kmQxTPlHaOjH-36" target="Cj8gx9b3kmQxTPlHaOjH-38" parent="1">
          <mxGeometry relative="1" as="geometry" />
        </mxCell>
        <mxCell id="Cj8gx9b3kmQxTPlHaOjH-36" value="目标存在性融合" style="rounded=0;whiteSpace=wrap;html=1;fillColor=#1ba1e2;strokeColor=#006EAF;fontColor=#000000;" vertex="1" parent="1">
          <mxGeometry x="-320" y="1709" width="120" height="60" as="geometry" />
        </mxCell>
        <mxCell id="Cj8gx9b3kmQxTPlHaOjH-37" style="edgeStyle=orthogonalEdgeStyle;rounded=0;orthogonalLoop=1;jettySize=auto;html=1;entryX=0.5;entryY=0;entryDx=0;entryDy=0;fontColor=#000000;" edge="1" source="Cj8gx9b3kmQxTPlHaOjH-38" target="Cj8gx9b3kmQxTPlHaOjH-39" parent="1">
          <mxGeometry relative="1" as="geometry" />
        </mxCell>
        <mxCell id="Cj8gx9b3kmQxTPlHaOjH-38" value="目标类别融合" style="rounded=0;whiteSpace=wrap;html=1;fillColor=#1ba1e2;strokeColor=#006EAF;fontColor=#000000;" vertex="1" parent="1">
          <mxGeometry x="-320" y="1789" width="120" height="60" as="geometry" />
        </mxCell>
        <mxCell id="Cj8gx9b3kmQxTPlHaOjH-39" value="目标尺寸融合" style="rounded=0;whiteSpace=wrap;html=1;fillColor=#1ba1e2;strokeColor=#006EAF;fontColor=#000000;" vertex="1" parent="1">
          <mxGeometry x="-320" y="1869" width="120" height="60" as="geometry" />
        </mxCell>
        <mxCell id="Cj8gx9b3kmQxTPlHaOjH-40" value="航迹融合" style="text;html=1;strokeColor=none;fillColor=none;align=center;verticalAlign=middle;whiteSpace=wrap;rounded=0;fontColor=#000000;" vertex="1" parent="1">
          <mxGeometry x="-290" y="1599" width="60" height="30" as="geometry" />
        </mxCell>
        <mxCell id="Cj8gx9b3kmQxTPlHaOjH-41" value="系统航迹生成" style="rounded=0;whiteSpace=wrap;html=1;fillColor=#1ba1e2;strokeColor=#006EAF;fontColor=#000000;" vertex="1" parent="1">
          <mxGeometry x="-140" y="1629" width="120" height="60" as="geometry" />
        </mxCell>
        <mxCell id="Cj8gx9b3kmQxTPlHaOjH-42" value="新目标ID分配" style="rounded=0;whiteSpace=wrap;html=1;fillColor=#1ba1e2;strokeColor=#006EAF;fontColor=#000000;" vertex="1" parent="1">
          <mxGeometry x="-140" y="1709" width="120" height="60" as="geometry" />
        </mxCell>
        <mxCell id="Cj8gx9b3kmQxTPlHaOjH-43" value="系统航迹消亡" style="rounded=0;whiteSpace=wrap;html=1;fillColor=#1ba1e2;strokeColor=#006EAF;fontColor=#000000;" vertex="1" parent="1">
          <mxGeometry x="-140" y="1789" width="120" height="60" as="geometry" />
        </mxCell>
        <mxCell id="Cj8gx9b3kmQxTPlHaOjH-44" value="系统航迹预测" style="rounded=0;whiteSpace=wrap;html=1;fillColor=#1ba1e2;strokeColor=#006EAF;fontColor=#000000;" vertex="1" parent="1">
          <mxGeometry x="-140" y="1879" width="120" height="60" as="geometry" />
        </mxCell>
        <mxCell id="Cj8gx9b3kmQxTPlHaOjH-45" value="航迹管理" style="text;html=1;strokeColor=none;fillColor=none;align=center;verticalAlign=middle;whiteSpace=wrap;rounded=0;fontColor=#000000;" vertex="1" parent="1">
          <mxGeometry x="-110" y="1599" width="60" height="30" as="geometry" />
        </mxCell>
        <mxCell id="Cj8gx9b3kmQxTPlHaOjH-46" value="航迹融合管理" style="text;html=1;strokeColor=none;fillColor=none;align=center;verticalAlign=middle;whiteSpace=wrap;rounded=0;fontColor=#000000;" vertex="1" parent="1">
          <mxGeometry x="-200" y="1559" width="90" height="30" as="geometry" />
        </mxCell>
        <mxCell id="Cj8gx9b3kmQxTPlHaOjH-47" value="目标处理" style="text;html=1;strokeColor=none;fillColor=none;align=center;verticalAlign=middle;whiteSpace=wrap;rounded=0;fontColor=#000000;" vertex="1" parent="1">
          <mxGeometry x="-860" y="1559" width="140" height="30" as="geometry" />
        </mxCell>
        <mxCell id="Cj8gx9b3kmQxTPlHaOjH-48" value="1V1R障碍物融合" style="text;html=1;strokeColor=none;fillColor=none;align=center;verticalAlign=middle;whiteSpace=wrap;rounded=0;fontColor=#000000;" vertex="1" parent="1">
          <mxGeometry x="-530" y="1499" width="110" height="30" as="geometry" />
        </mxCell>
        <mxCell id="Cj8gx9b3kmQxTPlHaOjH-49" value="车道线输出" style="rounded=0;whiteSpace=wrap;html=1;fillColor=#e51400;strokeColor=#B20000;fontColor=#000000;" vertex="1" parent="1">
          <mxGeometry x="675" y="1124" width="120" height="60" as="geometry" />
        </mxCell>
        <mxCell id="Cj8gx9b3kmQxTPlHaOjH-50" value="TSR输出" style="rounded=1;whiteSpace=wrap;html=1;fillColor=#e51400;strokeColor=#B20000;fontColor=#000000;" vertex="1" parent="1">
          <mxGeometry x="675" y="1244" width="120" height="60" as="geometry" />
        </mxCell>
        <mxCell id="Cj8gx9b3kmQxTPlHaOjH-51" value="目标-车道关联" style="rounded=0;whiteSpace=wrap;html=1;fillColor=#1ba1e2;strokeColor=#006EAF;fontColor=#000000;" vertex="1" parent="1">
          <mxGeometry x="370" y="1589" width="120" height="60" as="geometry" />
        </mxCell>
        <mxCell id="Cj8gx9b3kmQxTPlHaOjH-52" value="融合目标危险性排序" style="rounded=0;whiteSpace=wrap;html=1;fillColor=#1ba1e2;strokeColor=#006EAF;fontColor=#000000;" vertex="1" parent="1">
          <mxGeometry x="370" y="1664" width="120" height="60" as="geometry" />
        </mxCell>
        <mxCell id="Cj8gx9b3kmQxTPlHaOjH-53" value="CIPV" style="rounded=0;whiteSpace=wrap;html=1;fillColor=#1ba1e2;strokeColor=#006EAF;fontColor=#000000;" vertex="1" parent="1">
          <mxGeometry x="370" y="1749" width="120" height="60" as="geometry" />
        </mxCell>
        <mxCell id="Cj8gx9b3kmQxTPlHaOjH-54" value="目标输出" style="rounded=0;whiteSpace=wrap;html=1;fillColor=#1ba1e2;strokeColor=#006EAF;fontColor=#000000;" vertex="1" parent="1">
          <mxGeometry x="370" y="1829" width="120" height="60" as="geometry" />
        </mxCell>
        <mxCell id="Cj8gx9b3kmQxTPlHaOjH-55" value="障碍物输出" style="rounded=0;whiteSpace=wrap;html=1;fillColor=#e51400;strokeColor=#B20000;fontColor=#000000;" vertex="1" parent="1">
          <mxGeometry x="660" y="1709" width="120" height="60" as="geometry" />
        </mxCell>
        <mxCell id="Cj8gx9b3kmQxTPlHaOjH-56" value="目标&amp;amp;车道线融合" style="text;html=1;strokeColor=none;fillColor=none;align=center;verticalAlign=middle;whiteSpace=wrap;rounded=0;fontColor=#000000;" vertex="1" parent="1">
          <mxGeometry x="380" y="1509" width="95" height="30" as="geometry" />
        </mxCell>
        <mxCell id="Cj8gx9b3kmQxTPlHaOjH-57" value="绿色：实时输入" style="rounded=1;whiteSpace=wrap;html=1;fillColor=#60a917;strokeColor=#2D7600;fontColor=#000000;" vertex="1" parent="1">
          <mxGeometry x="-1062.5" y="2050" width="90" height="15" as="geometry" />
        </mxCell>
        <mxCell id="Cj8gx9b3kmQxTPlHaOjH-58" value="绿色：内部模块" style="rounded=0;whiteSpace=wrap;html=1;fillColor=#1ba1e2;strokeColor=#006EAF;fontColor=#000000;" vertex="1" parent="1">
          <mxGeometry x="-822.5" y="2050" width="90" height="15" as="geometry" />
        </mxCell>
        <mxCell id="Cj8gx9b3kmQxTPlHaOjH-59" value="红色：输出" style="rounded=0;whiteSpace=wrap;html=1;fillColor=#e51400;strokeColor=#B20000;fontColor=#000000;" vertex="1" parent="1">
          <mxGeometry x="-722.5" y="2050" width="70" height="15" as="geometry" />
        </mxCell>
        <mxCell id="Cj8gx9b3kmQxTPlHaOjH-60" value="&lt;b style=&quot;font-size: 14px;&quot;&gt;&lt;font style=&quot;font-size: 14px;&quot;&gt;说明：&lt;br style=&quot;font-size: 14px;&quot;&gt;&lt;/font&gt;&lt;/b&gt;" style="text;html=1;strokeColor=none;fillColor=none;align=center;verticalAlign=middle;whiteSpace=wrap;rounded=0;fontSize=14;fontColor=#000000;" vertex="1" parent="1">
          <mxGeometry x="-1122.5" y="2040" width="60" height="30" as="geometry" />
        </mxCell>
        <mxCell id="Cj8gx9b3kmQxTPlHaOjH-61" style="edgeStyle=orthogonalEdgeStyle;rounded=0;jumpStyle=arc;orthogonalLoop=1;jettySize=auto;html=1;entryX=-0.001;entryY=0.345;entryDx=0;entryDy=0;entryPerimeter=0;" edge="1" source="Cj8gx9b3kmQxTPlHaOjH-63" target="Cj8gx9b3kmQxTPlHaOjH-10" parent="1">
          <mxGeometry relative="1" as="geometry" />
        </mxCell>
        <mxCell id="Cj8gx9b3kmQxTPlHaOjH-62" value="EQ4外参" style="edgeLabel;html=1;align=center;verticalAlign=middle;resizable=0;points=[];" vertex="1" connectable="0" parent="Cj8gx9b3kmQxTPlHaOjH-61">
          <mxGeometry x="0.4511" relative="1" as="geometry">
            <mxPoint as="offset" />
          </mxGeometry>
        </mxCell>
        <mxCell id="Cj8gx9b3kmQxTPlHaOjH-63" value="前摄像头2车辆外参" style="rounded=1;whiteSpace=wrap;html=1;fillColor=#d5e8d4;strokeColor=#82b366;gradientColor=#97d077;" vertex="1" parent="1">
          <mxGeometry x="-1490" y="1009" width="120" height="60" as="geometry" />
        </mxCell>
        <mxCell id="Cj8gx9b3kmQxTPlHaOjH-64" style="edgeStyle=orthogonalEdgeStyle;rounded=0;jumpStyle=arc;orthogonalLoop=1;jettySize=auto;html=1;entryX=0;entryY=0.5;entryDx=0;entryDy=0;strokeColor=#FF8000;" edge="1" source="Cj8gx9b3kmQxTPlHaOjH-66" target="Cj8gx9b3kmQxTPlHaOjH-4" parent="1">
          <mxGeometry relative="1" as="geometry">
            <Array as="points">
              <mxPoint x="-1220" y="789" />
              <mxPoint x="-1220" y="739" />
            </Array>
          </mxGeometry>
        </mxCell>
        <mxCell id="Cj8gx9b3kmQxTPlHaOjH-65" value="雷达外参" style="edgeLabel;html=1;align=center;verticalAlign=middle;resizable=0;points=[];" vertex="1" connectable="0" parent="Cj8gx9b3kmQxTPlHaOjH-64">
          <mxGeometry x="0.5526" y="2" relative="1" as="geometry">
            <mxPoint as="offset" />
          </mxGeometry>
        </mxCell>
        <mxCell id="Cj8gx9b3kmQxTPlHaOjH-66" value="前雷达2车辆外参" style="rounded=1;whiteSpace=wrap;html=1;fillColor=#d5e8d4;strokeColor=#82b366;gradientColor=#97d077;" vertex="1" parent="1">
          <mxGeometry x="-1490" y="759" width="120" height="60" as="geometry" />
        </mxCell>
        <mxCell id="Cj8gx9b3kmQxTPlHaOjH-67" style="edgeStyle=orthogonalEdgeStyle;rounded=0;jumpStyle=arc;orthogonalLoop=1;jettySize=auto;html=1;entryX=0;entryY=0.5;entryDx=0;entryDy=0;strokeColor=#000000;" edge="1" source="Cj8gx9b3kmQxTPlHaOjH-69" target="Cj8gx9b3kmQxTPlHaOjH-18" parent="1">
          <mxGeometry relative="1" as="geometry" />
        </mxCell>
        <mxCell id="Cj8gx9b3kmQxTPlHaOjH-68" value="融合算法配置参数" style="edgeLabel;html=1;align=center;verticalAlign=middle;resizable=0;points=[];" vertex="1" connectable="0" parent="Cj8gx9b3kmQxTPlHaOjH-67">
          <mxGeometry x="0.3273" y="-4" relative="1" as="geometry">
            <mxPoint as="offset" />
          </mxGeometry>
        </mxCell>
        <mxCell id="Cj8gx9b3kmQxTPlHaOjH-69" value="目标融合算法配置标定参数" style="rounded=1;whiteSpace=wrap;html=1;fillColor=#d5e8d4;strokeColor=#82b366;gradientColor=#97d077;" vertex="1" parent="1">
          <mxGeometry x="-1490" y="1709" width="120" height="60" as="geometry" />
        </mxCell>
        <mxCell id="Cj8gx9b3kmQxTPlHaOjH-70" value="淡绿色：本地配置输入" style="rounded=1;whiteSpace=wrap;html=1;fillColor=#d5e8d4;strokeColor=#82b366;gradientColor=#97d077;" vertex="1" parent="1">
          <mxGeometry x="-962.5" y="2050" width="130" height="15" as="geometry" />
        </mxCell>
        <mxCell id="Cj8gx9b3kmQxTPlHaOjH-71" style="edgeStyle=orthogonalEdgeStyle;rounded=0;jumpStyle=arc;orthogonalLoop=1;jettySize=auto;html=1;entryX=0.001;entryY=0.775;entryDx=0;entryDy=0;entryPerimeter=0;" edge="1" source="Cj8gx9b3kmQxTPlHaOjH-73" target="Cj8gx9b3kmQxTPlHaOjH-10" parent="1">
          <mxGeometry relative="1" as="geometry" />
        </mxCell>
        <mxCell id="Cj8gx9b3kmQxTPlHaOjH-72" value="EQ4报文" style="edgeLabel;html=1;align=center;verticalAlign=middle;resizable=0;points=[];" vertex="1" connectable="0" parent="Cj8gx9b3kmQxTPlHaOjH-71">
          <mxGeometry x="0.3571" y="1" relative="1" as="geometry">
            <mxPoint as="offset" />
          </mxGeometry>
        </mxCell>
        <mxCell id="Cj8gx9b3kmQxTPlHaOjH-73" value="EQ4报文" style="rounded=1;whiteSpace=wrap;html=1;fillColor=#60a917;strokeColor=#2D7600;fontColor=#000000;" vertex="1" parent="1">
          <mxGeometry x="-1490" y="1259" width="120" height="60" as="geometry" />
        </mxCell>
        <mxCell id="Cj8gx9b3kmQxTPlHaOjH-74" style="edgeStyle=orthogonalEdgeStyle;rounded=0;orthogonalLoop=1;jettySize=auto;html=1;entryX=0;entryY=0.5;entryDx=0;entryDy=0;" edge="1" source="Cj8gx9b3kmQxTPlHaOjH-77" target="Cj8gx9b3kmQxTPlHaOjH-79" parent="1">
          <mxGeometry relative="1" as="geometry" />
        </mxCell>
        <mxCell id="Cj8gx9b3kmQxTPlHaOjH-75" style="edgeStyle=orthogonalEdgeStyle;rounded=0;orthogonalLoop=1;jettySize=auto;html=1;entryX=0;entryY=0.5;entryDx=0;entryDy=0;" edge="1" source="Cj8gx9b3kmQxTPlHaOjH-77" target="Cj8gx9b3kmQxTPlHaOjH-81" parent="1">
          <mxGeometry relative="1" as="geometry" />
        </mxCell>
        <mxCell id="Cj8gx9b3kmQxTPlHaOjH-76" style="edgeStyle=orthogonalEdgeStyle;rounded=0;orthogonalLoop=1;jettySize=auto;html=1;entryX=0;entryY=0.5;entryDx=0;entryDy=0;" edge="1" source="Cj8gx9b3kmQxTPlHaOjH-77" target="Cj8gx9b3kmQxTPlHaOjH-83" parent="1">
          <mxGeometry relative="1" as="geometry" />
        </mxCell>
        <mxCell id="Cj8gx9b3kmQxTPlHaOjH-77" value="报文解析" style="rounded=0;whiteSpace=wrap;html=1;fillColor=#1ba1e2;strokeColor=#006EAF;fontColor=#000000;" vertex="1" parent="1">
          <mxGeometry x="-975" y="1134" width="120" height="60" as="geometry" />
        </mxCell>
        <mxCell id="Cj8gx9b3kmQxTPlHaOjH-78" style="edgeStyle=orthogonalEdgeStyle;rounded=0;orthogonalLoop=1;jettySize=auto;html=1;entryX=0;entryY=0.5;entryDx=0;entryDy=0;" edge="1" source="Cj8gx9b3kmQxTPlHaOjH-79" target="Cj8gx9b3kmQxTPlHaOjH-84" parent="1">
          <mxGeometry relative="1" as="geometry" />
        </mxCell>
        <mxCell id="Cj8gx9b3kmQxTPlHaOjH-79" value="EQ4目标" style="rounded=0;whiteSpace=wrap;html=1;fillColor=#1ba1e2;strokeColor=#006EAF;fontColor=#000000;" vertex="1" parent="1">
          <mxGeometry x="-745" y="1004" width="120" height="60" as="geometry" />
        </mxCell>
        <mxCell id="Cj8gx9b3kmQxTPlHaOjH-80" style="edgeStyle=orthogonalEdgeStyle;rounded=0;orthogonalLoop=1;jettySize=auto;html=1;entryX=0;entryY=0.5;entryDx=0;entryDy=0;" edge="1" source="Cj8gx9b3kmQxTPlHaOjH-81" target="Cj8gx9b3kmQxTPlHaOjH-91" parent="1">
          <mxGeometry relative="1" as="geometry" />
        </mxCell>
        <mxCell id="Cj8gx9b3kmQxTPlHaOjH-81" value="EQ4车道线" style="rounded=0;whiteSpace=wrap;html=1;fillColor=#1ba1e2;strokeColor=#006EAF;fontColor=#000000;" vertex="1" parent="1">
          <mxGeometry x="-745" y="1134" width="120" height="60" as="geometry" />
        </mxCell>
        <mxCell id="Cj8gx9b3kmQxTPlHaOjH-82" style="edgeStyle=orthogonalEdgeStyle;rounded=0;orthogonalLoop=1;jettySize=auto;html=1;" edge="1" source="Cj8gx9b3kmQxTPlHaOjH-83" target="Cj8gx9b3kmQxTPlHaOjH-92" parent="1">
          <mxGeometry relative="1" as="geometry" />
        </mxCell>
        <mxCell id="Cj8gx9b3kmQxTPlHaOjH-83" value="EQ4交通标识" style="rounded=0;whiteSpace=wrap;html=1;fillColor=#1ba1e2;strokeColor=#006EAF;fontColor=#000000;" vertex="1" parent="1">
          <mxGeometry x="-745" y="1249" width="120" height="60" as="geometry" />
        </mxCell>
        <mxCell id="Cj8gx9b3kmQxTPlHaOjH-84" value="" style="rounded=0;whiteSpace=wrap;html=1;fontColor=#000000;" vertex="1" parent="1">
          <mxGeometry x="-430" y="979" width="350" height="110" as="geometry" />
        </mxCell>
        <mxCell id="Cj8gx9b3kmQxTPlHaOjH-85" value="视觉目标跟踪滤波" style="rounded=0;whiteSpace=wrap;html=1;fillColor=#1ba1e2;strokeColor=#006EAF;fontColor=#000000;" vertex="1" parent="1">
          <mxGeometry x="-245" y="1009" width="160" height="60" as="geometry" />
        </mxCell>
        <mxCell id="Cj8gx9b3kmQxTPlHaOjH-86" style="edgeStyle=orthogonalEdgeStyle;rounded=0;orthogonalLoop=1;jettySize=auto;html=1;entryX=0;entryY=0.5;entryDx=0;entryDy=0;" edge="1" source="Cj8gx9b3kmQxTPlHaOjH-87" target="Cj8gx9b3kmQxTPlHaOjH-85" parent="1">
          <mxGeometry relative="1" as="geometry" />
        </mxCell>
        <mxCell id="Cj8gx9b3kmQxTPlHaOjH-87" value="视觉目标空间同步" style="rounded=0;whiteSpace=wrap;html=1;fillColor=#1ba1e2;strokeColor=#006EAF;fontColor=#000000;" vertex="1" parent="1">
          <mxGeometry x="-405" y="1009" width="120" height="60" as="geometry" />
        </mxCell>
        <mxCell id="Cj8gx9b3kmQxTPlHaOjH-88" value="前视觉目标处理" style="text;html=1;strokeColor=none;fillColor=none;align=center;verticalAlign=middle;whiteSpace=wrap;rounded=0;fontColor=#000000;" vertex="1" parent="1">
          <mxGeometry x="-300" y="979" width="90" height="30" as="geometry" />
        </mxCell>
        <mxCell id="Cj8gx9b3kmQxTPlHaOjH-89" value="EQ4车道线后处理" style="rounded=0;whiteSpace=wrap;html=1;fillColor=#1ba1e2;strokeColor=#006EAF;fontColor=#000000;" vertex="1" parent="1">
          <mxGeometry x="-235" y="1134" width="120" height="60" as="geometry" />
        </mxCell>
        <mxCell id="Cj8gx9b3kmQxTPlHaOjH-90" value="" style="edgeStyle=orthogonalEdgeStyle;rounded=0;orthogonalLoop=1;jettySize=auto;html=1;" edge="1" source="Cj8gx9b3kmQxTPlHaOjH-91" target="Cj8gx9b3kmQxTPlHaOjH-89" parent="1">
          <mxGeometry relative="1" as="geometry" />
        </mxCell>
        <mxCell id="Cj8gx9b3kmQxTPlHaOjH-91" value="空间同步" style="rounded=0;whiteSpace=wrap;html=1;fillColor=#1ba1e2;strokeColor=#006EAF;fontColor=#000000;" vertex="1" parent="1">
          <mxGeometry x="-410" y="1134" width="120" height="60" as="geometry" />
        </mxCell>
        <mxCell id="Cj8gx9b3kmQxTPlHaOjH-92" value="空间同步" style="rounded=0;whiteSpace=wrap;html=1;fillColor=#1ba1e2;strokeColor=#006EAF;fontColor=#000000;" vertex="1" parent="1">
          <mxGeometry x="-410" y="1249" width="120" height="60" as="geometry" />
        </mxCell>
        <mxCell id="Cj8gx9b3kmQxTPlHaOjH-93" value="车道线处理" style="text;html=1;strokeColor=none;fillColor=none;align=center;verticalAlign=middle;whiteSpace=wrap;rounded=0;fontColor=#000000;" vertex="1" parent="1">
          <mxGeometry x="-315" y="1104" width="90" height="30" as="geometry" />
        </mxCell>
        <mxCell id="Cj8gx9b3kmQxTPlHaOjH-94" value="交通标识处理" style="text;html=1;strokeColor=none;fillColor=none;align=center;verticalAlign=middle;whiteSpace=wrap;rounded=0;fontColor=#000000;" vertex="1" parent="1">
          <mxGeometry x="-310" y="1219" width="90" height="30" as="geometry" />
        </mxCell>
        <mxCell id="Cj8gx9b3kmQxTPlHaOjH-95" value="EQ4数据处理" style="text;html=1;strokeColor=none;fillColor=none;align=center;verticalAlign=middle;whiteSpace=wrap;rounded=0;" vertex="1" parent="1">
          <mxGeometry x="-290" y="939" width="85" height="30" as="geometry" />
        </mxCell>
        <mxCell id="Cj8gx9b3kmQxTPlHaOjH-96" value="EQ4数据解析和处理" style="text;html=1;strokeColor=none;fillColor=none;align=center;verticalAlign=middle;whiteSpace=wrap;rounded=0;" vertex="1" parent="1">
          <mxGeometry x="-455" y="829" width="380" height="110" as="geometry" />
        </mxCell>
        <mxCell id="Cj8gx9b3kmQxTPlHaOjH-97" style="edgeStyle=orthogonalEdgeStyle;rounded=0;orthogonalLoop=1;jettySize=auto;html=1;entryX=-0.001;entryY=0.517;entryDx=0;entryDy=0;entryPerimeter=0;" edge="1" source="Cj8gx9b3kmQxTPlHaOjH-99" target="Cj8gx9b3kmQxTPlHaOjH-10" parent="1">
          <mxGeometry relative="1" as="geometry">
            <mxPoint x="-1080" y="1079" as="targetPoint" />
          </mxGeometry>
        </mxCell>
        <mxCell id="Cj8gx9b3kmQxTPlHaOjH-98" value="EQ4算法配置" style="edgeLabel;html=1;align=center;verticalAlign=middle;resizable=0;points=[];" vertex="1" connectable="0" parent="Cj8gx9b3kmQxTPlHaOjH-97">
          <mxGeometry x="0.3738" relative="1" as="geometry">
            <mxPoint as="offset" />
          </mxGeometry>
        </mxCell>
        <mxCell id="Cj8gx9b3kmQxTPlHaOjH-99" value="Eq4算法标定配置参数" style="rounded=1;whiteSpace=wrap;html=1;fillColor=#d5e8d4;strokeColor=#82b366;gradientColor=#97d077;" vertex="1" parent="1">
          <mxGeometry x="-1490" y="1109" width="120" height="60" as="geometry" />
        </mxCell>
        <mxCell id="Cj8gx9b3kmQxTPlHaOjH-100" style="edgeStyle=orthogonalEdgeStyle;rounded=0;jumpStyle=arc;orthogonalLoop=1;jettySize=auto;html=1;entryX=0;entryY=0.5;entryDx=0;entryDy=0;" edge="1" source="Cj8gx9b3kmQxTPlHaOjH-101" target="Cj8gx9b3kmQxTPlHaOjH-110" parent="1">
          <mxGeometry relative="1" as="geometry" />
        </mxCell>
        <mxCell id="Cj8gx9b3kmQxTPlHaOjH-101" value="功能开关" style="rounded=1;whiteSpace=wrap;html=1;fillColor=#60a917;strokeColor=#2D7600;fontColor=#000000;" vertex="1" parent="1">
          <mxGeometry x="-1490" y="530" width="120" height="60" as="geometry" />
        </mxCell>
        <mxCell id="Cj8gx9b3kmQxTPlHaOjH-102" value="融合功能开关" style="rounded=0;whiteSpace=wrap;html=1;fillColor=#ffcc99;strokeColor=#36393d;" vertex="1" parent="1">
          <mxGeometry x="675" y="530" width="120" height="60" as="geometry" />
        </mxCell>
        <mxCell id="Cj8gx9b3kmQxTPlHaOjH-103" style="edgeStyle=orthogonalEdgeStyle;rounded=0;jumpStyle=arc;orthogonalLoop=1;jettySize=auto;html=1;strokeColor=#FF33FF;" edge="1" source="Cj8gx9b3kmQxTPlHaOjH-105" parent="1">
          <mxGeometry relative="1" as="geometry">
            <mxPoint x="-1030" y="709" as="targetPoint" />
            <Array as="points">
              <mxPoint x="-1031" y="709" />
            </Array>
          </mxGeometry>
        </mxCell>
        <mxCell id="Cj8gx9b3kmQxTPlHaOjH-104" value="原始雷达目标" style="edgeLabel;html=1;align=center;verticalAlign=middle;resizable=0;points=[];" vertex="1" connectable="0" parent="Cj8gx9b3kmQxTPlHaOjH-103">
          <mxGeometry x="0.5436" y="1" relative="1" as="geometry">
            <mxPoint as="offset" />
          </mxGeometry>
        </mxCell>
        <mxCell id="Cj8gx9b3kmQxTPlHaOjH-105" value="原始前毫米波雷达目标" style="rounded=1;whiteSpace=wrap;html=1;fillColor=#60a917;strokeColor=#2D7600;fontColor=#000000;" vertex="1" parent="1">
          <mxGeometry x="-1490" y="679" width="120" height="60" as="geometry" />
        </mxCell>
        <mxCell id="Cj8gx9b3kmQxTPlHaOjH-106" value="前雷达目标滤波预处理" style="rounded=0;whiteSpace=wrap;html=1;fillColor=#1ba1e2;strokeColor=#006EAF;fontColor=#000000;" vertex="1" parent="1">
          <mxGeometry x="-690" y="729" width="120" height="60" as="geometry" />
        </mxCell>
        <mxCell id="Cj8gx9b3kmQxTPlHaOjH-107" value="" style="edgeStyle=orthogonalEdgeStyle;rounded=0;jumpStyle=arc;orthogonalLoop=1;jettySize=auto;html=1;" edge="1" source="Cj8gx9b3kmQxTPlHaOjH-108" target="Cj8gx9b3kmQxTPlHaOjH-106" parent="1">
          <mxGeometry relative="1" as="geometry" />
        </mxCell>
        <mxCell id="Cj8gx9b3kmQxTPlHaOjH-108" value="前雷达空间同步" style="rounded=0;whiteSpace=wrap;html=1;fillColor=#1ba1e2;strokeColor=#006EAF;fontColor=#000000;" vertex="1" parent="1">
          <mxGeometry x="-880" y="729" width="120" height="60" as="geometry" />
        </mxCell>
        <mxCell id="Cj8gx9b3kmQxTPlHaOjH-109" value="前雷达目标处理" style="text;html=1;strokeColor=none;fillColor=none;align=center;verticalAlign=middle;whiteSpace=wrap;rounded=0;fontColor=#000000;" vertex="1" parent="1">
          <mxGeometry x="-780" y="669" width="90" height="30" as="geometry" />
        </mxCell>
        <mxCell id="Cj8gx9b3kmQxTPlHaOjH-110" value="" style="rounded=0;whiteSpace=wrap;html=1;" vertex="1" parent="1">
          <mxGeometry x="-1035" y="490" width="570" height="140" as="geometry" />
        </mxCell>
        <mxCell id="Cj8gx9b3kmQxTPlHaOjH-111" value="融合控制逻辑" style="rounded=0;whiteSpace=wrap;html=1;fillColor=#1ba1e2;strokeColor=#006EAF;fontColor=#000000;" vertex="1" parent="1">
          <mxGeometry x="-945" y="550.5" width="120" height="60" as="geometry" />
        </mxCell>
        <mxCell id="Cj8gx9b3kmQxTPlHaOjH-112" value="融合开关控制" style="text;html=1;strokeColor=none;fillColor=none;align=center;verticalAlign=middle;whiteSpace=wrap;rounded=0;fontColor=#000000;" vertex="1" parent="1">
          <mxGeometry x="-935" y="509.5" width="90" height="30" as="geometry" />
        </mxCell>
        <mxCell id="Cj8gx9b3kmQxTPlHaOjH-113" style="edgeStyle=orthogonalEdgeStyle;rounded=0;jumpStyle=arc;orthogonalLoop=1;jettySize=auto;html=1;entryX=0;entryY=0.75;entryDx=0;entryDy=0;fillColor=#cdeb8b;strokeColor=#6666FF;" edge="1" source="Cj8gx9b3kmQxTPlHaOjH-119" target="Cj8gx9b3kmQxTPlHaOjH-4" parent="1">
          <mxGeometry relative="1" as="geometry">
            <mxPoint x="-1560" y="889" as="targetPoint" />
            <Array as="points">
              <mxPoint x="-1220" y="869" />
              <mxPoint x="-1220" y="779" />
            </Array>
          </mxGeometry>
        </mxCell>
        <mxCell id="Cj8gx9b3kmQxTPlHaOjH-114" value="融合功能开关" style="edgeLabel;html=1;align=center;verticalAlign=middle;resizable=0;points=[];" vertex="1" connectable="0" parent="Cj8gx9b3kmQxTPlHaOjH-113">
          <mxGeometry x="0.6199" y="-2" relative="1" as="geometry">
            <mxPoint as="offset" />
          </mxGeometry>
        </mxCell>
        <mxCell id="Cj8gx9b3kmQxTPlHaOjH-115" style="edgeStyle=orthogonalEdgeStyle;rounded=0;jumpStyle=arc;orthogonalLoop=1;jettySize=auto;html=1;entryX=-0.002;entryY=0.162;entryDx=0;entryDy=0;entryPerimeter=0;strokeColor=#6666FF;" edge="1" source="Cj8gx9b3kmQxTPlHaOjH-119" target="Cj8gx9b3kmQxTPlHaOjH-10" parent="1">
          <mxGeometry relative="1" as="geometry">
            <Array as="points">
              <mxPoint x="-1220" y="869" />
              <mxPoint x="-1220" y="933" />
            </Array>
          </mxGeometry>
        </mxCell>
        <mxCell id="Cj8gx9b3kmQxTPlHaOjH-116" value="融合功能开关" style="edgeLabel;html=1;align=center;verticalAlign=middle;resizable=0;points=[];" vertex="1" connectable="0" parent="Cj8gx9b3kmQxTPlHaOjH-115">
          <mxGeometry x="0.5811" y="-2" relative="1" as="geometry">
            <mxPoint as="offset" />
          </mxGeometry>
        </mxCell>
        <mxCell id="Cj8gx9b3kmQxTPlHaOjH-117" style="edgeStyle=orthogonalEdgeStyle;rounded=0;jumpStyle=arc;orthogonalLoop=1;jettySize=auto;html=1;entryX=0;entryY=0.4;entryDx=0;entryDy=0;entryPerimeter=0;strokeColor=#6666FF;" edge="1" source="Cj8gx9b3kmQxTPlHaOjH-119" target="Cj8gx9b3kmQxTPlHaOjH-18" parent="1">
          <mxGeometry relative="1" as="geometry">
            <Array as="points">
              <mxPoint x="-1220" y="869" />
              <mxPoint x="-1220" y="1689" />
            </Array>
          </mxGeometry>
        </mxCell>
        <mxCell id="Cj8gx9b3kmQxTPlHaOjH-118" value="融合功能开关" style="edgeLabel;html=1;align=center;verticalAlign=middle;resizable=0;points=[];" vertex="1" connectable="0" parent="Cj8gx9b3kmQxTPlHaOjH-117">
          <mxGeometry x="0.8642" y="3" relative="1" as="geometry">
            <mxPoint as="offset" />
          </mxGeometry>
        </mxCell>
        <mxCell id="Cj8gx9b3kmQxTPlHaOjH-119" value="融合功能开关" style="rounded=0;whiteSpace=wrap;html=1;fillColor=#ffcccc;strokeColor=#36393d;" vertex="1" parent="1">
          <mxGeometry x="-1490" y="839" width="120" height="60" as="geometry" />
        </mxCell>
        <mxCell id="Cj8gx9b3kmQxTPlHaOjH-120" style="edgeStyle=orthogonalEdgeStyle;rounded=0;jumpStyle=arc;orthogonalLoop=1;jettySize=auto;html=1;strokeColor=#33FFFF;entryX=0;entryY=0.891;entryDx=0;entryDy=0;entryPerimeter=0;" edge="1" source="Cj8gx9b3kmQxTPlHaOjH-122" target="Cj8gx9b3kmQxTPlHaOjH-4" parent="1">
          <mxGeometry relative="1" as="geometry">
            <mxPoint x="-1040" y="799" as="targetPoint" />
            <Array as="points">
              <mxPoint x="-1220" y="949" />
              <mxPoint x="-1220" y="802" />
            </Array>
          </mxGeometry>
        </mxCell>
        <mxCell id="Cj8gx9b3kmQxTPlHaOjH-121" value="雷达处理算法配置参数" style="edgeLabel;html=1;align=center;verticalAlign=middle;resizable=0;points=[];" vertex="1" connectable="0" parent="Cj8gx9b3kmQxTPlHaOjH-120">
          <mxGeometry x="0.659" y="1" relative="1" as="geometry">
            <mxPoint as="offset" />
          </mxGeometry>
        </mxCell>
        <mxCell id="Cj8gx9b3kmQxTPlHaOjH-122" value="前雷达算法标定配置参数" style="rounded=1;whiteSpace=wrap;html=1;fillColor=#d5e8d4;strokeColor=#82b366;gradientColor=#97d077;" vertex="1" parent="1">
          <mxGeometry x="-1490" y="919" width="120" height="60" as="geometry" />
        </mxCell>
        <mxCell id="Cj8gx9b3kmQxTPlHaOjH-123" style="edgeStyle=orthogonalEdgeStyle;rounded=0;jumpStyle=arc;orthogonalLoop=1;jettySize=auto;html=1;entryX=0.001;entryY=0.72;entryDx=0;entryDy=0;entryPerimeter=0;strokeColor=#000000;" edge="1" source="Cj8gx9b3kmQxTPlHaOjH-125" target="Cj8gx9b3kmQxTPlHaOjH-18" parent="1">
          <mxGeometry relative="1" as="geometry" />
        </mxCell>
        <mxCell id="Cj8gx9b3kmQxTPlHaOjH-124" value="EQ4目标" style="edgeLabel;html=1;align=center;verticalAlign=middle;resizable=0;points=[];" vertex="1" connectable="0" parent="Cj8gx9b3kmQxTPlHaOjH-123">
          <mxGeometry x="0.2445" y="-2" relative="1" as="geometry">
            <mxPoint as="offset" />
          </mxGeometry>
        </mxCell>
        <mxCell id="Cj8gx9b3kmQxTPlHaOjH-125" value="EQ4目标" style="rounded=0;whiteSpace=wrap;html=1;fillColor=#ffcccc;strokeColor=#36393d;" vertex="1" parent="1">
          <mxGeometry x="-1490" y="1819" width="120" height="60" as="geometry" />
        </mxCell>
        <mxCell id="Cj8gx9b3kmQxTPlHaOjH-126" value="EQ4目标" style="rounded=0;whiteSpace=wrap;html=1;fillColor=#ffcc99;strokeColor=#36393d;" vertex="1" parent="1">
          <mxGeometry x="675" y="1009" width="120" height="60" as="geometry" />
        </mxCell>
        <mxCell id="Cj8gx9b3kmQxTPlHaOjH-127" value="前雷达目标" style="rounded=0;whiteSpace=wrap;html=1;fillColor=#ffcc99;strokeColor=#36393d;" vertex="1" parent="1">
          <mxGeometry x="675" y="709" width="120" height="60" as="geometry" />
        </mxCell>
        <mxCell id="Cj8gx9b3kmQxTPlHaOjH-128" style="edgeStyle=orthogonalEdgeStyle;rounded=0;jumpStyle=arc;orthogonalLoop=1;jettySize=auto;html=1;entryX=-0.001;entryY=0.898;entryDx=0;entryDy=0;entryPerimeter=0;strokeColor=#000000;" edge="1" source="Cj8gx9b3kmQxTPlHaOjH-130" target="Cj8gx9b3kmQxTPlHaOjH-18" parent="1">
          <mxGeometry relative="1" as="geometry" />
        </mxCell>
        <mxCell id="Cj8gx9b3kmQxTPlHaOjH-129" value="前雷达目标" style="edgeLabel;html=1;align=center;verticalAlign=middle;resizable=0;points=[];" vertex="1" connectable="0" parent="Cj8gx9b3kmQxTPlHaOjH-128">
          <mxGeometry x="0.1697" y="1" relative="1" as="geometry">
            <mxPoint as="offset" />
          </mxGeometry>
        </mxCell>
        <mxCell id="Cj8gx9b3kmQxTPlHaOjH-130" value="前雷达目标" style="rounded=0;whiteSpace=wrap;html=1;fillColor=#ffcccc;strokeColor=#36393d;" vertex="1" parent="1">
          <mxGeometry x="-1490" y="1909" width="120" height="60" as="geometry" />
        </mxCell>
        <mxCell id="Cj8gx9b3kmQxTPlHaOjH-131" value="目标帧数据缓存" style="rounded=0;whiteSpace=wrap;html=1;fillColor=#1ba1e2;strokeColor=#006EAF;fontColor=#000000;" vertex="1" parent="1">
          <mxGeometry x="-855" y="1613" width="120" height="60" as="geometry" />
        </mxCell>
        <mxCell id="Cj8gx9b3kmQxTPlHaOjH-132" value="目标帧时间排序" style="rounded=0;whiteSpace=wrap;html=1;fillColor=#1ba1e2;strokeColor=#006EAF;fontColor=#000000;" vertex="1" parent="1">
          <mxGeometry x="-855" y="1700" width="120" height="60" as="geometry" />
        </mxCell>
        <mxCell id="Cj8gx9b3kmQxTPlHaOjH-133" value="历史航迹运动补偿" style="rounded=0;whiteSpace=wrap;html=1;fillColor=#1ba1e2;strokeColor=#006EAF;fontColor=#000000;" vertex="1" parent="1">
          <mxGeometry x="-855" y="1789" width="120" height="60" as="geometry" />
        </mxCell>
        <mxCell id="Cj8gx9b3kmQxTPlHaOjH-134" value="橙色：模块内输出" style="rounded=0;whiteSpace=wrap;html=1;fillColor=#ffcc99;strokeColor=#36393d;" vertex="1" parent="1">
          <mxGeometry x="-642.5" y="2050" width="105" height="15" as="geometry" />
        </mxCell>
        <mxCell id="Cj8gx9b3kmQxTPlHaOjH-135" value="粉色：模块内输入" style="rounded=0;whiteSpace=wrap;html=1;fillColor=#ffcccc;strokeColor=#36393d;" vertex="1" parent="1">
          <mxGeometry x="-525" y="2050" width="105" height="15" as="geometry" />
        </mxCell>
        <mxCell id="Cj8gx9b3kmQxTPlHaOjH-136" value="自身运动状态管理" style="rounded=0;whiteSpace=wrap;html=1;fillColor=#1ba1e2;strokeColor=#006EAF;fontColor=#000000;" vertex="1" parent="1">
          <mxGeometry x="-852.5" y="1860" width="120" height="60" as="geometry" />
        </mxCell>
        <mxCell id="y1RIDx8MNBoXfU2h0qi7-1" value="" style="rounded=0;whiteSpace=wrap;html=1;fillColor=#bac8d3;strokeColor=#23445d;" vertex="1" parent="1">
          <mxGeometry x="-900" y="3217.5" width="1500" height="585" as="geometry" />
        </mxCell>
        <mxCell id="y1RIDx8MNBoXfU2h0qi7-2" value="" style="rounded=0;whiteSpace=wrap;html=1;fillColor=#fad7ac;strokeColor=#b46504;" vertex="1" parent="1">
          <mxGeometry x="132.5" y="3365" width="410" height="375" as="geometry" />
        </mxCell>
        <mxCell id="y1RIDx8MNBoXfU2h0qi7-3" value="" style="rounded=0;whiteSpace=wrap;html=1;fillColor=#fad7ac;strokeColor=#b46504;" vertex="1" parent="1">
          <mxGeometry x="-865" y="3275" width="410" height="470" as="geometry" />
        </mxCell>
        <mxCell id="y1RIDx8MNBoXfU2h0qi7-4" style="edgeStyle=orthogonalEdgeStyle;rounded=0;jumpStyle=arc;orthogonalLoop=1;jettySize=auto;html=1;exitX=1;exitY=0.25;exitDx=0;exitDy=0;strokeColor=#000000;fontColor=#000000;" edge="1" source="y1RIDx8MNBoXfU2h0qi7-6" parent="1">
          <mxGeometry relative="1" as="geometry">
            <mxPoint x="815" y="2543" as="targetPoint" />
          </mxGeometry>
        </mxCell>
        <mxCell id="y1RIDx8MNBoXfU2h0qi7-5" value="障碍物" style="edgeLabel;html=1;align=center;verticalAlign=middle;resizable=0;points=[];fontColor=#000000;" vertex="1" connectable="0" parent="y1RIDx8MNBoXfU2h0qi7-4">
          <mxGeometry x="0.2272" y="3" relative="1" as="geometry">
            <mxPoint x="-27" y="-5" as="offset" />
          </mxGeometry>
        </mxCell>
        <mxCell id="y1RIDx8MNBoXfU2h0qi7-6" value="" style="rounded=0;whiteSpace=wrap;html=1;fillColor=#bac8d3;strokeColor=#23445d;" vertex="1" parent="1">
          <mxGeometry x="-890" y="2320" width="1490" height="890" as="geometry" />
        </mxCell>
        <mxCell id="y1RIDx8MNBoXfU2h0qi7-7" value="" style="rounded=0;whiteSpace=wrap;html=1;fillColor=#fad7ac;strokeColor=#b46504;" vertex="1" parent="1">
          <mxGeometry x="-860" y="2380" width="410" height="820" as="geometry" />
        </mxCell>
        <mxCell id="y1RIDx8MNBoXfU2h0qi7-8" value="" style="rounded=0;whiteSpace=wrap;html=1;fillColor=#fad7ac;strokeColor=#b46504;" vertex="1" parent="1">
          <mxGeometry x="-412" y="2690" width="942" height="420" as="geometry" />
        </mxCell>
        <mxCell id="y1RIDx8MNBoXfU2h0qi7-9" value="" style="rounded=0;whiteSpace=wrap;html=1;fontColor=#000000;" vertex="1" parent="1">
          <mxGeometry y="2760" width="510" height="320" as="geometry" />
        </mxCell>
        <mxCell id="y1RIDx8MNBoXfU2h0qi7-10" style="edgeStyle=orthogonalEdgeStyle;rounded=0;jumpStyle=arc;orthogonalLoop=1;jettySize=auto;html=1;entryX=0;entryY=0.25;entryDx=0;entryDy=0;fontColor=#000000;strokeColor=#000000;" edge="1" source="y1RIDx8MNBoXfU2h0qi7-12" target="y1RIDx8MNBoXfU2h0qi7-64" parent="1">
          <mxGeometry relative="1" as="geometry" />
        </mxCell>
        <mxCell id="y1RIDx8MNBoXfU2h0qi7-11" value="前视感知目标" style="edgeLabel;html=1;align=center;verticalAlign=middle;resizable=0;points=[];fontColor=#000000;" vertex="1" connectable="0" parent="y1RIDx8MNBoXfU2h0qi7-10">
          <mxGeometry x="0.7913" relative="1" as="geometry">
            <mxPoint x="4" y="-8" as="offset" />
          </mxGeometry>
        </mxCell>
        <mxCell id="y1RIDx8MNBoXfU2h0qi7-12" value="" style="rounded=0;whiteSpace=wrap;html=1;" vertex="1" parent="1">
          <mxGeometry x="-840" y="2420" width="290" height="250" as="geometry" />
        </mxCell>
        <mxCell id="y1RIDx8MNBoXfU2h0qi7-13" value="车道" style="rounded=0;whiteSpace=wrap;html=1;fillColor=#e51400;fontColor=#000000;strokeColor=#B20000;" vertex="1" parent="1">
          <mxGeometry x="-830" y="2460" width="120" height="60" as="geometry" />
        </mxCell>
        <mxCell id="y1RIDx8MNBoXfU2h0qi7-14" value="1*前视感知" style="text;html=1;strokeColor=none;fillColor=none;align=center;verticalAlign=middle;whiteSpace=wrap;rounded=0;" vertex="1" parent="1">
          <mxGeometry x="-730" y="2430" width="70" height="30" as="geometry" />
        </mxCell>
        <mxCell id="y1RIDx8MNBoXfU2h0qi7-15" value="障碍物" style="rounded=0;whiteSpace=wrap;html=1;fillColor=#e51400;fontColor=#000000;strokeColor=#B20000;" vertex="1" parent="1">
          <mxGeometry x="-690" y="2460" width="120" height="60" as="geometry" />
        </mxCell>
        <mxCell id="y1RIDx8MNBoXfU2h0qi7-16" value="交通标志" style="rounded=0;whiteSpace=wrap;html=1;fillColor=#e51400;fontColor=#000000;strokeColor=#B20000;" vertex="1" parent="1">
          <mxGeometry x="-830" y="2530" width="120" height="60" as="geometry" />
        </mxCell>
        <mxCell id="y1RIDx8MNBoXfU2h0qi7-17" value="交通灯" style="rounded=0;whiteSpace=wrap;html=1;fillColor=#e51400;fontColor=#000000;strokeColor=#B20000;" vertex="1" parent="1">
          <mxGeometry x="-690" y="2530" width="120" height="60" as="geometry" />
        </mxCell>
        <mxCell id="y1RIDx8MNBoXfU2h0qi7-18" value="路面标识" style="rounded=0;whiteSpace=wrap;html=1;fillColor=#e51400;fontColor=#000000;strokeColor=#B20000;" vertex="1" parent="1">
          <mxGeometry x="-830" y="2600" width="120" height="60" as="geometry" />
        </mxCell>
        <mxCell id="y1RIDx8MNBoXfU2h0qi7-19" value="可通行区域" style="rounded=0;whiteSpace=wrap;html=1;fillColor=#e51400;fontColor=#000000;strokeColor=#B20000;" vertex="1" parent="1">
          <mxGeometry x="-690" y="2600" width="120" height="60" as="geometry" />
        </mxCell>
        <mxCell id="y1RIDx8MNBoXfU2h0qi7-20" style="edgeStyle=orthogonalEdgeStyle;rounded=0;jumpStyle=arc;orthogonalLoop=1;jettySize=auto;html=1;entryX=0;entryY=0.5;entryDx=0;entryDy=0;fontColor=#000000;strokeColor=#000000;" edge="1" source="y1RIDx8MNBoXfU2h0qi7-22" target="y1RIDx8MNBoXfU2h0qi7-64" parent="1">
          <mxGeometry x="0.1039" y="-14" relative="1" as="geometry">
            <Array as="points">
              <mxPoint x="-480" y="2815" />
              <mxPoint x="-480" y="2935" />
            </Array>
            <mxPoint as="offset" />
          </mxGeometry>
        </mxCell>
        <mxCell id="y1RIDx8MNBoXfU2h0qi7-21" value="周视感知目标" style="edgeLabel;html=1;align=center;verticalAlign=middle;resizable=0;points=[];fontColor=#000000;" vertex="1" connectable="0" parent="y1RIDx8MNBoXfU2h0qi7-20">
          <mxGeometry x="0.5161" y="-1" relative="1" as="geometry">
            <mxPoint x="12" y="-11" as="offset" />
          </mxGeometry>
        </mxCell>
        <mxCell id="y1RIDx8MNBoXfU2h0qi7-22" value="" style="rounded=0;whiteSpace=wrap;html=1;" vertex="1" parent="1">
          <mxGeometry x="-840" y="2695" width="290" height="240" as="geometry" />
        </mxCell>
        <mxCell id="y1RIDx8MNBoXfU2h0qi7-23" value="车道" style="rounded=0;whiteSpace=wrap;html=1;fillColor=#e51400;fontColor=#000000;strokeColor=#B20000;" vertex="1" parent="1">
          <mxGeometry x="-830" y="2725" width="120" height="60" as="geometry" />
        </mxCell>
        <mxCell id="y1RIDx8MNBoXfU2h0qi7-24" value="4*周视感知" style="text;html=1;strokeColor=none;fillColor=none;align=center;verticalAlign=middle;whiteSpace=wrap;rounded=0;" vertex="1" parent="1">
          <mxGeometry x="-730" y="2695" width="70" height="30" as="geometry" />
        </mxCell>
        <mxCell id="y1RIDx8MNBoXfU2h0qi7-25" value="障碍物" style="rounded=0;whiteSpace=wrap;html=1;fillColor=#e51400;fontColor=#000000;strokeColor=#B20000;" vertex="1" parent="1">
          <mxGeometry x="-690" y="2725" width="120" height="60" as="geometry" />
        </mxCell>
        <mxCell id="y1RIDx8MNBoXfU2h0qi7-26" value="交通标志" style="rounded=0;whiteSpace=wrap;html=1;fillColor=#e51400;fontColor=#000000;strokeColor=#B20000;" vertex="1" parent="1">
          <mxGeometry x="-830" y="2795" width="120" height="60" as="geometry" />
        </mxCell>
        <mxCell id="y1RIDx8MNBoXfU2h0qi7-27" value="交通灯" style="rounded=0;whiteSpace=wrap;html=1;fillColor=#e51400;fontColor=#000000;strokeColor=#B20000;" vertex="1" parent="1">
          <mxGeometry x="-690" y="2795" width="120" height="60" as="geometry" />
        </mxCell>
        <mxCell id="y1RIDx8MNBoXfU2h0qi7-28" value="路面标识" style="rounded=0;whiteSpace=wrap;html=1;fillColor=#e51400;fontColor=#000000;strokeColor=#B20000;" vertex="1" parent="1">
          <mxGeometry x="-830" y="2865" width="120" height="60" as="geometry" />
        </mxCell>
        <mxCell id="y1RIDx8MNBoXfU2h0qi7-29" value="可通行区域" style="rounded=0;whiteSpace=wrap;html=1;fillColor=#e51400;fontColor=#000000;strokeColor=#B20000;" vertex="1" parent="1">
          <mxGeometry x="-690" y="2865" width="120" height="60" as="geometry" />
        </mxCell>
        <mxCell id="y1RIDx8MNBoXfU2h0qi7-30" style="edgeStyle=orthogonalEdgeStyle;rounded=0;jumpStyle=arc;orthogonalLoop=1;jettySize=auto;html=1;strokeColor=#000000;fontColor=#000000;entryX=-0.011;entryY=0.174;entryDx=0;entryDy=0;entryPerimeter=0;" edge="1" target="y1RIDx8MNBoXfU2h0qi7-79" parent="1">
          <mxGeometry relative="1" as="geometry">
            <mxPoint x="-568" y="3510.028571428571" as="sourcePoint" />
            <mxPoint x="-408" y="3555" as="targetPoint" />
            <Array as="points">
              <mxPoint x="-515" y="3510" />
              <mxPoint x="-515" y="3642" />
            </Array>
          </mxGeometry>
        </mxCell>
        <mxCell id="y1RIDx8MNBoXfU2h0qi7-31" value="环视障碍物" style="edgeLabel;html=1;align=center;verticalAlign=middle;resizable=0;points=[];fontColor=#000000;" vertex="1" connectable="0" parent="y1RIDx8MNBoXfU2h0qi7-30">
          <mxGeometry x="0.5063" y="-1" relative="1" as="geometry">
            <mxPoint x="182" y="-13" as="offset" />
          </mxGeometry>
        </mxCell>
        <mxCell id="y1RIDx8MNBoXfU2h0qi7-32" style="edgeStyle=orthogonalEdgeStyle;rounded=0;jumpStyle=arc;orthogonalLoop=1;jettySize=auto;html=1;entryX=0;entryY=0.5;entryDx=0;entryDy=0;strokeColor=#000000;fontColor=#000000;" edge="1" source="y1RIDx8MNBoXfU2h0qi7-34" target="y1RIDx8MNBoXfU2h0qi7-84" parent="1">
          <mxGeometry relative="1" as="geometry">
            <Array as="points">
              <mxPoint x="-525" y="3510" />
              <mxPoint x="-525" y="3495" />
            </Array>
          </mxGeometry>
        </mxCell>
        <mxCell id="y1RIDx8MNBoXfU2h0qi7-33" value="视觉车位" style="edgeLabel;html=1;align=center;verticalAlign=middle;resizable=0;points=[];fontColor=#000000;" vertex="1" connectable="0" parent="y1RIDx8MNBoXfU2h0qi7-32">
          <mxGeometry x="0.5938" y="1" relative="1" as="geometry">
            <mxPoint x="114" y="-9" as="offset" />
          </mxGeometry>
        </mxCell>
        <mxCell id="y1RIDx8MNBoXfU2h0qi7-34" value="" style="rounded=0;whiteSpace=wrap;html=1;" vertex="1" parent="1">
          <mxGeometry x="-845" y="3425" width="290" height="170" as="geometry" />
        </mxCell>
        <mxCell id="y1RIDx8MNBoXfU2h0qi7-35" value="障碍物" style="rounded=0;whiteSpace=wrap;html=1;fillColor=#e51400;fontColor=#000000;strokeColor=#B20000;" vertex="1" parent="1">
          <mxGeometry x="-835" y="3455" width="120" height="60" as="geometry" />
        </mxCell>
        <mxCell id="y1RIDx8MNBoXfU2h0qi7-36" value="4*鱼眼感知" style="text;html=1;strokeColor=none;fillColor=none;align=center;verticalAlign=middle;whiteSpace=wrap;rounded=0;" vertex="1" parent="1">
          <mxGeometry x="-735" y="3425" width="70" height="30" as="geometry" />
        </mxCell>
        <mxCell id="y1RIDx8MNBoXfU2h0qi7-37" value="视觉车位" style="rounded=0;whiteSpace=wrap;html=1;fillColor=#e51400;fontColor=#000000;strokeColor=#B20000;" vertex="1" parent="1">
          <mxGeometry x="-695" y="3455" width="120" height="60" as="geometry" />
        </mxCell>
        <mxCell id="y1RIDx8MNBoXfU2h0qi7-38" value="AVM" style="rounded=0;whiteSpace=wrap;html=1;fillColor=#e51400;fontColor=#000000;strokeColor=#B20000;" vertex="1" parent="1">
          <mxGeometry x="-835" y="3525" width="120" height="60" as="geometry" />
        </mxCell>
        <mxCell id="y1RIDx8MNBoXfU2h0qi7-39" style="edgeStyle=orthogonalEdgeStyle;rounded=0;jumpStyle=arc;orthogonalLoop=1;jettySize=auto;html=1;entryX=0;entryY=0.5;entryDx=0;entryDy=0;strokeColor=#000000;fontColor=#000000;" edge="1" source="y1RIDx8MNBoXfU2h0qi7-41" target="y1RIDx8MNBoXfU2h0qi7-9" parent="1">
          <mxGeometry relative="1" as="geometry">
            <Array as="points">
              <mxPoint x="-500" y="3005" />
              <mxPoint x="-500" y="3120" />
              <mxPoint x="-70" y="3120" />
              <mxPoint x="-70" y="2920" />
            </Array>
          </mxGeometry>
        </mxCell>
        <mxCell id="y1RIDx8MNBoXfU2h0qi7-40" value="前雷达障碍物" style="edgeLabel;html=1;align=center;verticalAlign=middle;resizable=0;points=[];fontColor=#000000;" vertex="1" connectable="0" parent="y1RIDx8MNBoXfU2h0qi7-39">
          <mxGeometry x="0.9013" y="2" relative="1" as="geometry">
            <mxPoint x="2" y="-8" as="offset" />
          </mxGeometry>
        </mxCell>
        <mxCell id="y1RIDx8MNBoXfU2h0qi7-41" value="" style="rounded=0;whiteSpace=wrap;html=1;" vertex="1" parent="1">
          <mxGeometry x="-837.5" y="2955" width="290" height="100" as="geometry" />
        </mxCell>
        <mxCell id="y1RIDx8MNBoXfU2h0qi7-42" value="障碍物" style="rounded=0;whiteSpace=wrap;html=1;fillColor=#e51400;fontColor=#000000;strokeColor=#B20000;" vertex="1" parent="1">
          <mxGeometry x="-747.5" y="2985" width="120" height="60" as="geometry" />
        </mxCell>
        <mxCell id="y1RIDx8MNBoXfU2h0qi7-43" value="1*前毫米波雷达感知" style="text;html=1;strokeColor=none;fillColor=none;align=center;verticalAlign=middle;whiteSpace=wrap;rounded=0;" vertex="1" parent="1">
          <mxGeometry x="-742.5" y="2955" width="115" height="30" as="geometry" />
        </mxCell>
        <mxCell id="y1RIDx8MNBoXfU2h0qi7-44" style="edgeStyle=orthogonalEdgeStyle;rounded=0;jumpStyle=arc;orthogonalLoop=1;jettySize=auto;html=1;entryX=0;entryY=0.75;entryDx=0;entryDy=0;strokeColor=#000000;fontColor=#000000;" edge="1" source="y1RIDx8MNBoXfU2h0qi7-46" target="y1RIDx8MNBoXfU2h0qi7-9" parent="1">
          <mxGeometry relative="1" as="geometry">
            <Array as="points">
              <mxPoint x="-60" y="3170" />
              <mxPoint x="-60" y="3000" />
            </Array>
          </mxGeometry>
        </mxCell>
        <mxCell id="y1RIDx8MNBoXfU2h0qi7-45" value="角雷达障碍物" style="edgeLabel;html=1;align=center;verticalAlign=middle;resizable=0;points=[];fontColor=#000000;" vertex="1" connectable="0" parent="y1RIDx8MNBoXfU2h0qi7-44">
          <mxGeometry x="0.8754" y="3" relative="1" as="geometry">
            <mxPoint x="2" y="-7" as="offset" />
          </mxGeometry>
        </mxCell>
        <mxCell id="y1RIDx8MNBoXfU2h0qi7-46" value="" style="rounded=0;whiteSpace=wrap;html=1;" vertex="1" parent="1">
          <mxGeometry x="-837.5" y="3085" width="290" height="100" as="geometry" />
        </mxCell>
        <mxCell id="y1RIDx8MNBoXfU2h0qi7-47" value="障碍物" style="rounded=0;whiteSpace=wrap;html=1;fillColor=#e51400;fontColor=#000000;strokeColor=#B20000;" vertex="1" parent="1">
          <mxGeometry x="-747.5" y="3115" width="120" height="60" as="geometry" />
        </mxCell>
        <mxCell id="y1RIDx8MNBoXfU2h0qi7-48" value="4*角毫米波雷达感知" style="text;html=1;strokeColor=none;fillColor=none;align=center;verticalAlign=middle;whiteSpace=wrap;rounded=0;" vertex="1" parent="1">
          <mxGeometry x="-742.5" y="3085" width="125" height="30" as="geometry" />
        </mxCell>
        <mxCell id="y1RIDx8MNBoXfU2h0qi7-49" style="edgeStyle=orthogonalEdgeStyle;rounded=0;jumpStyle=arc;orthogonalLoop=1;jettySize=auto;html=1;entryX=0.001;entryY=0.204;entryDx=0;entryDy=0;strokeColor=#000000;fontColor=#000000;entryPerimeter=0;" edge="1" source="y1RIDx8MNBoXfU2h0qi7-51" target="y1RIDx8MNBoXfU2h0qi7-84" parent="1">
          <mxGeometry x="-0.5413" y="-40" relative="1" as="geometry">
            <Array as="points">
              <mxPoint x="-535" y="3365" />
              <mxPoint x="-535" y="3465" />
            </Array>
            <mxPoint as="offset" />
          </mxGeometry>
        </mxCell>
        <mxCell id="y1RIDx8MNBoXfU2h0qi7-50" value="空间车位" style="edgeLabel;html=1;align=center;verticalAlign=middle;resizable=0;points=[];fontColor=#000000;" vertex="1" connectable="0" parent="y1RIDx8MNBoXfU2h0qi7-49">
          <mxGeometry x="0.3715" y="1" relative="1" as="geometry">
            <mxPoint x="232" y="-9" as="offset" />
          </mxGeometry>
        </mxCell>
        <mxCell id="y1RIDx8MNBoXfU2h0qi7-51" value="" style="rounded=0;whiteSpace=wrap;html=1;" vertex="1" parent="1">
          <mxGeometry x="-845" y="3315" width="290" height="100" as="geometry" />
        </mxCell>
        <mxCell id="y1RIDx8MNBoXfU2h0qi7-52" value="障碍物" style="rounded=0;whiteSpace=wrap;html=1;fillColor=#e51400;fontColor=#000000;strokeColor=#B20000;" vertex="1" parent="1">
          <mxGeometry x="-835" y="3345" width="120" height="60" as="geometry" />
        </mxCell>
        <mxCell id="y1RIDx8MNBoXfU2h0qi7-53" value="12超声波雷达感知" style="text;html=1;strokeColor=none;fillColor=none;align=center;verticalAlign=middle;whiteSpace=wrap;rounded=0;" vertex="1" parent="1">
          <mxGeometry x="-750" y="3315" width="105" height="30" as="geometry" />
        </mxCell>
        <mxCell id="y1RIDx8MNBoXfU2h0qi7-54" value="空间车位" style="rounded=0;whiteSpace=wrap;html=1;fillColor=#e51400;fontColor=#000000;strokeColor=#B20000;" vertex="1" parent="1">
          <mxGeometry x="-695" y="3345" width="120" height="60" as="geometry" />
        </mxCell>
        <mxCell id="y1RIDx8MNBoXfU2h0qi7-55" style="edgeStyle=orthogonalEdgeStyle;rounded=0;jumpStyle=arc;orthogonalLoop=1;jettySize=auto;html=1;entryX=0.5;entryY=0;entryDx=0;entryDy=0;fontColor=#000000;" edge="1" source="y1RIDx8MNBoXfU2h0qi7-56" target="y1RIDx8MNBoXfU2h0qi7-9" parent="1">
          <mxGeometry relative="1" as="geometry" />
        </mxCell>
        <mxCell id="y1RIDx8MNBoXfU2h0qi7-56" value="" style="rounded=0;whiteSpace=wrap;html=1;" vertex="1" parent="1">
          <mxGeometry x="110" y="2450" width="290" height="170" as="geometry" />
        </mxCell>
        <mxCell id="y1RIDx8MNBoXfU2h0qi7-57" value="车道" style="rounded=0;whiteSpace=wrap;html=1;fillColor=#e51400;fontColor=#000000;strokeColor=#B20000;" vertex="1" parent="1">
          <mxGeometry x="120" y="2480" width="120" height="60" as="geometry" />
        </mxCell>
        <mxCell id="y1RIDx8MNBoXfU2h0qi7-58" value="高精度地图" style="text;html=1;strokeColor=none;fillColor=none;align=center;verticalAlign=middle;whiteSpace=wrap;rounded=0;" vertex="1" parent="1">
          <mxGeometry x="230" y="2450" width="70" height="30" as="geometry" />
        </mxCell>
        <mxCell id="y1RIDx8MNBoXfU2h0qi7-59" value="交通标志" style="rounded=0;whiteSpace=wrap;html=1;fillColor=#e51400;fontColor=#000000;strokeColor=#B20000;" vertex="1" parent="1">
          <mxGeometry x="120" y="2550" width="120" height="60" as="geometry" />
        </mxCell>
        <mxCell id="y1RIDx8MNBoXfU2h0qi7-60" value="交通灯" style="rounded=0;whiteSpace=wrap;html=1;fillColor=#e51400;fontColor=#000000;strokeColor=#B20000;" vertex="1" parent="1">
          <mxGeometry x="265" y="2480" width="120" height="60" as="geometry" />
        </mxCell>
        <mxCell id="y1RIDx8MNBoXfU2h0qi7-61" value="路面标识" style="rounded=0;whiteSpace=wrap;html=1;fillColor=#e51400;fontColor=#000000;strokeColor=#B20000;" vertex="1" parent="1">
          <mxGeometry x="265" y="2550" width="120" height="60" as="geometry" />
        </mxCell>
        <mxCell id="y1RIDx8MNBoXfU2h0qi7-62" style="edgeStyle=orthogonalEdgeStyle;rounded=0;jumpStyle=arc;orthogonalLoop=1;jettySize=auto;html=1;fontColor=#000000;entryX=0;entryY=0.25;entryDx=0;entryDy=0;strokeColor=#000000;" edge="1" source="y1RIDx8MNBoXfU2h0qi7-64" target="y1RIDx8MNBoXfU2h0qi7-9" parent="1">
          <mxGeometry relative="1" as="geometry">
            <Array as="points">
              <mxPoint x="-80" y="2935" />
              <mxPoint x="-80" y="2840" />
            </Array>
          </mxGeometry>
        </mxCell>
        <mxCell id="y1RIDx8MNBoXfU2h0qi7-63" value="融合视觉目标" style="edgeLabel;html=1;align=center;verticalAlign=middle;resizable=0;points=[];fontColor=#000000;" vertex="1" connectable="0" parent="y1RIDx8MNBoXfU2h0qi7-62">
          <mxGeometry x="0.4674" y="-5" relative="1" as="geometry">
            <mxPoint x="7" y="-15" as="offset" />
          </mxGeometry>
        </mxCell>
        <mxCell id="y1RIDx8MNBoXfU2h0qi7-64" value="" style="rounded=0;whiteSpace=wrap;html=1;" vertex="1" parent="1">
          <mxGeometry x="-382.5" y="2810" width="290" height="250" as="geometry" />
        </mxCell>
        <mxCell id="y1RIDx8MNBoXfU2h0qi7-65" value="车道" style="rounded=0;whiteSpace=wrap;html=1;fillColor=#e51400;fontColor=#000000;strokeColor=#B20000;" vertex="1" parent="1">
          <mxGeometry x="-372.5" y="2850" width="120" height="60" as="geometry" />
        </mxCell>
        <mxCell id="y1RIDx8MNBoXfU2h0qi7-66" value="行车视觉融合" style="text;html=1;strokeColor=none;fillColor=none;align=center;verticalAlign=middle;whiteSpace=wrap;rounded=0;" vertex="1" parent="1">
          <mxGeometry x="-277.5" y="2820" width="102.5" height="30" as="geometry" />
        </mxCell>
        <mxCell id="y1RIDx8MNBoXfU2h0qi7-67" value="障碍物" style="rounded=0;whiteSpace=wrap;html=1;fillColor=#e51400;fontColor=#000000;strokeColor=#B20000;" vertex="1" parent="1">
          <mxGeometry x="-232.5" y="2850" width="120" height="60" as="geometry" />
        </mxCell>
        <mxCell id="y1RIDx8MNBoXfU2h0qi7-68" value="交通标志" style="rounded=0;whiteSpace=wrap;html=1;fillColor=#e51400;fontColor=#000000;strokeColor=#B20000;" vertex="1" parent="1">
          <mxGeometry x="-372.5" y="2920" width="120" height="60" as="geometry" />
        </mxCell>
        <mxCell id="y1RIDx8MNBoXfU2h0qi7-69" value="交通灯" style="rounded=0;whiteSpace=wrap;html=1;fillColor=#e51400;fontColor=#000000;strokeColor=#B20000;" vertex="1" parent="1">
          <mxGeometry x="-232.5" y="2920" width="120" height="60" as="geometry" />
        </mxCell>
        <mxCell id="y1RIDx8MNBoXfU2h0qi7-70" value="路面标识" style="rounded=0;whiteSpace=wrap;html=1;fillColor=#e51400;fontColor=#000000;strokeColor=#B20000;" vertex="1" parent="1">
          <mxGeometry x="-372.5" y="2990" width="120" height="60" as="geometry" />
        </mxCell>
        <mxCell id="y1RIDx8MNBoXfU2h0qi7-71" value="可通行区域" style="rounded=0;whiteSpace=wrap;html=1;fillColor=#e51400;fontColor=#000000;strokeColor=#B20000;" vertex="1" parent="1">
          <mxGeometry x="-232.5" y="2990" width="120" height="60" as="geometry" />
        </mxCell>
        <mxCell id="y1RIDx8MNBoXfU2h0qi7-72" value="" style="rounded=0;whiteSpace=wrap;html=1;" vertex="1" parent="1">
          <mxGeometry x="20" y="2810" width="275" height="250" as="geometry" />
        </mxCell>
        <mxCell id="y1RIDx8MNBoXfU2h0qi7-73" value="车道" style="rounded=0;whiteSpace=wrap;html=1;fillColor=#e51400;fontColor=#000000;strokeColor=#B20000;" vertex="1" parent="1">
          <mxGeometry x="30" y="2840" width="120" height="60" as="geometry" />
        </mxCell>
        <mxCell id="y1RIDx8MNBoXfU2h0qi7-74" value="行车视觉+地图融合" style="text;html=1;strokeColor=none;fillColor=none;align=center;verticalAlign=middle;whiteSpace=wrap;rounded=0;" vertex="1" parent="1">
          <mxGeometry x="120" y="2810" width="125" height="30" as="geometry" />
        </mxCell>
        <mxCell id="y1RIDx8MNBoXfU2h0qi7-75" value="交通标志" style="rounded=0;whiteSpace=wrap;html=1;fillColor=#e51400;fontColor=#000000;strokeColor=#B20000;" vertex="1" parent="1">
          <mxGeometry x="30" y="2910" width="120" height="60" as="geometry" />
        </mxCell>
        <mxCell id="y1RIDx8MNBoXfU2h0qi7-76" value="交通灯" style="rounded=0;whiteSpace=wrap;html=1;fillColor=#e51400;fontColor=#000000;strokeColor=#B20000;" vertex="1" parent="1">
          <mxGeometry x="170" y="2910" width="120" height="60" as="geometry" />
        </mxCell>
        <mxCell id="y1RIDx8MNBoXfU2h0qi7-77" value="路面标识" style="rounded=0;whiteSpace=wrap;html=1;fillColor=#e51400;fontColor=#000000;strokeColor=#B20000;" vertex="1" parent="1">
          <mxGeometry x="170" y="2845" width="120" height="60" as="geometry" />
        </mxCell>
        <mxCell id="y1RIDx8MNBoXfU2h0qi7-78" value="可通行区域" style="rounded=0;whiteSpace=wrap;html=1;fillColor=#e51400;fontColor=#000000;strokeColor=#B20000;" vertex="1" parent="1">
          <mxGeometry x="30" y="2980" width="120" height="60" as="geometry" />
        </mxCell>
        <mxCell id="y1RIDx8MNBoXfU2h0qi7-79" value="" style="rounded=0;whiteSpace=wrap;html=1;" vertex="1" parent="1">
          <mxGeometry x="247.5" y="3625" width="170" height="100" as="geometry" />
        </mxCell>
        <mxCell id="y1RIDx8MNBoXfU2h0qi7-80" style="edgeStyle=orthogonalEdgeStyle;rounded=0;jumpStyle=arc;orthogonalLoop=1;jettySize=auto;html=1;strokeColor=#000000;fontColor=#000000;" edge="1" source="y1RIDx8MNBoXfU2h0qi7-82" target="y1RIDx8MNBoXfU2h0qi7-84" parent="1">
          <mxGeometry relative="1" as="geometry">
            <Array as="points">
              <mxPoint x="332.5" y="3595" />
              <mxPoint x="332.5" y="3595" />
            </Array>
          </mxGeometry>
        </mxCell>
        <mxCell id="y1RIDx8MNBoXfU2h0qi7-81" value="泊车融合障碍物" style="edgeLabel;html=1;align=center;verticalAlign=middle;resizable=0;points=[];fontColor=#000000;" vertex="1" connectable="0" parent="y1RIDx8MNBoXfU2h0qi7-80">
          <mxGeometry x="0.2745" y="-1" relative="1" as="geometry">
            <mxPoint as="offset" />
          </mxGeometry>
        </mxCell>
        <mxCell id="y1RIDx8MNBoXfU2h0qi7-82" value="泊车障碍物融合" style="text;html=1;strokeColor=none;fillColor=none;align=center;verticalAlign=middle;whiteSpace=wrap;rounded=0;" vertex="1" parent="1">
          <mxGeometry x="288.75" y="3625" width="102.5" height="30" as="geometry" />
        </mxCell>
        <mxCell id="y1RIDx8MNBoXfU2h0qi7-83" value="障碍物" style="rounded=0;whiteSpace=wrap;html=1;fillColor=#e51400;fontColor=#000000;strokeColor=#B20000;" vertex="1" parent="1">
          <mxGeometry x="277.5" y="3655" width="120" height="60" as="geometry" />
        </mxCell>
        <mxCell id="y1RIDx8MNBoXfU2h0qi7-84" value="" style="rounded=0;whiteSpace=wrap;html=1;" vertex="1" parent="1">
          <mxGeometry x="260" y="3445" width="170" height="100" as="geometry" />
        </mxCell>
        <mxCell id="y1RIDx8MNBoXfU2h0qi7-85" value="泊车车位融合" style="text;html=1;strokeColor=none;fillColor=none;align=center;verticalAlign=middle;whiteSpace=wrap;rounded=0;" vertex="1" parent="1">
          <mxGeometry x="293.75" y="3445" width="102.5" height="30" as="geometry" />
        </mxCell>
        <mxCell id="y1RIDx8MNBoXfU2h0qi7-86" value="融合车位" style="rounded=0;whiteSpace=wrap;html=1;fillColor=#e51400;fontColor=#000000;strokeColor=#B20000;" vertex="1" parent="1">
          <mxGeometry x="282.5" y="3475" width="120" height="60" as="geometry" />
        </mxCell>
        <mxCell id="y1RIDx8MNBoXfU2h0qi7-87" value="" style="rounded=0;whiteSpace=wrap;html=1;" vertex="1" parent="1">
          <mxGeometry x="335" y="2810" width="140" height="120" as="geometry" />
        </mxCell>
        <mxCell id="y1RIDx8MNBoXfU2h0qi7-88" value="障碍物" style="rounded=0;whiteSpace=wrap;html=1;fillColor=#e51400;fontColor=#000000;strokeColor=#B20000;" vertex="1" parent="1">
          <mxGeometry x="345" y="2850" width="120" height="60" as="geometry" />
        </mxCell>
        <mxCell id="y1RIDx8MNBoXfU2h0qi7-89" value="行车障碍物融合" style="text;html=1;strokeColor=none;fillColor=none;align=center;verticalAlign=middle;whiteSpace=wrap;rounded=0;" vertex="1" parent="1">
          <mxGeometry x="342.5" y="2815" width="125" height="30" as="geometry" />
        </mxCell>
        <mxCell id="y1RIDx8MNBoXfU2h0qi7-90" value="雷达+视觉+地图融合" style="text;html=1;strokeColor=none;fillColor=none;align=center;verticalAlign=middle;whiteSpace=wrap;rounded=0;fontColor=#000000;" vertex="1" parent="1">
          <mxGeometry x="197.5" y="2770" width="115" height="30" as="geometry" />
        </mxCell>
        <mxCell id="y1RIDx8MNBoXfU2h0qi7-91" value="行车融合" style="text;html=1;strokeColor=none;fillColor=none;align=center;verticalAlign=middle;whiteSpace=wrap;rounded=0;fontColor=#000000;" vertex="1" parent="1">
          <mxGeometry x="-5" y="2695" width="60" height="30" as="geometry" />
        </mxCell>
        <mxCell id="y1RIDx8MNBoXfU2h0qi7-92" value="行车感知" style="text;html=1;strokeColor=none;fillColor=none;align=center;verticalAlign=middle;whiteSpace=wrap;rounded=0;fontColor=#000000;" vertex="1" parent="1">
          <mxGeometry x="-710" y="2380" width="60" height="30" as="geometry" />
        </mxCell>
        <mxCell id="y1RIDx8MNBoXfU2h0qi7-93" style="edgeStyle=orthogonalEdgeStyle;rounded=0;jumpStyle=arc;orthogonalLoop=1;jettySize=auto;html=1;entryX=0;entryY=0.706;entryDx=0;entryDy=0;strokeColor=#000000;fontColor=#000000;entryPerimeter=0;" edge="1" target="y1RIDx8MNBoXfU2h0qi7-79" parent="1">
          <mxGeometry relative="1" as="geometry">
            <mxPoint x="-597.5100000000002" y="3660.028571428571" as="sourcePoint" />
            <mxPoint x="204.99" y="3700" as="targetPoint" />
            <Array as="points">
              <mxPoint x="-495" y="3660" />
              <mxPoint x="-495" y="3695" />
              <mxPoint x="206" y="3695" />
            </Array>
          </mxGeometry>
        </mxCell>
        <mxCell id="y1RIDx8MNBoXfU2h0qi7-94" value="前视障碍物" style="edgeLabel;html=1;align=center;verticalAlign=middle;resizable=0;points=[];fontColor=#000000;" vertex="1" connectable="0" parent="y1RIDx8MNBoXfU2h0qi7-93">
          <mxGeometry x="0.7555" y="-3" relative="1" as="geometry">
            <mxPoint x="55" y="-13" as="offset" />
          </mxGeometry>
        </mxCell>
        <mxCell id="y1RIDx8MNBoXfU2h0qi7-95" style="edgeStyle=orthogonalEdgeStyle;rounded=0;jumpStyle=arc;orthogonalLoop=1;jettySize=auto;html=1;entryX=0;entryY=0.75;entryDx=0;entryDy=0;strokeColor=#000000;fontColor=#000000;" edge="1" source="y1RIDx8MNBoXfU2h0qi7-97" target="y1RIDx8MNBoXfU2h0qi7-84" parent="1">
          <mxGeometry relative="1" as="geometry">
            <Array as="points">
              <mxPoint x="-505" y="3660" />
              <mxPoint x="-505" y="3520" />
            </Array>
          </mxGeometry>
        </mxCell>
        <mxCell id="y1RIDx8MNBoXfU2h0qi7-96" value="可通行区域" style="edgeLabel;html=1;align=center;verticalAlign=middle;resizable=0;points=[];fontColor=#000000;" vertex="1" connectable="0" parent="y1RIDx8MNBoXfU2h0qi7-95">
          <mxGeometry x="0.8593" y="1" relative="1" as="geometry">
            <mxPoint x="17" y="-9" as="offset" />
          </mxGeometry>
        </mxCell>
        <mxCell id="y1RIDx8MNBoXfU2h0qi7-97" value="" style="rounded=0;whiteSpace=wrap;html=1;" vertex="1" parent="1">
          <mxGeometry x="-845" y="3605" width="290" height="110" as="geometry" />
        </mxCell>
        <mxCell id="y1RIDx8MNBoXfU2h0qi7-98" value="可通行区域" style="rounded=0;whiteSpace=wrap;html=1;fillColor=#e51400;fontColor=#000000;strokeColor=#B20000;" vertex="1" parent="1">
          <mxGeometry x="-835" y="3645" width="120" height="60" as="geometry" />
        </mxCell>
        <mxCell id="y1RIDx8MNBoXfU2h0qi7-99" value="1*前视感知" style="text;html=1;strokeColor=none;fillColor=none;align=center;verticalAlign=middle;whiteSpace=wrap;rounded=0;" vertex="1" parent="1">
          <mxGeometry x="-735" y="3615" width="70" height="30" as="geometry" />
        </mxCell>
        <mxCell id="y1RIDx8MNBoXfU2h0qi7-100" value="障碍物" style="rounded=0;whiteSpace=wrap;html=1;fillColor=#e51400;fontColor=#000000;strokeColor=#B20000;" vertex="1" parent="1">
          <mxGeometry x="-695" y="3645" width="120" height="60" as="geometry" />
        </mxCell>
        <mxCell id="y1RIDx8MNBoXfU2h0qi7-101" value="行车感知融合" style="text;html=1;strokeColor=none;fillColor=none;align=center;verticalAlign=middle;whiteSpace=wrap;rounded=0;fontColor=#000000;" vertex="1" parent="1">
          <mxGeometry x="-172" y="2330" width="92" height="30" as="geometry" />
        </mxCell>
        <mxCell id="y1RIDx8MNBoXfU2h0qi7-102" value="泊车感知" style="text;html=1;strokeColor=none;fillColor=none;align=center;verticalAlign=middle;whiteSpace=wrap;rounded=0;fontColor=#000000;" vertex="1" parent="1">
          <mxGeometry x="-720" y="3275" width="60" height="30" as="geometry" />
        </mxCell>
        <mxCell id="y1RIDx8MNBoXfU2h0qi7-103" value="泊车融合" style="text;html=1;strokeColor=none;fillColor=none;align=center;verticalAlign=middle;whiteSpace=wrap;rounded=0;fontColor=#000000;" vertex="1" parent="1">
          <mxGeometry x="310" y="3375" width="60" height="30" as="geometry" />
        </mxCell>
        <mxCell id="y1RIDx8MNBoXfU2h0qi7-104" value="泊车感知融合" style="text;html=1;strokeColor=none;fillColor=none;align=center;verticalAlign=middle;whiteSpace=wrap;rounded=0;fontColor=#000000;" vertex="1" parent="1">
          <mxGeometry x="220" y="3270" width="120" height="30" as="geometry" />
        </mxCell>
        <mxCell id="y1RIDx8MNBoXfU2h0qi7-105" value="行泊感知融合" style="text;html=1;strokeColor=none;fillColor=none;align=center;verticalAlign=middle;whiteSpace=wrap;rounded=0;fontColor=#000000;" vertex="1" parent="1">
          <mxGeometry x="-196" y="2270" width="130" height="30" as="geometry" />
        </mxCell>
        <mxCell id="y1RIDx8MNBoXfU2h0qi7-106" style="edgeStyle=orthogonalEdgeStyle;rounded=0;jumpStyle=arc;orthogonalLoop=1;jettySize=auto;html=1;exitX=1;exitY=0.331;exitDx=0;exitDy=0;strokeColor=#000000;fontColor=#000000;exitPerimeter=0;" edge="1" source="y1RIDx8MNBoXfU2h0qi7-6" parent="1">
          <mxGeometry relative="1" as="geometry">
            <mxPoint x="815" y="2615.000000000001" as="targetPoint" />
            <mxPoint x="635" y="2619.5" as="sourcePoint" />
          </mxGeometry>
        </mxCell>
        <mxCell id="y1RIDx8MNBoXfU2h0qi7-107" value="车道" style="edgeLabel;html=1;align=center;verticalAlign=middle;resizable=0;points=[];fontColor=#000000;" vertex="1" connectable="0" parent="y1RIDx8MNBoXfU2h0qi7-106">
          <mxGeometry x="0.2272" y="3" relative="1" as="geometry">
            <mxPoint x="-31" y="-7" as="offset" />
          </mxGeometry>
        </mxCell>
        <mxCell id="y1RIDx8MNBoXfU2h0qi7-108" style="edgeStyle=orthogonalEdgeStyle;rounded=0;jumpStyle=arc;orthogonalLoop=1;jettySize=auto;html=1;exitX=1;exitY=0.389;exitDx=0;exitDy=0;strokeColor=#000000;fontColor=#000000;exitPerimeter=0;" edge="1" source="y1RIDx8MNBoXfU2h0qi7-6" parent="1">
          <mxGeometry relative="1" as="geometry">
            <mxPoint x="815" y="2666" as="targetPoint" />
            <mxPoint x="610" y="2624.5899999999997" as="sourcePoint" />
          </mxGeometry>
        </mxCell>
        <mxCell id="y1RIDx8MNBoXfU2h0qi7-109" value="交通标志" style="edgeLabel;html=1;align=center;verticalAlign=middle;resizable=0;points=[];fontColor=#000000;" vertex="1" connectable="0" parent="y1RIDx8MNBoXfU2h0qi7-108">
          <mxGeometry x="0.2272" y="3" relative="1" as="geometry">
            <mxPoint x="-31" y="-7" as="offset" />
          </mxGeometry>
        </mxCell>
        <mxCell id="y1RIDx8MNBoXfU2h0qi7-110" style="edgeStyle=orthogonalEdgeStyle;rounded=0;jumpStyle=arc;orthogonalLoop=1;jettySize=auto;html=1;strokeColor=#000000;fontColor=#000000;exitX=1;exitY=0.45;exitDx=0;exitDy=0;exitPerimeter=0;" edge="1" source="y1RIDx8MNBoXfU2h0qi7-6" parent="1">
          <mxGeometry relative="1" as="geometry">
            <mxPoint x="815" y="2720.000000000001" as="targetPoint" />
            <mxPoint x="645" y="2720" as="sourcePoint" />
          </mxGeometry>
        </mxCell>
        <mxCell id="y1RIDx8MNBoXfU2h0qi7-111" value="路面标识" style="edgeLabel;html=1;align=center;verticalAlign=middle;resizable=0;points=[];fontColor=#000000;" vertex="1" connectable="0" parent="y1RIDx8MNBoXfU2h0qi7-110">
          <mxGeometry x="0.2272" y="3" relative="1" as="geometry">
            <mxPoint x="-31" y="-7" as="offset" />
          </mxGeometry>
        </mxCell>
        <mxCell id="y1RIDx8MNBoXfU2h0qi7-112" style="edgeStyle=orthogonalEdgeStyle;rounded=0;jumpStyle=arc;orthogonalLoop=1;jettySize=auto;html=1;strokeColor=#000000;fontColor=#000000;exitX=0.999;exitY=0.527;exitDx=0;exitDy=0;exitPerimeter=0;" edge="1" source="y1RIDx8MNBoXfU2h0qi7-6" parent="1">
          <mxGeometry relative="1" as="geometry">
            <mxPoint x="815" y="2790.000000000001" as="targetPoint" />
            <mxPoint x="609.9999999999995" y="2730.5" as="sourcePoint" />
          </mxGeometry>
        </mxCell>
        <mxCell id="y1RIDx8MNBoXfU2h0qi7-113" value="红绿灯" style="edgeLabel;html=1;align=center;verticalAlign=middle;resizable=0;points=[];fontColor=#000000;" vertex="1" connectable="0" parent="y1RIDx8MNBoXfU2h0qi7-112">
          <mxGeometry x="0.2272" y="3" relative="1" as="geometry">
            <mxPoint x="-31" y="-7" as="offset" />
          </mxGeometry>
        </mxCell>
        <mxCell id="y1RIDx8MNBoXfU2h0qi7-114" style="edgeStyle=orthogonalEdgeStyle;rounded=0;jumpStyle=arc;orthogonalLoop=1;jettySize=auto;html=1;strokeColor=#000000;fontColor=#000000;exitX=1;exitY=0.605;exitDx=0;exitDy=0;exitPerimeter=0;" edge="1" source="y1RIDx8MNBoXfU2h0qi7-6" parent="1">
          <mxGeometry relative="1" as="geometry">
            <mxPoint x="815" y="2860.000000000001" as="targetPoint" />
            <mxPoint x="608.5099999999998" y="2799.03" as="sourcePoint" />
            <Array as="points">
              <mxPoint x="702" y="2859" />
              <mxPoint x="805" y="2859" />
            </Array>
          </mxGeometry>
        </mxCell>
        <mxCell id="y1RIDx8MNBoXfU2h0qi7-115" value="可行驶区域" style="edgeLabel;html=1;align=center;verticalAlign=middle;resizable=0;points=[];fontColor=#000000;" vertex="1" connectable="0" parent="y1RIDx8MNBoXfU2h0qi7-114">
          <mxGeometry x="0.2272" y="3" relative="1" as="geometry">
            <mxPoint x="-20" y="-12" as="offset" />
          </mxGeometry>
        </mxCell>
        <mxCell id="y1RIDx8MNBoXfU2h0qi7-116" value="" style="endArrow=classic;html=1;rounded=0;strokeColor=#000000;fontColor=#000000;jumpStyle=arc;exitX=1;exitY=0.449;exitDx=0;exitDy=0;exitPerimeter=0;" edge="1" source="y1RIDx8MNBoXfU2h0qi7-1" parent="1">
          <mxGeometry width="50" height="50" relative="1" as="geometry">
            <mxPoint x="675" y="3580" as="sourcePoint" />
            <mxPoint x="815" y="3480" as="targetPoint" />
          </mxGeometry>
        </mxCell>
        <mxCell id="y1RIDx8MNBoXfU2h0qi7-117" value="融合视觉障碍物" style="edgeLabel;html=1;align=center;verticalAlign=middle;resizable=0;points=[];fontColor=#000000;" vertex="1" connectable="0" parent="y1RIDx8MNBoXfU2h0qi7-116">
          <mxGeometry x="0.2857" y="2" relative="1" as="geometry">
            <mxPoint y="-8" as="offset" />
          </mxGeometry>
        </mxCell>
        <mxCell id="y1RIDx8MNBoXfU2h0qi7-118" value="" style="endArrow=classic;html=1;rounded=0;strokeColor=#000000;fontColor=#000000;jumpStyle=arc;exitX=1;exitY=0.607;exitDx=0;exitDy=0;exitPerimeter=0;" edge="1" source="y1RIDx8MNBoXfU2h0qi7-1" parent="1">
          <mxGeometry width="50" height="50" relative="1" as="geometry">
            <mxPoint x="615" y="3590" as="sourcePoint" />
            <mxPoint x="815" y="3573" as="targetPoint" />
          </mxGeometry>
        </mxCell>
        <mxCell id="y1RIDx8MNBoXfU2h0qi7-119" value="超声波障碍物" style="edgeLabel;html=1;align=center;verticalAlign=middle;resizable=0;points=[];fontColor=#000000;" vertex="1" connectable="0" parent="y1RIDx8MNBoXfU2h0qi7-118">
          <mxGeometry x="0.2668" y="1" relative="1" as="geometry">
            <mxPoint y="-10" as="offset" />
          </mxGeometry>
        </mxCell>
        <mxCell id="y1RIDx8MNBoXfU2h0qi7-120" value="" style="endArrow=classic;html=1;rounded=0;strokeColor=#000000;fontColor=#000000;jumpStyle=arc;exitX=1;exitY=0.706;exitDx=0;exitDy=0;exitPerimeter=0;" edge="1" source="y1RIDx8MNBoXfU2h0qi7-1" parent="1">
          <mxGeometry width="50" height="50" relative="1" as="geometry">
            <mxPoint x="615" y="3644.6049999999996" as="sourcePoint" />
            <mxPoint x="815" y="3631" as="targetPoint" />
          </mxGeometry>
        </mxCell>
        <mxCell id="y1RIDx8MNBoXfU2h0qi7-121" value="融合车位" style="edgeLabel;html=1;align=center;verticalAlign=middle;resizable=0;points=[];fontColor=#000000;" vertex="1" connectable="0" parent="y1RIDx8MNBoXfU2h0qi7-120">
          <mxGeometry x="0.2857" y="2" relative="1" as="geometry">
            <mxPoint y="-8" as="offset" />
          </mxGeometry>
        </mxCell>
        <mxCell id="y1RIDx8MNBoXfU2h0qi7-122" value="" style="group" vertex="1" connectable="0" parent="1">
          <mxGeometry x="-335" y="2390" width="348" height="210" as="geometry" />
        </mxCell>
        <mxCell id="y1RIDx8MNBoXfU2h0qi7-123" value="" style="rounded=0;whiteSpace=wrap;html=1;" vertex="1" parent="y1RIDx8MNBoXfU2h0qi7-122">
          <mxGeometry width="348" height="210" as="geometry" />
        </mxCell>
        <mxCell id="y1RIDx8MNBoXfU2h0qi7-124" value="" style="group" vertex="1" connectable="0" parent="y1RIDx8MNBoXfU2h0qi7-122">
          <mxGeometry x="20" y="40" width="102.5" height="160" as="geometry" />
        </mxCell>
        <mxCell id="y1RIDx8MNBoXfU2h0qi7-125" value="" style="rounded=0;whiteSpace=wrap;html=1;" vertex="1" parent="y1RIDx8MNBoXfU2h0qi7-124">
          <mxGeometry width="102.5" height="160" as="geometry" />
        </mxCell>
        <mxCell id="y1RIDx8MNBoXfU2h0qi7-126" value="" style="group" vertex="1" connectable="0" parent="y1RIDx8MNBoXfU2h0qi7-124">
          <mxGeometry x="12" width="81" height="150" as="geometry" />
        </mxCell>
        <mxCell id="y1RIDx8MNBoXfU2h0qi7-127" value="速度" style="rounded=0;whiteSpace=wrap;html=1;fillColor=#e51400;fontColor=#000000;strokeColor=#B20000;" vertex="1" parent="y1RIDx8MNBoXfU2h0qi7-126">
          <mxGeometry y="30" width="81" height="30" as="geometry" />
        </mxCell>
        <mxCell id="y1RIDx8MNBoXfU2h0qi7-128" value="整车" style="text;html=1;strokeColor=none;fillColor=none;align=center;verticalAlign=middle;whiteSpace=wrap;rounded=0;" vertex="1" parent="y1RIDx8MNBoXfU2h0qi7-126">
          <mxGeometry x="5.5" width="70" height="30" as="geometry" />
        </mxCell>
        <mxCell id="y1RIDx8MNBoXfU2h0qi7-129" value="加速度" style="rounded=0;whiteSpace=wrap;html=1;fillColor=#e51400;fontColor=#000000;strokeColor=#B20000;" vertex="1" parent="y1RIDx8MNBoXfU2h0qi7-126">
          <mxGeometry x="0.5" y="110" width="80" height="40" as="geometry" />
        </mxCell>
        <mxCell id="y1RIDx8MNBoXfU2h0qi7-130" value="航向" style="rounded=0;whiteSpace=wrap;html=1;fillColor=#e51400;fontColor=#000000;strokeColor=#B20000;" vertex="1" parent="y1RIDx8MNBoXfU2h0qi7-126">
          <mxGeometry x="0.5" y="70" width="80" height="30" as="geometry" />
        </mxCell>
        <mxCell id="y1RIDx8MNBoXfU2h0qi7-131" value="行车感知融合全局输入" style="text;html=1;strokeColor=none;fillColor=none;align=center;verticalAlign=middle;whiteSpace=wrap;rounded=0;" vertex="1" parent="y1RIDx8MNBoXfU2h0qi7-122">
          <mxGeometry x="107.5" y="6" width="135" height="30" as="geometry" />
        </mxCell>
        <mxCell id="y1RIDx8MNBoXfU2h0qi7-132" value="" style="group" vertex="1" connectable="0" parent="y1RIDx8MNBoXfU2h0qi7-122">
          <mxGeometry x="135" y="42.5" width="195" height="155" as="geometry" />
        </mxCell>
        <mxCell id="y1RIDx8MNBoXfU2h0qi7-133" value="" style="rounded=0;whiteSpace=wrap;html=1;" vertex="1" parent="y1RIDx8MNBoXfU2h0qi7-132">
          <mxGeometry width="195" height="155" as="geometry" />
        </mxCell>
        <mxCell id="y1RIDx8MNBoXfU2h0qi7-134" value="标定" style="rounded=0;whiteSpace=wrap;html=1;fillColor=#e51400;fontColor=#000000;strokeColor=#B20000;" vertex="1" parent="y1RIDx8MNBoXfU2h0qi7-132">
          <mxGeometry x="15" y="35" width="81" height="30" as="geometry" />
        </mxCell>
        <mxCell id="y1RIDx8MNBoXfU2h0qi7-135" value="模型" style="rounded=0;whiteSpace=wrap;html=1;fillColor=#e51400;fontColor=#000000;strokeColor=#B20000;" vertex="1" parent="y1RIDx8MNBoXfU2h0qi7-132">
          <mxGeometry x="106.5" y="35" width="81" height="30" as="geometry" />
        </mxCell>
        <mxCell id="y1RIDx8MNBoXfU2h0qi7-136" value="功能" style="rounded=0;whiteSpace=wrap;html=1;fillColor=#e51400;fontColor=#000000;strokeColor=#B20000;" vertex="1" parent="y1RIDx8MNBoXfU2h0qi7-132">
          <mxGeometry x="15" y="75" width="81" height="30" as="geometry" />
        </mxCell>
        <mxCell id="y1RIDx8MNBoXfU2h0qi7-137" value="算法" style="rounded=0;whiteSpace=wrap;html=1;fillColor=#e51400;fontColor=#000000;strokeColor=#B20000;" vertex="1" parent="y1RIDx8MNBoXfU2h0qi7-132">
          <mxGeometry x="106.5" y="75" width="81" height="30" as="geometry" />
        </mxCell>
        <mxCell id="y1RIDx8MNBoXfU2h0qi7-138" value="系统" style="rounded=0;whiteSpace=wrap;html=1;fillColor=#e51400;fontColor=#000000;strokeColor=#B20000;" vertex="1" parent="y1RIDx8MNBoXfU2h0qi7-132">
          <mxGeometry x="15" y="115" width="81" height="30" as="geometry" />
        </mxCell>
        <mxCell id="y1RIDx8MNBoXfU2h0qi7-139" value="参数" style="text;html=1;strokeColor=none;fillColor=none;align=center;verticalAlign=middle;whiteSpace=wrap;rounded=0;" vertex="1" parent="y1RIDx8MNBoXfU2h0qi7-132">
          <mxGeometry x="50" y="5" width="60" height="30" as="geometry" />
        </mxCell>
        <mxCell id="y1RIDx8MNBoXfU2h0qi7-140" style="edgeStyle=orthogonalEdgeStyle;rounded=0;orthogonalLoop=1;jettySize=auto;html=1;" edge="1" source="y1RIDx8MNBoXfU2h0qi7-123" target="y1RIDx8MNBoXfU2h0qi7-7" parent="1">
          <mxGeometry relative="1" as="geometry">
            <Array as="points">
              <mxPoint x="-405" y="2495" />
              <mxPoint x="-405" y="2495" />
            </Array>
          </mxGeometry>
        </mxCell>
        <mxCell id="y1RIDx8MNBoXfU2h0qi7-141" style="edgeStyle=orthogonalEdgeStyle;rounded=0;orthogonalLoop=1;jettySize=auto;html=1;entryX=0.267;entryY=0.001;entryDx=0;entryDy=0;entryPerimeter=0;" edge="1" source="y1RIDx8MNBoXfU2h0qi7-123" target="y1RIDx8MNBoXfU2h0qi7-8" parent="1">
          <mxGeometry relative="1" as="geometry" />
        </mxCell>
        <mxCell id="y1RIDx8MNBoXfU2h0qi7-142" value="" style="group" vertex="1" connectable="0" parent="1">
          <mxGeometry x="-345" y="3230" width="348" height="210" as="geometry" />
        </mxCell>
        <mxCell id="y1RIDx8MNBoXfU2h0qi7-143" value="" style="rounded=0;whiteSpace=wrap;html=1;" vertex="1" parent="y1RIDx8MNBoXfU2h0qi7-142">
          <mxGeometry width="348" height="210" as="geometry" />
        </mxCell>
        <mxCell id="y1RIDx8MNBoXfU2h0qi7-144" value="" style="group" vertex="1" connectable="0" parent="y1RIDx8MNBoXfU2h0qi7-142">
          <mxGeometry x="20" y="40" width="102.5" height="160" as="geometry" />
        </mxCell>
        <mxCell id="y1RIDx8MNBoXfU2h0qi7-145" value="" style="rounded=0;whiteSpace=wrap;html=1;" vertex="1" parent="y1RIDx8MNBoXfU2h0qi7-144">
          <mxGeometry width="102.5" height="160" as="geometry" />
        </mxCell>
        <mxCell id="y1RIDx8MNBoXfU2h0qi7-146" value="" style="group" vertex="1" connectable="0" parent="y1RIDx8MNBoXfU2h0qi7-144">
          <mxGeometry x="12" width="81" height="150" as="geometry" />
        </mxCell>
        <mxCell id="y1RIDx8MNBoXfU2h0qi7-147" value="速度" style="rounded=0;whiteSpace=wrap;html=1;fillColor=#e51400;fontColor=#000000;strokeColor=#B20000;" vertex="1" parent="y1RIDx8MNBoXfU2h0qi7-146">
          <mxGeometry y="30" width="81" height="30" as="geometry" />
        </mxCell>
        <mxCell id="y1RIDx8MNBoXfU2h0qi7-148" value="整车" style="text;html=1;strokeColor=none;fillColor=none;align=center;verticalAlign=middle;whiteSpace=wrap;rounded=0;" vertex="1" parent="y1RIDx8MNBoXfU2h0qi7-146">
          <mxGeometry x="5.5" width="70" height="30" as="geometry" />
        </mxCell>
        <mxCell id="y1RIDx8MNBoXfU2h0qi7-149" value="加速度" style="rounded=0;whiteSpace=wrap;html=1;fillColor=#e51400;fontColor=#000000;strokeColor=#B20000;" vertex="1" parent="y1RIDx8MNBoXfU2h0qi7-146">
          <mxGeometry x="0.5" y="110" width="80" height="40" as="geometry" />
        </mxCell>
        <mxCell id="y1RIDx8MNBoXfU2h0qi7-150" value="航向" style="rounded=0;whiteSpace=wrap;html=1;fillColor=#e51400;fontColor=#000000;strokeColor=#B20000;" vertex="1" parent="y1RIDx8MNBoXfU2h0qi7-146">
          <mxGeometry x="0.5" y="70" width="80" height="30" as="geometry" />
        </mxCell>
        <mxCell id="y1RIDx8MNBoXfU2h0qi7-151" value="行车感知融合全局输入" style="text;html=1;strokeColor=none;fillColor=none;align=center;verticalAlign=middle;whiteSpace=wrap;rounded=0;" vertex="1" parent="y1RIDx8MNBoXfU2h0qi7-142">
          <mxGeometry x="107.5" y="6" width="135" height="30" as="geometry" />
        </mxCell>
        <mxCell id="y1RIDx8MNBoXfU2h0qi7-152" value="" style="group" vertex="1" connectable="0" parent="y1RIDx8MNBoXfU2h0qi7-142">
          <mxGeometry x="135" y="42.5" width="195" height="155" as="geometry" />
        </mxCell>
        <mxCell id="y1RIDx8MNBoXfU2h0qi7-153" value="" style="rounded=0;whiteSpace=wrap;html=1;" vertex="1" parent="y1RIDx8MNBoXfU2h0qi7-152">
          <mxGeometry width="195" height="155" as="geometry" />
        </mxCell>
        <mxCell id="y1RIDx8MNBoXfU2h0qi7-154" value="标定" style="rounded=0;whiteSpace=wrap;html=1;fillColor=#e51400;fontColor=#000000;strokeColor=#B20000;" vertex="1" parent="y1RIDx8MNBoXfU2h0qi7-152">
          <mxGeometry x="15" y="35" width="81" height="30" as="geometry" />
        </mxCell>
        <mxCell id="y1RIDx8MNBoXfU2h0qi7-155" value="模型" style="rounded=0;whiteSpace=wrap;html=1;fillColor=#e51400;fontColor=#000000;strokeColor=#B20000;" vertex="1" parent="y1RIDx8MNBoXfU2h0qi7-152">
          <mxGeometry x="106.5" y="35" width="81" height="30" as="geometry" />
        </mxCell>
        <mxCell id="y1RIDx8MNBoXfU2h0qi7-156" value="功能" style="rounded=0;whiteSpace=wrap;html=1;fillColor=#e51400;fontColor=#000000;strokeColor=#B20000;" vertex="1" parent="y1RIDx8MNBoXfU2h0qi7-152">
          <mxGeometry x="15" y="75" width="81" height="30" as="geometry" />
        </mxCell>
        <mxCell id="y1RIDx8MNBoXfU2h0qi7-157" value="算法" style="rounded=0;whiteSpace=wrap;html=1;fillColor=#e51400;fontColor=#000000;strokeColor=#B20000;" vertex="1" parent="y1RIDx8MNBoXfU2h0qi7-152">
          <mxGeometry x="106.5" y="75" width="81" height="30" as="geometry" />
        </mxCell>
        <mxCell id="y1RIDx8MNBoXfU2h0qi7-158" value="系统" style="rounded=0;whiteSpace=wrap;html=1;fillColor=#e51400;fontColor=#000000;strokeColor=#B20000;" vertex="1" parent="y1RIDx8MNBoXfU2h0qi7-152">
          <mxGeometry x="15" y="115" width="81" height="30" as="geometry" />
        </mxCell>
        <mxCell id="y1RIDx8MNBoXfU2h0qi7-159" value="参数" style="text;html=1;strokeColor=none;fillColor=none;align=center;verticalAlign=middle;whiteSpace=wrap;rounded=0;" vertex="1" parent="y1RIDx8MNBoXfU2h0qi7-152">
          <mxGeometry x="50" y="5" width="60" height="30" as="geometry" />
        </mxCell>
        <mxCell id="y1RIDx8MNBoXfU2h0qi7-160" style="edgeStyle=orthogonalEdgeStyle;rounded=0;orthogonalLoop=1;jettySize=auto;html=1;entryX=1.009;entryY=0.129;entryDx=0;entryDy=0;entryPerimeter=0;" edge="1" source="y1RIDx8MNBoXfU2h0qi7-143" target="y1RIDx8MNBoXfU2h0qi7-3" parent="1">
          <mxGeometry relative="1" as="geometry" />
        </mxCell>
        <mxCell id="y1RIDx8MNBoXfU2h0qi7-161" style="edgeStyle=orthogonalEdgeStyle;rounded=0;orthogonalLoop=1;jettySize=auto;html=1;entryX=0;entryY=0.065;entryDx=0;entryDy=0;entryPerimeter=0;" edge="1" source="y1RIDx8MNBoXfU2h0qi7-143" target="y1RIDx8MNBoXfU2h0qi7-2" parent="1">
          <mxGeometry relative="1" as="geometry" />
        </mxCell>
      </root>
    </mxGraphModel>
  </diagram>
</mxfile>
